#N canvas 87 169 1115 570 10;
#X obj 137 218 cnv 15 355 300 empty empty empty 20 12 0 14 -212212
-66577 0;
#X obj 291 21 cnv 15 201 186 empty empty empty 20 12 0 14 -212212 -66577
0;
#X obj 291 218 cnv 15 201 300 empty empty empty 20 12 0 14 -261325
-66577 0;
#X obj 177 307 hradio 15 1 1 2 empty empty DIR 0 -8 0 10 -49933 -262144
-49933 1;
#X obj 223 393 *~, f 8;
#X obj 153 351 mtof;
#X msg 53 337 35;
#X msg 83 337 38;
#X msg 53 317 42;
#X msg 83 317 48;
#X obj 153 372 sig~;
#N canvas 0 22 354 477 modulador 0;
#X obj 39 181 +~, f 10;
#X obj 39 204 phasor~;
#X obj 39 160 phasor~;
#X obj 109 245 *~ 2;
#X obj 109 266 -~ 1;
#X obj 96 139 *~ 99.9;
#X obj 201 118 sig~;
#X obj 109 398 outlet~;
#X text 109 418 BIPOLAR;
#X obj 39 398 outlet~;
#X text 37 418 UNIPOLAR;
#X obj 174 97 t f f;
#X obj 39 139 sig~;
#X obj 96 118 line~;
#X obj 179 245 *~ 1.75;
#X obj 249 297 *~ 2;
#X obj 249 318 -~ 1;
#X obj 249 339 clip~ -1 1;
#X obj 179 398 outlet~;
#X text 177 418 UNIPOLAR;
#X text 191 430 SIN;
#X obj 249 398 outlet~;
#X text 250 418 BIPOLAR;
#X text 261 430 SIN;
#X obj 179 337 clip~ 0 1;
#X obj 179 266 expr~ sin($v1);
#X obj 96 97 pack 0 10;
#X obj 96 160 expr~ ($v1-50)/$v2;
#X obj 96 36 inlet;
#X obj 174 36 inlet;
#X text 86 19 DIRECCIÓN;
#X text 166 19 VELOCIDAD;
#X connect 0 0 1 0;
#X connect 1 0 9 0;
#X connect 1 0 14 0;
#X connect 1 0 3 0;
#X connect 2 0 0 0;
#X connect 3 0 4 0;
#X connect 4 0 7 0;
#X connect 5 0 27 0;
#X connect 6 0 27 1;
#X connect 11 0 12 0;
#X connect 11 1 6 0;
#X connect 12 0 2 0;
#X connect 13 0 5 0;
#X connect 14 0 25 0;
#X connect 15 0 16 0;
#X connect 16 0 17 0;
#X connect 17 0 21 0;
#X connect 24 0 18 0;
#X connect 25 0 15 0;
#X connect 25 0 24 0;
#X connect 26 0 13 0;
#X connect 27 0 0 1;
#X connect 28 0 26 0;
#X connect 29 0 11 0;
#X restore 177 327 pd modulador;
#X msg 53 297 50;
#X msg 83 297 53;
#X msg 83 277 59;
#X msg 53 277 57;
#X obj 307 267 noise~;
#X obj 307 288 samphold~;
#X msg 367 267 reset;
#X obj 307 309 abs~;
#X obj 307 330 *~ 82;
#X obj 307 372 expr~ 8.1758*pow(2 \, $v1), f 28;
#X obj 307 351 *~ 0.0833333;
#X text 337 426 Musimathics 2.3.3 \, vol1;
#X text 385 351 <- 1/12;
#X obj 53 230 loadbang;
#X obj 393 390 cnv 15 86 20 empty empty f(x)=f(R)*2^x 4 10 0 10 -49933
-262144 0;
#X text 343 412 intervalos arbitrarios;
#X obj 340 81 hradio 15 1 1 5 empty empty empty 0 -8 0 10 -49933 -262144
-1 1;
#X obj 310 51 hsl 128 20 20 330 0 1 empty empty BPM -2 -8 0 10 -261313
-49933 -49933 9100 1;
#N canvas 0 22 506 404 clock/1/4/9/16 0;
#X obj 59 120 sig~;
#X obj 59 141 phasor~;
#X obj 59 182 *~ 10;
#X obj 59 203 expr~ $v1%2;
#X obj 59 265 change;
#X obj 179 203 expr~ $v1%2;
#X obj 179 265 change;
#X obj 179 182 *~;
#X obj 194 161 * 10;
#X obj 194 119 + 1;
#X obj 289 203 expr~ $v1%2;
#X obj 289 265 change;
#X obj 289 286 sel 0;
#X obj 289 182 *~;
#X obj 304 161 * 10;
#X obj 304 119 + 1;
#X obj 399 203 expr~ $v1%2;
#X obj 399 265 change;
#X obj 399 286 sel 0;
#X obj 399 182 *~;
#X obj 414 161 * 10;
#X obj 414 119 + 1;
#X obj 179 244 snapshot~;
#X obj 289 244 snapshot~;
#X obj 399 244 snapshot~;
#X obj 12 230 bang~;
#X obj 59 244 snapshot~;
#X obj 59 286 sel 0;
#X obj 179 286 sel 0;
#X obj 59 347 outlet;
#X obj 179 347 outlet;
#X obj 289 347 outlet;
#X obj 399 347 outlet;
#X obj 59 38 inlet;
#X obj 194 38 inlet;
#X obj 304 38 inlet;
#X obj 414 38 inlet;
#X text 64 21 BPM;
#X text 196 21 DIV1;
#X text 306 21 DIV2;
#X text 416 21 DIV3;
#X text 184 364 DIV1;
#X text 294 364 DIV2;
#X text 404 364 DIV3;
#X text 60 364 CYCLE;
#X obj 304 140 pow 2;
#X obj 414 140 pow 2;
#X obj 194 140 pow 2;
#X obj 59 99 expr ($f1/60)/16;
#X connect 0 0 1 0;
#X connect 1 0 2 0;
#X connect 1 0 7 0;
#X connect 1 0 13 0;
#X connect 1 0 19 0;
#X connect 2 0 3 0;
#X connect 3 0 26 0;
#X connect 4 0 27 0;
#X connect 5 0 22 0;
#X connect 6 0 28 0;
#X connect 7 0 5 0;
#X connect 8 0 7 1;
#X connect 9 0 47 0;
#X connect 10 0 23 0;
#X connect 11 0 12 0;
#X connect 12 0 31 0;
#X connect 13 0 10 0;
#X connect 14 0 13 1;
#X connect 15 0 45 0;
#X connect 16 0 24 0;
#X connect 17 0 18 0;
#X connect 18 0 32 0;
#X connect 19 0 16 0;
#X connect 20 0 19 1;
#X connect 21 0 46 0;
#X connect 22 0 6 0;
#X connect 23 0 11 0;
#X connect 24 0 17 0;
#X connect 25 0 26 0;
#X connect 25 0 22 0;
#X connect 25 0 23 0;
#X connect 25 0 24 0;
#X connect 26 0 4 0;
#X connect 27 0 29 0;
#X connect 28 0 30 0;
#X connect 33 0 48 0;
#X connect 34 0 9 0;
#X connect 35 0 15 0;
#X connect 36 0 21 0;
#X connect 45 0 14 0;
#X connect 46 0 20 0;
#X connect 47 0 8 0;
#X connect 48 0 0 0;
#X restore 307 141 pd clock/1/4/9/16;
#X obj 373 101 hradio 15 1 1 5 empty empty empty 0 -8 0 10 -49933 -262144
-1 1;
#X obj 406 121 hradio 15 1 1 5 empty empty empty 0 -8 0 10 -49933 -262144
-1 1;
#X obj 246 255 vsl 15 64 0.99 0.09 0 1 empty empty VEL 0 -9 0 10 -49933
-262144 -49933 5700 1;
#X obj 307 162 bng 15 100 50 0 \$0-s-div-0 empty empty 17 7 0 10 -158119
-258049 -1;
#X obj 340 162 bng 15 100 50 0 \$0-s-div-1 empty empty 17 7 0 10 -158119
-261313 -1;
#X obj 373 162 bng 15 100 50 0 \$0-s-div-2 empty empty 17 7 0 10 -158119
-261313 -1;
#X obj 406 162 bng 15 100 50 0 \$0-s-div-3 empty empty 17 7 0 10 -158119
-261313 -1;
#X obj 20 21 cnv 15 260 186 empty empty empty 20 12 0 14 -212212 -66577
0;
#X obj 40 41 tgl 15 0 empty empty empty 17 7 0 10 -49933 -262144 -1
1 1;
#X msg 40 62 \; pd dsp \$1;
#X obj 130 82 *~ 0.9;
#X obj 130 166 dac~ 1;
#X obj 130 124 hip~ 3;
#X obj 200 82 *~ 0.9;
#X obj 200 124 hip~ 3;
#X obj 200 166 dac~ 2;
#N canvas 0 22 450 300 tanh~ 0;
#X obj 12 12 inlet~;
#X obj 27 64 *~;
#X obj 12 192 outlet~;
#X obj 27 140 /~;
#X obj 12 166 *~;
#X text 92 42 // http://www.musicdsp.org/showone.php?id=238;
#X text 92 62 // y = x * (27 + x^2) / (27 + 9*x^2);
#X obj 27 90 +~ 27;
#X obj 67 116 +~ 27;
#X text 92 22 // pade-approximation of tanh function;
#X obj 12 38 clip~ -3 3;
#X obj 67 90 *~ 9;
#X connect 0 0 10 0;
#X connect 1 0 7 0;
#X connect 1 0 11 0;
#X connect 3 0 4 1;
#X connect 4 0 2 0;
#X connect 7 0 3 0;
#X connect 8 0 3 1;
#X connect 10 0 1 0;
#X connect 10 0 1 1;
#X connect 10 0 4 0;
#X connect 11 0 8 0;
#X restore 130 103 pd tanh~;
#N canvas 0 22 450 300 tanh~ 0;
#X obj 12 12 inlet~;
#X obj 27 64 *~;
#X obj 12 192 outlet~;
#X obj 27 140 /~;
#X obj 12 166 *~;
#X text 92 42 // http://www.musicdsp.org/showone.php?id=238;
#X text 92 62 // y = x * (27 + x^2) / (27 + 9*x^2);
#X obj 27 90 +~ 27;
#X obj 67 116 +~ 27;
#X text 92 22 // pade-approximation of tanh function;
#X obj 12 38 clip~ -3 3;
#X obj 67 90 *~ 9;
#X connect 0 0 10 0;
#X connect 1 0 7 0;
#X connect 1 0 11 0;
#X connect 3 0 4 1;
#X connect 4 0 2 0;
#X connect 7 0 3 0;
#X connect 8 0 3 1;
#X connect 10 0 1 0;
#X connect 10 0 1 1;
#X connect 10 0 4 0;
#X connect 11 0 8 0;
#X restore 200 103 pd tanh~;
#X obj 130 145 *~ 0.9;
#X obj 200 145 *~ 0.9;
#X obj 153 435 *~ 0.7;
#X obj 130 41 catch~ \$0-p3s1;
#X obj 367 246 r \$0-s-div-1;
#X obj 153 414 vcf~ 0.9, f 20;
#X obj 503 20 cnv 15 250 498 empty empty empty 20 12 0 14 -212212 -66577
0;
#X obj 523 50 t b b;
#X obj 619 117 == 0;
#X msg 523 71 0;
#X msg 533 112 1;
#X obj 523 133 sel 0;
#X obj 619 96 random 5;
#X obj 523 154 random 15;
#X obj 523 175 t f f;
#X obj 545 207 % 3;
#X obj 523 232 +;
#X obj 523 293 phasor~;
#X obj 523 314 cos~;
#X obj 523 335 *~;
#X obj 523 274 mtof;
#X obj 523 356 *~;
#X msg 662 297 1 1 \, 0 \$1 1;
#X obj 662 318 vline~;
#X obj 662 275 *;
#X obj 707 208 vsl 15 64 1 100 1 1 empty empty DEC 0 -9 0 10 -49933
-262144 -49933 5300 1;
#X obj 533 91 r \$0-s-div-3;
#X obj 576 277 /~ 4;
#N canvas 0 22 450 300 tanh~ 0;
#X obj 12 12 inlet~;
#X obj 27 64 *~;
#X obj 12 192 outlet~;
#X obj 27 140 /~;
#X obj 12 166 *~;
#X text 92 42 // http://www.musicdsp.org/showone.php?id=238;
#X text 92 62 // y = x * (27 + x^2) / (27 + 9*x^2);
#X obj 27 90 +~ 27;
#X obj 67 116 +~ 27;
#X text 92 22 // pade-approximation of tanh function;
#X obj 12 38 clip~ -3 3;
#X obj 67 90 *~ 9;
#X connect 0 0 10 0;
#X connect 1 0 7 0;
#X connect 1 0 11 0;
#X connect 3 0 4 1;
#X connect 4 0 2 0;
#X connect 7 0 3 0;
#X connect 8 0 3 1;
#X connect 10 0 1 0;
#X connect 10 0 1 1;
#X connect 10 0 4 0;
#X connect 11 0 8 0;
#X restore 523 399 pd tanh~;
#X obj 523 377 *~ 4;
#X obj 576 298 *~;
#X obj 614 319 osc~ 90;
#X obj 523 253 + 20;
#X obj 576 184 vsl 15 64 100 2000 1 1 empty empty FM-FRQ 0 -9 0 10
-49933 -262144 -49933 5100 1;
#X obj 662 340 pow~ 6;
#X obj 523 30 r \$0-s-div-1;
#X obj 523 463 /~ 4;
#X msg 662 170 2 \$1;
#X obj 662 191 pow;
#X obj 576 257 osc~;
#X obj 523 420 hip~ 100;
#X obj 523 441 hip~ 100;
#X obj 614 222 vsl 15 64 10 200 1 1 empty empty RNG-FRQ 0 -9 0 10 -49933
-262144 -49933 4700 1;
#X obj 662 149 random 7;
#X text 508 520 Percusión hecha con una mezlca de Ring y Phase Mod.
;
#X text 139 520 Un oscilador de sierra cuyo filtro es controlado por
S&H y un modulador en rangos audibles.;
#N canvas 0 22 163 278 antiSaw 0;
#X obj 32 29 inlet~;
#X obj 32 111 *~ 2;
#X obj 32 132 -~ 1;
#N canvas 0 22 361 418 anti 0;
#X obj 19 88 *~ 0.064;
#X obj 19 115 rpole~ 0.93538;
#X obj 19 142 *~ 0.00431;
#X obj 19 169 cpole~ 0.96559 0.05592;
#X obj 19 196 cpole~ 0.96559 0.05592;
#X obj 19 223 *~ 0.125;
#X obj 19 250 rzero~ -1;
#X obj 19 277 rzero~ -1;
#X obj 19 304 rzero~ -1;
#X obj 19 361 outlet~;
#X text 19 381 http://write.flossmanuals.net/pure-data/antialiasing/
;
#X obj 19 37 inlet~;
#X text 10 20 OSCILLATOR;
#X obj 117 331 block~ 1024 1 16;
#X connect 0 0 1 0;
#X connect 1 0 2 0;
#X connect 2 0 3 0;
#X connect 3 0 4 0;
#X connect 3 1 4 1;
#X connect 4 0 5 0;
#X connect 5 0 6 0;
#X connect 6 0 7 0;
#X connect 7 0 8 0;
#X connect 8 0 9 0;
#X connect 11 0 0 0;
#X restore 32 153 pd anti;
#X obj 32 90 phasor~;
#X obj 32 214 outlet~;
#X connect 0 0 4 0;
#X connect 1 0 2 0;
#X connect 2 0 3 0;
#X connect 3 0 5 0;
#X connect 4 0 1 0;
#X restore 153 393 pd antiSaw;
#X obj 53 397 s midiNote;
#X obj 153 476 throw~ \$0-p3s1;
#X obj 523 484 throw~ \$0-p3s1;
#X obj 764 20 cnv 15 300 498 empty empty empty 20 12 0 14 -212212 -66577
0;
#X obj 764 20 cnv 15 300 217 empty empty empty 20 12 0 14 -261325 -66577
0;
#X obj 801 110 hradio 15 1 1 8 empty empty EG 0 -8 0 10 -49933 -262144
-1 1;
#X obj 821 90 hradio 15 1 1 8 empty empty OG1 0 -8 0 10 -49933 -262144
-1 1;
#X obj 841 70 hradio 15 1 1 8 empty empty OG2 0 -8 0 10 -49933 -262144
-1 2;
#X obj 922 150 r \$0-s-div-0;
#X obj 922 171 spigot, f 14;
#X obj 1003 149 tgl 15 0 empty empty EG! 17 7 0 10 -212212 -41611 -1
0 1;
#X obj 861 135 vradio 15 1 1 3 empty empty empty 0 -8 0 10 -49933 -262144
-1 1;
#X obj 881 135 vradio 15 1 1 3 empty empty empty 0 -8 0 10 -49933 -262144
-1 1;
#X obj 901 135 vradio 15 1 1 3 empty empty empty 0 -8 0 10 -49933 -262144
-1 0;
#X obj 851 215 bng 15 100 50 0 empty empty OG1 17 7 0 10 -49933 -261313
-1;
#X obj 922 215 bng 15 100 50 0 empty empty OG2 17 7 0 10 -49933 -261313
-1;
#X obj 781 34 r \$0-s-div-1;
#X obj 781 215 bng 15 100 50 0 empty empty EG 17 7 0 10 -49933 -261313
-1;
#X obj 832 465 *~, f 19;
#X obj 943 444 vline~;
#X obj 853 402 *~, f 8;
#X obj 853 423 cos~;
#X obj 832 444 *~, f 4;
#X obj 832 486 throw~ \$0-p3s1;
#X obj 988 245 r midiNote;
#X obj 832 339 mtof;
#X obj 832 360 sig~;
#X obj 832 276 f;
#X obj 902 276 f;
#X obj 973 276 f;
#X obj 781 245 t b b, f 9;
#X obj 851 245 t b b, f 9;
#X obj 922 245 t b b, f 9;
#X obj 973 297 + 7;
#X obj 832 297 + 3;
#X obj 902 297 + 8;
#X obj 832 318 + 24;
#X obj 901 319 hsl 64 15 0 127 0 0 empty empty empty -2 -8 0 10 -261325
-1 -1 0 1;
#X obj 898 339 / 127;
#X obj 898 360 pack 0 50;
#X obj 898 381 line~;
#X obj 781 276 s envT;
#X obj 943 401 r envT;
#X obj 832 381 osc~;
#X text 968 319 SHAPE;
#X text 738 538 Secuenciador de niveles dirigido a un oscilador [osc~]
;
#N canvas 0 22 1040 686 aufzug 0;
#X obj 516 503 spigot;
#X obj 566 503 spigot;
#X obj 549 452 == 0;
#X obj 599 452 == 1;
#X obj 636 503 spigot;
#X obj 686 503 spigot;
#X obj 669 452 == 0;
#X obj 719 452 == 1;
#X obj 756 503 spigot;
#X obj 806 503 spigot;
#X obj 789 452 == 0;
#X obj 839 452 == 1;
#X obj 292 299 spigot, f 8;
#X obj 292 340 f;
#X obj 322 340 + 1;
#X obj 349 150 + 1;
#X obj 362 299 spigot, f 8;
#X obj 362 340 f;
#X obj 392 340 + 1;
#X obj 419 180 + 1;
#X obj 432 299 spigot, f 8;
#X obj 432 340 f;
#X obj 462 340 + 1;
#X obj 489 210 + 1;
#X obj 222 228 hradio 15 1 0 3 empty empty empty 0 -8 0 10 -262144
-1 -1 2;
#X obj 222 258 == 0;
#X obj 262 258 == 1;
#X obj 302 258 == 2;
#X obj 349 129 t f f;
#X obj 419 159 t f f;
#X obj 489 189 t f f;
#X obj 292 492 sel, f 4;
#X obj 362 492 sel, f 4;
#X obj 432 492 sel, f 4;
#X msg 45 326 0;
#X obj 292 553 f;
#X obj 322 553 + 1;
#X obj 292 574 % 3;
#X obj 222 207 f;
#X obj 292 513 bang;
#X obj 362 513 bang;
#X obj 432 513 bang;
#X obj 566 482 sel 0;
#X obj 686 482 sel 0;
#X obj 45 58 loadbang;
#X obj 349 58 inlet;
#X obj 419 58 inlet;
#X obj 489 58 inlet;
#X obj 292 58 inlet;
#X obj 541 604 outlet;
#X obj 671 604 outlet;
#X obj 791 604 outlet;
#X obj 599 58 inlet;
#X obj 719 58 inlet;
#X obj 839 58 inlet;
#X obj 516 452 f;
#X obj 636 452 f;
#X obj 756 452 f;
#X text 545 624 OUT1;
#X text 675 624 OUT2;
#X text 795 624 OUT3;
#X text 539 636 (bang);
#X text 669 636 (bang);
#X text 789 636 (bang);
#X obj 541 534 bang;
#X obj 671 534 bang;
#X obj 791 534 bang;
#X text 346 42 COUNT1;
#X text 416 42 COUNT2;
#X text 486 42 COUNT3;
#X text 298 42 FWD;
#X text 290 29 (bang);
#X text 349 30 (int);
#X text 419 30 (int);
#X text 489 30 (int);
#X text 594 42 MODE-O1;
#X text 714 42 MODE-02;
#X text 834 42 MODE-03;
#X obj 939 312 bang;
#X obj 939 58 inlet;
#X text 939 42 RESET;
#X text 587 30 (int[0-2]);
#X text 707 30 (int[0-2]);
#X text 827 30 (int[0-2]);
#X text 936 30 (bang);
#X obj 599 421 f;
#X obj 719 421 f;
#X obj 839 421 f;
#X obj 292 361 %, f 10;
#X obj 362 361 %, f 10;
#X obj 432 361 %, f 10;
#X obj 806 482 sel 0;
#X connect 0 0 64 0;
#X connect 1 0 64 0;
#X connect 2 0 0 1;
#X connect 3 0 1 1;
#X connect 4 0 65 0;
#X connect 5 0 65 0;
#X connect 6 0 4 1;
#X connect 7 0 5 1;
#X connect 8 0 66 0;
#X connect 9 0 66 0;
#X connect 10 0 8 1;
#X connect 11 0 9 1;
#X connect 12 0 13 0;
#X connect 13 0 14 0;
#X connect 13 0 88 0;
#X connect 14 0 13 1;
#X connect 15 0 88 1;
#X connect 16 0 17 0;
#X connect 17 0 18 0;
#X connect 17 0 89 0;
#X connect 18 0 17 1;
#X connect 19 0 89 1;
#X connect 20 0 21 0;
#X connect 21 0 22 0;
#X connect 21 0 90 0;
#X connect 22 0 21 1;
#X connect 23 0 90 1;
#X connect 24 0 25 0;
#X connect 24 0 26 0;
#X connect 24 0 27 0;
#X connect 25 0 12 1;
#X connect 26 0 16 1;
#X connect 27 0 20 1;
#X connect 28 0 15 0;
#X connect 28 1 31 1;
#X connect 29 0 19 0;
#X connect 29 1 32 1;
#X connect 30 0 23 0;
#X connect 30 1 33 1;
#X connect 31 0 39 0;
#X connect 32 0 40 0;
#X connect 33 0 41 0;
#X connect 34 0 13 1;
#X connect 34 0 21 1;
#X connect 34 0 17 1;
#X connect 34 0 38 0;
#X connect 34 0 35 0;
#X connect 35 0 36 0;
#X connect 35 0 37 0;
#X connect 36 0 35 1;
#X connect 37 0 38 1;
#X connect 38 0 24 0;
#X connect 39 0 35 0;
#X connect 40 0 35 0;
#X connect 41 0 35 0;
#X connect 42 0 1 0;
#X connect 43 0 5 0;
#X connect 44 0 34 0;
#X connect 45 0 28 0;
#X connect 46 0 29 0;
#X connect 47 0 30 0;
#X connect 48 0 38 0;
#X connect 48 0 20 0;
#X connect 48 0 16 0;
#X connect 48 0 12 0;
#X connect 52 0 85 0;
#X connect 53 0 86 0;
#X connect 54 0 87 0;
#X connect 55 0 42 0;
#X connect 55 0 0 0;
#X connect 56 0 4 0;
#X connect 56 0 43 0;
#X connect 57 0 8 0;
#X connect 57 0 91 0;
#X connect 64 0 49 0;
#X connect 65 0 50 0;
#X connect 66 0 51 0;
#X connect 78 0 34 0;
#X connect 79 0 78 0;
#X connect 85 0 2 0;
#X connect 85 0 3 0;
#X connect 86 0 6 0;
#X connect 86 0 7 0;
#X connect 87 0 10 0;
#X connect 87 0 11 0;
#X connect 88 0 31 0;
#X connect 88 0 55 0;
#X connect 89 0 32 0;
#X connect 89 0 56 0;
#X connect 90 0 33 0;
#X connect 90 0 57 0;
#X connect 91 0 9 0;
#X restore 781 192 pd aufzug;
#X f 24;
#X msg 943 423 0.45 1.5 \, 0 200 2;
#X connect 3 0 11 0;
#X connect 4 0 54 1;
#X connect 5 0 10 0;
#X connect 6 0 5 0;
#X connect 6 0 96 0;
#X connect 7 0 5 0;
#X connect 7 0 96 0;
#X connect 8 0 5 0;
#X connect 8 0 96 0;
#X connect 9 0 5 0;
#X connect 9 0 96 0;
#X connect 10 0 95 0;
#X connect 11 2 4 0;
#X connect 12 0 5 0;
#X connect 12 0 96 0;
#X connect 13 0 5 0;
#X connect 13 0 96 0;
#X connect 14 0 5 0;
#X connect 14 0 96 0;
#X connect 15 0 5 0;
#X connect 15 0 96 0;
#X connect 16 0 17 0;
#X connect 17 0 19 0;
#X connect 18 0 17 0;
#X connect 19 0 20 0;
#X connect 20 0 22 0;
#X connect 21 0 4 1;
#X connect 22 0 21 0;
#X connect 25 0 6 0;
#X connect 28 0 30 1;
#X connect 29 0 30 0;
#X connect 30 0 34 0;
#X connect 30 1 35 0;
#X connect 30 2 36 0;
#X connect 30 3 37 0;
#X connect 31 0 30 2;
#X connect 32 0 30 3;
#X connect 33 0 11 1;
#X connect 39 0 40 0;
#X connect 41 0 47 0;
#X connect 43 0 49 0;
#X connect 44 0 48 0;
#X connect 45 0 50 0;
#X connect 47 0 43 0;
#X connect 48 0 45 0;
#X connect 49 0 42 0;
#X connect 50 0 46 0;
#X connect 51 0 97 0;
#X connect 52 0 41 0;
#X connect 52 0 44 0;
#X connect 53 0 18 0;
#X connect 54 0 51 0;
#X connect 56 0 58 0;
#X connect 56 1 61 0;
#X connect 57 0 60 1;
#X connect 58 0 60 0;
#X connect 59 0 60 0;
#X connect 60 0 62 0;
#X connect 60 0 92 0;
#X connect 61 0 57 0;
#X connect 62 0 63 0;
#X connect 63 0 65 0;
#X connect 63 1 64 0;
#X connect 64 0 65 1;
#X connect 65 0 81 0;
#X connect 66 0 67 0;
#X connect 67 0 68 0;
#X connect 68 0 70 0;
#X connect 69 0 66 0;
#X connect 70 0 78 0;
#X connect 71 0 72 0;
#X connect 72 0 83 0;
#X connect 73 0 71 0;
#X connect 74 0 73 1;
#X connect 75 0 59 0;
#X connect 76 0 79 0;
#X connect 77 0 89 0;
#X connect 78 0 77 0;
#X connect 79 0 67 0;
#X connect 80 0 68 1;
#X connect 81 0 69 0;
#X connect 82 0 88 0;
#X connect 83 0 70 1;
#X connect 83 0 79 1;
#X connect 84 0 56 0;
#X connect 85 0 98 0;
#X connect 86 0 87 0;
#X connect 87 0 73 0;
#X connect 88 0 76 0;
#X connect 89 0 90 0;
#X connect 90 0 85 0;
#X connect 91 0 80 0;
#X connect 92 0 86 0;
#X connect 95 0 54 0;
#X connect 101 0 142 1;
#X connect 102 0 142 2;
#X connect 103 0 142 3;
#X connect 104 0 105 0;
#X connect 105 0 142 7;
#X connect 106 0 105 1;
#X connect 107 0 142 4;
#X connect 108 0 142 5;
#X connect 109 0 142 6;
#X connect 110 0 127 0;
#X connect 111 0 128 0;
#X connect 112 0 142 0;
#X connect 113 0 126 0;
#X connect 114 0 119 0;
#X connect 115 0 114 1;
#X connect 116 0 117 0;
#X connect 117 0 118 1;
#X connect 118 0 114 0;
#X connect 120 0 123 1;
#X connect 120 0 125 1;
#X connect 120 0 124 1;
#X connect 121 0 122 0;
#X connect 122 0 139 0;
#X connect 123 0 130 0;
#X connect 124 0 131 0;
#X connect 125 0 129 0;
#X connect 126 0 137 0;
#X connect 126 1 123 0;
#X connect 127 0 137 0;
#X connect 127 1 124 0;
#X connect 128 0 137 0;
#X connect 128 1 125 0;
#X connect 129 0 132 0;
#X connect 130 0 132 0;
#X connect 131 0 132 0;
#X connect 132 0 121 0;
#X connect 133 0 134 0;
#X connect 134 0 135 0;
#X connect 135 0 136 0;
#X connect 136 0 116 1;
#X connect 138 0 143 0;
#X connect 139 0 118 0;
#X connect 139 0 116 0;
#X connect 142 0 113 0;
#X connect 142 1 110 0;
#X connect 142 2 111 0;
#X connect 143 0 115 0;
