#N canvas 794 151 1115 823 10;
#X obj 268 92 phasor~ 0.125;
#X obj 169 164 env~;
#X obj 169 140 expr~ $v1%2;
#X obj 268 140 expr~ $v1%2;
#X obj 268 164 env~;
#X obj 169 188 change;
#X obj 268 188 change;
#X obj 169 295 tgl 15 0 empty empty empty 17 7 0 10 -262144 -1 -1 1
1;
#X msg 244 68 0;
#X obj 169 271 &&, f 17;
#X obj 293 34 loadbang;
#X obj 169 92 phasor~ 0.166;
#X obj 169 366 line~;
#X obj 94 450 *~, f 13;
#X msg 343 68 0.25;
#X obj 169 318 * 0.7;
#X obj 94 318 mtof;
#X obj 94 342 sig~;
#X obj 94 246 bang;
#X obj 94 222 sel 100;
#X msg 54 29 \; pd dsp 1 \;;
#X obj 169 342 pack 0 80;
#X obj 169 116 *~ 50;
#X obj 94 294 + 42;
#X obj 94 270 random 50;
#X obj 268 116 *~ 80;
#X obj 94 471 throw~ \$0-M;
#X obj 165 640 catch~ \$0-M;
#N canvas 0 22 450 300 sub.tanh~ 0;
#X obj 12 12 inlet~;
#X obj 12 38 clip~ -3 3;
#X obj 27 64 *~;
#X obj 12 192 outlet~;
#X obj 27 140 /~;
#X obj 12 166 *~;
#X obj 67 90 *~ 9;
#X text 92 42 // http://www.musicdsp.org/showone.php?id=238;
#X text 92 62 // y = x * (27 + x^2) / (27 + 9*x^2);
#X obj 27 90 +~ 27;
#X obj 67 116 +~ 27;
#X text 92 22 // pade-approximation of tanh function;
#X connect 0 0 1 0;
#X connect 1 0 2 0;
#X connect 1 0 2 1;
#X connect 1 0 5 0;
#X connect 2 0 9 0;
#X connect 2 0 6 0;
#X connect 4 0 5 1;
#X connect 5 0 3 0;
#X connect 6 0 10 0;
#X connect 9 0 4 0;
#X connect 10 0 4 1;
#X restore 165 682 pd sub.tanh~;
#X obj 165 661 *~ 0.9;
#X obj 165 703 hip~ 3;
#X obj 165 745 dac~ 1;
#X obj 165 724 *~ 0.9;
#N canvas 0 22 450 300 sub.tanh~ 0;
#X obj 12 12 inlet~;
#X obj 12 38 clip~ -3 3;
#X obj 27 64 *~;
#X obj 12 192 outlet~;
#X obj 27 140 /~;
#X obj 12 166 *~;
#X obj 67 90 *~ 9;
#X text 92 42 // http://www.musicdsp.org/showone.php?id=238;
#X text 92 62 // y = x * (27 + x^2) / (27 + 9*x^2);
#X obj 27 90 +~ 27;
#X obj 67 116 +~ 27;
#X text 92 22 // pade-approximation of tanh function;
#X connect 0 0 1 0;
#X connect 1 0 2 0;
#X connect 1 0 2 1;
#X connect 1 0 5 0;
#X connect 2 0 9 0;
#X connect 2 0 6 0;
#X connect 4 0 5 1;
#X connect 5 0 3 0;
#X connect 6 0 10 0;
#X connect 9 0 4 0;
#X connect 10 0 4 1;
#X restore 255 682 pd sub.tanh~;
#X obj 255 661 *~ 0.9;
#X obj 255 703 hip~ 3;
#X obj 255 724 *~ 0.9;
#X obj 255 745 dac~ 2;
#X obj 94 366 phasor~;
#X obj 94 387 -~ 0.25;
#X obj 94 408 cos~;
#X obj 114 429 delwrite~ \$0-pm 100;
#X obj 26 350 vd~ \$0-pm;
#X obj 26 371 *~ 0.1;
#X obj 26 329 sig~ 100;
#X obj 388 232 snapshot~;
#X obj 388 253 change;
#X obj 474 216 bang~;
#X obj 388 211 expr~ $v1>=1;
#X obj 388 274 sel 0 1;
#X obj 388 295 i;
#X obj 418 295 + 1;
#X obj 388 316 % 64;
#X obj 387 357 t f f;
#X obj 427 401 sel 0;
#X obj 388 337 t f f;
#X obj 427 422 f;
#X msg 427 443 seed \$1;
#X obj 387 465 random 101;
#X obj 387 507 sel 1;
#X obj 387 378 bang;
#X obj 387 613 line~;
#X obj 387 634 pow~ 4;
#X obj 387 655 *~;
#X obj 387 676 hip~ 10000;
#X obj 387 697 hip~ 10000;
#X obj 387 718 *~ 0.5;
#X obj 387 739 throw~ \$0-M;
#X obj 457 639 noise~;
#X msg 387 591 1 \, 0 \$1;
#X obj 529 461 + 1;
#X obj 514 482 f;
#X msg 514 503 seed \$1;
#X obj 387 528 random 4;
#X obj 387 549 sel 0;
#X msg 423 568 100;
#X msg 387 570 500;
#X obj 490 374 random 10000;
#X obj 490 353 sel 0;
#X obj 427 380 % 8;
#X obj 457 597 osc~ 8000;
#X obj 457 618 *~ 0.2;
#X obj 490 395 s \$0-seed;
#X obj 529 440 r \$0-seed;
#X obj 461 416 r \$0-seed;
#X obj 581 374 t f f;
#X obj 621 418 sel 0;
#X obj 621 439 f;
#X msg 621 460 seed \$1;
#X obj 581 482 random 101;
#X obj 581 524 sel 1;
#X obj 581 395 bang;
#X obj 581 734 throw~ \$0-M;
#X obj 660 402 r \$0-seed;
#X obj 621 397 % 16;
#X obj 581 566 line~;
#X obj 611 587 sqrt~;
#X obj 611 608 *~ 10;
#X obj 581 629 -~ 0.25;
#X obj 581 650 cos~;
#X obj 581 671 lop~ 1000;
#N canvas 0 22 450 300 sub.tanh~ 0;
#X obj 12 12 inlet~;
#X obj 12 38 clip~ -3 3;
#X obj 27 64 *~;
#X obj 12 192 outlet~;
#X obj 27 140 /~;
#X obj 12 166 *~;
#X obj 67 90 *~ 9;
#X text 92 42 // http://www.musicdsp.org/showone.php?id=238;
#X text 92 62 // y = x * (27 + x^2) / (27 + 9*x^2);
#X obj 27 90 +~ 27;
#X obj 67 116 +~ 27;
#X text 92 22 // pade-approximation of tanh function;
#X connect 0 0 1 0;
#X connect 1 0 2 0;
#X connect 1 0 2 1;
#X connect 1 0 5 0;
#X connect 2 0 9 0;
#X connect 2 0 6 0;
#X connect 4 0 5 1;
#X connect 5 0 3 0;
#X connect 6 0 10 0;
#X connect 9 0 4 0;
#X connect 10 0 4 1;
#X restore 581 692 pd sub.tanh~;
#X obj 581 713 *~ 0.9;
#X obj 660 423 + 2;
#X obj 581 503 < 25;
#X msg 581 545 0 \, 1 150;
#X obj 581 587 *~ 4;
#X obj 387 486 < 75;
#X connect 0 0 25 0;
#X connect 1 0 5 0;
#X connect 2 0 1 0;
#X connect 2 0 48 0;
#X connect 3 0 4 0;
#X connect 4 0 6 0;
#X connect 5 0 9 0;
#X connect 5 0 19 0;
#X connect 6 0 9 1;
#X connect 7 0 15 0;
#X connect 8 0 11 1;
#X connect 9 0 7 0;
#X connect 10 0 8 0;
#X connect 10 0 14 0;
#X connect 11 0 22 0;
#X connect 12 0 13 1;
#X connect 13 0 26 0;
#X connect 14 0 0 1;
#X connect 15 0 21 0;
#X connect 16 0 17 0;
#X connect 17 0 38 0;
#X connect 18 0 24 0;
#X connect 19 0 18 0;
#X connect 21 0 12 0;
#X connect 22 0 2 0;
#X connect 23 0 16 0;
#X connect 24 0 23 0;
#X connect 25 0 3 0;
#X connect 27 0 29 0;
#X connect 27 0 34 0;
#X connect 28 0 30 0;
#X connect 29 0 28 0;
#X connect 30 0 32 0;
#X connect 32 0 31 0;
#X connect 33 0 35 0;
#X connect 34 0 33 0;
#X connect 35 0 36 0;
#X connect 36 0 37 0;
#X connect 38 0 39 0;
#X connect 39 0 40 0;
#X connect 40 0 13 0;
#X connect 40 0 41 0;
#X connect 42 0 43 0;
#X connect 43 0 39 0;
#X connect 44 0 42 0;
#X connect 45 0 46 0;
#X connect 46 0 49 0;
#X connect 47 0 45 0;
#X connect 48 0 45 0;
#X connect 49 0 50 0;
#X connect 49 1 50 0;
#X connect 50 0 52 0;
#X connect 51 0 50 1;
#X connect 52 0 51 0;
#X connect 52 0 55 0;
#X connect 53 0 60 0;
#X connect 53 1 79 0;
#X connect 54 0 56 0;
#X connect 54 0 71 0;
#X connect 55 0 53 0;
#X connect 55 0 85 0;
#X connect 55 1 78 0;
#X connect 56 0 57 0;
#X connect 57 0 58 0;
#X connect 58 0 107 0;
#X connect 59 0 73 0;
#X connect 60 0 58 0;
#X connect 61 0 62 0;
#X connect 62 0 63 0;
#X connect 63 0 64 0;
#X connect 64 0 65 0;
#X connect 65 0 66 0;
#X connect 66 0 67 0;
#X connect 68 0 63 1;
#X connect 69 0 61 0;
#X connect 70 0 71 1;
#X connect 71 0 72 0;
#X connect 72 0 73 0;
#X connect 73 0 74 0;
#X connect 74 0 76 0;
#X connect 74 1 75 0;
#X connect 75 0 69 0;
#X connect 76 0 69 0;
#X connect 77 0 82 0;
#X connect 78 0 77 0;
#X connect 79 0 54 0;
#X connect 80 0 81 0;
#X connect 81 0 63 1;
#X connect 83 0 70 0;
#X connect 84 0 56 1;
#X connect 85 0 91 0;
#X connect 85 1 94 0;
#X connect 86 0 87 0;
#X connect 87 0 88 0;
#X connect 88 0 89 0;
#X connect 89 0 104 0;
#X connect 90 0 105 0;
#X connect 91 0 89 0;
#X connect 93 0 103 0;
#X connect 94 0 86 0;
#X connect 95 0 96 0;
#X connect 95 0 106 0;
#X connect 96 0 97 0;
#X connect 97 0 98 0;
#X connect 98 0 99 0;
#X connect 99 0 100 0;
#X connect 100 0 101 0;
#X connect 101 0 102 0;
#X connect 102 0 92 0;
#X connect 103 0 87 1;
#X connect 104 0 90 0;
#X connect 105 0 95 0;
#X connect 106 0 98 0;
#X connect 107 0 59 0;
