#N canvas 150 67 1677 991 10;
#X obj 537 92 phasor~ 0.125;
#X obj 438 164 env~;
#X obj 438 140 expr~ $v1%2;
#X obj 537 140 expr~ $v1%2;
#X obj 537 164 env~;
#X obj 438 188 change;
#X obj 537 188 change;
#X obj 438 246 tgl 15 0 empty empty empty 17 7 0 10 -262144 -1 -1 0
1;
#X msg 513 68 0;
#X obj 562 34 loadbang;
#X obj 438 92 phasor~ 0.166;
#X obj 438 317 line~;
#X obj 209 763 *~, f 4;
#X msg 612 68 0.25;
#X obj 224 552 mtof;
#X obj 209 655 sig~;
#X obj 224 456 bang;
#X obj 224 432 sel 100;
#X msg 34 49 \; pd dsp 1 \;;
#X obj 34 103 catch~ \$0-M;
#N canvas 0 22 450 300 sub.tanh~ 0;
#X obj 12 12 inlet~;
#X obj 12 38 clip~ -3 3;
#X obj 27 64 *~;
#X obj 12 192 outlet~;
#X obj 27 140 /~;
#X obj 12 166 *~;
#X obj 67 90 *~ 9;
#X text 92 42 // http://www.musicdsp.org/showone.php?id=238;
#X text 92 62 // y = x * (27 + x^2) / (27 + 9*x^2);
#X obj 27 90 +~ 27;
#X obj 67 116 +~ 27;
#X text 92 22 // pade-approximation of tanh function;
#X connect 0 0 1 0;
#X connect 1 0 2 0;
#X connect 1 0 2 1;
#X connect 1 0 5 0;
#X connect 2 0 9 0;
#X connect 2 0 6 0;
#X connect 4 0 5 1;
#X connect 5 0 3 0;
#X connect 6 0 10 0;
#X connect 9 0 4 0;
#X connect 10 0 4 1;
#X restore 34 145 pd sub.tanh~;
#X obj 34 124 *~ 0.9;
#X obj 34 166 hip~ 3;
#X obj 34 208 dac~ 1;
#X obj 34 187 *~ 0.9;
#N canvas 0 22 450 300 sub.tanh~ 0;
#X obj 12 12 inlet~;
#X obj 12 38 clip~ -3 3;
#X obj 27 64 *~;
#X obj 12 192 outlet~;
#X obj 27 140 /~;
#X obj 12 166 *~;
#X obj 67 90 *~ 9;
#X text 92 42 // http://www.musicdsp.org/showone.php?id=238;
#X text 92 62 // y = x * (27 + x^2) / (27 + 9*x^2);
#X obj 27 90 +~ 27;
#X obj 67 116 +~ 27;
#X text 92 22 // pade-approximation of tanh function;
#X connect 0 0 1 0;
#X connect 1 0 2 0;
#X connect 1 0 2 1;
#X connect 1 0 5 0;
#X connect 2 0 9 0;
#X connect 2 0 6 0;
#X connect 4 0 5 1;
#X connect 5 0 3 0;
#X connect 6 0 10 0;
#X connect 9 0 4 0;
#X connect 10 0 4 1;
#X restore 124 145 pd sub.tanh~;
#X obj 124 124 *~ 0.9;
#X obj 124 166 hip~ 3;
#X obj 124 187 *~ 0.9;
#X obj 209 679 phasor~;
#X obj 209 700 -~ 0.25;
#X obj 209 721 cos~;
#X obj 229 742 delwrite~ \$0-pm 100;
#X obj 698 232 snapshot~;
#X obj 698 253 change;
#X obj 784 218 bang~;
#X obj 698 274 sel 0 1;
#X obj 698 295 i;
#X obj 728 295 + 1;
#X obj 724 401 sel 0;
#X obj 698 337 t f f;
#X obj 724 422 f, f 9;
#X msg 724 443 seed \$1;
#X obj 697 728 line~;
#X obj 697 770 *~, f 13;
#X obj 697 791 hip~ 10000;
#X obj 697 812 hip~ 10000;
#X obj 688 942 throw~ \$0-M;
#X msg 697 706 1 \, 0 \$1;
#X obj 839 494 + 1;
#X obj 824 515 f;
#X msg 824 536 seed \$1;
#X obj 697 664 sel 0;
#X msg 733 683 100;
#X obj 855 281 sel 0;
#X obj 855 323 s \$0-seed;
#X obj 839 473 r \$0-seed;
#X obj 775 401 r \$0-seed;
#X obj 967 442 sel 0;
#X obj 967 463 f, f 8;
#X msg 967 484 seed \$1;
#X obj 927 506 random 101;
#X obj 927 548 sel 1;
#X obj 1012 421 r \$0-seed;
#X obj 927 630 line~;
#X obj 967 654 sqrt~;
#X obj 927 720 cos~;
#N canvas 0 22 450 300 sub.tanh~ 0;
#X obj 12 12 inlet~;
#X obj 27 64 *~;
#X obj 12 192 outlet~;
#X obj 12 166 *~;
#X text 92 42 // http://www.musicdsp.org/showone.php?id=238;
#X text 92 62 // y = x * (27 + x^2) / (27 + 9*x^2);
#X text 92 22 // pade-approximation of tanh function;
#X obj 12 38 clip~ -3 3;
#X obj 67 90 *~ 9;
#X obj 67 116 +~ 27;
#X obj 27 90 +~ 27;
#X obj 27 140 /~;
#X connect 0 0 7 0;
#X connect 1 0 8 0;
#X connect 1 0 10 0;
#X connect 3 0 2 0;
#X connect 7 0 1 0;
#X connect 7 0 1 1;
#X connect 7 0 3 0;
#X connect 8 0 9 0;
#X connect 9 0 11 1;
#X connect 10 0 11 0;
#X connect 11 0 3 1;
#X restore 927 772 pd sub.tanh~;
#X obj 927 796 *~ 0.9;
#X obj 1012 442 + 2;
#X obj 927 527 < 25;
#X text 1429 1104 comment;
#X obj 124 208 dac~ 2;
#X obj 927 923 throw~ \$0-M;
#X obj 697 749 pow~ 8;
#X obj 782 746 noise~;
#X obj 698 211 expr~ $v1>=1;
#X obj 855 302 random 10000;
#X obj 697 357 t b f;
#X obj 697 499 moses 75;
#X obj 697 475 random 100;
#X obj 697 523 bang;
#X obj 927 398 t b f;
#X obj 697 570 random 4;
#X obj 927 751 lop~ 1000;
#X obj 772 704 osc~ 8000;
#X obj 927 699 -~ 0.25;
#X obj 395 441 random 100;
#X obj 395 576 t b f;
#X obj 395 396 sel 1;
#X obj 395 462 moses 20;
#X obj 395 483 bang;
#X obj 131 665 vd~ \$0-pm;
#X obj 438 269 * 0.8;
#X obj 209 576 f;
#X obj 742 523 bang;
#X obj 395 417 bang;
#X obj 422 655 sig~;
#X obj 422 679 phasor~;
#X obj 422 903 *~, f 30;
#N canvas 30 6 618 693 panner 0;
#X obj 94 424 sqrt 0;
#X msg 94 501 \$1 500;
#X msg 294 501 \$1 500;
#X floatatom 312 448 5 0 0 0 - - -;
#X obj 294 424 sqrt 0;
#X floatatom 112 448 5 0 0 0 - - -;
#X obj 319 79 t b f;
#X obj 169 133 f;
#X text 192 167 lo-panVal;
#X text 354 167 hi-panVal;
#X obj 169 167 -;
#X obj 331 167 +;
#X obj 187 211 -;
#X obj 187 235 + 1;
#X obj 154 260 random;
#X obj 154 284 +;
#X obj 94 247 bng 15 100 50 0 empty empty empty 17 7 0 10 -262144 -1
-1;
#X text 194 260 randomRange: random()*((max-min)+1)+min;
#X obj 79 579 *~;
#X obj 94 525 line~;
#X obj 294 525 line~;
#X obj 279 579 *~;
#X obj 346 103 expr ($f1-0)*(64-0)/(100-0)+0;
#X obj 154 318 / 127;
#X msg 94 376 1;
#X obj 94 400 -;
#X obj 94 352 t b f;
#X obj 294 477 min 1;
#X obj 94 477 min 1;
#X obj 94 223 metro 400;
#X text 267 123 map: (inVal-inMin)*(outMax-outMin)/(inMax-inMin)+outMin
;
#X obj 79 643 outlet~;
#X obj 279 643 outlet~;
#X text 234 341 based on Matthew Davidson's 2013 Signal-controlled
granular oscillator: Beap Granular.;
#X obj 49 555 inlet~;
#X obj 249 555 inlet~;
#X msg 94 199 1;
#X obj 94 175 loadbang;
#X msg 169 55 64;
#X obj 229 18 loadbang;
#X text 147 55 PAN;
#X text 267 55 MOVEMENT;
#X msg 319 55 75;
#X connect 0 0 5 0;
#X connect 0 0 28 0;
#X connect 1 0 19 0;
#X connect 2 0 20 0;
#X connect 4 0 3 0;
#X connect 4 0 27 0;
#X connect 6 0 7 0;
#X connect 6 1 22 0;
#X connect 7 0 10 0;
#X connect 7 0 11 0;
#X connect 10 0 12 1;
#X connect 10 0 15 1;
#X connect 11 0 12 0;
#X connect 12 0 13 0;
#X connect 13 0 14 1;
#X connect 14 0 15 0;
#X connect 15 0 23 0;
#X connect 16 0 14 0;
#X connect 18 0 31 0;
#X connect 19 0 18 1;
#X connect 20 0 21 1;
#X connect 21 0 32 0;
#X connect 22 0 10 1;
#X connect 22 0 11 1;
#X connect 23 0 4 0;
#X connect 23 0 26 0;
#X connect 24 0 25 0;
#X connect 25 0 0 0;
#X connect 26 0 24 0;
#X connect 26 1 25 1;
#X connect 27 0 2 0;
#X connect 28 0 1 0;
#X connect 29 0 16 0;
#X connect 34 0 18 0;
#X connect 35 0 21 0;
#X connect 36 0 29 0;
#X connect 37 0 36 0;
#X connect 38 0 7 0;
#X connect 39 0 38 0;
#X connect 39 0 42 0;
#X connect 42 0 6 0;
#X restore 204 74 pd panner;
#X f 19;
#X text 21 600 musimathics vol1 \, section 3.2;
#X text 65 587 octaveTranspose;
#X text 16 613 f(k \, v) = f(R) * 2^((v-4)+k/12);
#X obj 1212 551 line~;
#X obj 1067 485 noise~;
#X obj 1137 524 osc~;
#X obj 1137 575 *~, f 13;
#X obj 1137 456 osc~ 0.002;
#X obj 1137 498 *~ 1.5;
#X obj 1137 477 +~ 2000;
#X obj 1276 493 moses 20;
#X obj 1276 469 random 100;
#X obj 1137 642 +~, f 4;
#X obj 422 1084 throw~ panner;
#X obj 204 50 catch~ panner;
#X obj 1137 738 throw~ panner;
#X obj 1212 397 spigot;
#X obj 1245 352 sel 0;
#X obj 1245 373 random 2;
#X obj 204 98 *~ 0.4;
#X obj 315 98 *~ 0.4;
#X obj 1245 244 snapshot~;
#X obj 1245 265 change;
#X obj 1331 230 bang~;
#X obj 1245 286 sel 0 1;
#X obj 1245 307 i;
#X obj 1275 307 + 1;
#X obj 1245 223 expr~ $v1>=1;
#X obj 1245 328 % 32;
#X obj 1118 423 snapshot~;
#X obj 1127 399 bang~;
#X obj 1118 297 osc~ 0.05;
#X obj 1067 509 lop~, f 9;
#X obj 1118 360 abs~;
#X msg 697 685 500;
#X obj 219 787 throw~ \$0-M;
#X obj 422 727 abs~;
#X obj 479 671 sig~;
#X obj 422 703 -~, f 10;
#X obj 533 767 -, f 5;
#X obj 533 695 t b f;
#X obj 560 743 / 50;
#X obj 560 719 abs;
#X obj 479 647 / 100;
#X obj 533 647 - 50;
#X obj 533 671 * 2;
#X obj 533 791 sig~;
#X obj 422 815 *~, f 19;
#X obj 533 743 + 4;
#X obj 422 839 -~ 1;
#X obj 479 572 *~ 100;
#X obj 479 623 snapshot~;
#X obj 519 593 bang~;
#X obj 479 593 abs~;
#X obj 224 528 list store, f 11;
#X msg 224 504 get \$1 1;
#X msg 287 504 65 66 69 70 72;
#X obj 599 396 line~;
#X obj 599 270 sel 1;
#X obj 438 222 &&, f 17;
#X obj 438 293 pack 0 180;
#X obj 224 480 random 4;
#X obj 422 859 lop~ 2000;
#X obj 287 480 loadbang;
#X obj 1147 688 rev2~ 90 90 1000 20;
#X obj 1158 618 delread~ bellDelay 600, f 23;
#X obj 537 116 *~ 80;
#X obj 599 222 ||, f 4;
#X obj 599 246 != 1;
#X obj 479 551 osc~ 0.08;
#X msg 927 589 0 \, 1 250;
#X obj 967 675 *~ 28;
#X obj 975 899 *~;
#X obj 990 855 *~, f 19;
#X obj 1101 831 expr~ $v1 > 0.25;
#X obj 990 831 expr~ $v1 > 0.5;
#X obj 438 116 *~ 48;
#X obj 209 600 expr $f1*pow(2 \, ($f2-4)/12) \; $f1*pow(2 \, ($f2-4)+3/12)
, f 36;
#X obj 395 552 + 3;
#X obj 395 531 random 4;
#X obj 395 372 <= 1;
#X obj 405 507 delay 850;
#X obj 1158 599 delwrite~ bellDelay 600;
#X obj 1259 398 tgl 15 0 empty empty empty 17 7 0 10 -262144 -1 -1
1 1;
#X obj 1118 318 *~ 1820;
#X msg 1212 527 0.15 \, 0 90;
#X obj 1147 719 throw~ \$0-L;
#X obj 1227 719 throw~ \$0-R;
#X obj 113 27 catch~ \$0-L;
#X obj 193 27 catch~ \$0-R;
#N canvas 0 0 1071 778 platereverb~ 0;
#X obj 12 75 inlet~;
#X text 12 55 in;
#X obj 139 31 inlet;
#X obj 12 163 rpole~;
#X msg 186 168 0.75;
#X obj 186 151 loadbang;
#X msg 186 207 0.75;
#X obj 186 190 loadbang;
#X obj 186 229 loadbang;
#X msg 186 246 0.625;
#X obj 186 268 loadbang;
#X msg 186 285 0.625;
#X obj 384 720 outlet~;
#X obj 334 307 loadbang;
#X obj 12 119 *~;
#X obj 233 429 rpole~;
#X obj 233 407 *~;
#X obj 266 128 inlet;
#X obj 386 417 loadbang;
#X msg 356 434 64.2;
#X obj 554 307 loadbang;
#X obj 453 429 rpole~;
#X obj 453 407 *~;
#X obj 606 417 loadbang;
#X obj 498 280 *~;
#X obj 248 280 *~;
#X obj 453 319 +~;
#X obj 233 319 +~;
#X obj 438 197 inlet;
#X msg 524 324 0.7;
#X obj 244 566 +~;
#X obj 264 588 -~;
#X obj 284 610 +~;
#X obj 304 632 -~;
#X msg 576 434 6.3;
#X obj 324 654 -~;
#X obj 344 676 -~;
#X obj 651 720 outlet~;
#X obj 511 566 +~;
#X obj 531 588 -~;
#X obj 551 610 +~;
#X obj 571 632 -~;
#X obj 591 654 -~;
#X obj 611 676 -~;
#X msg 606 434 41.2;
#X msg 386 434 11.2;
#X msg 304 324 0.7;
#X msg 146 285 9.307;
#X msg 146 246 12.73;
#X msg 146 207 3.595;
#X msg 146 168 4.771;
#X msg 484 324 22.58;
#X msg 334 324 0.1;
#X msg 264 324 30.51;
#X msg 506 434 60.48;
#X msg 286 434 89.24;
#X msg 326 434 0.5;
#X msg 546 434 0.5;
#X msg 554 324 0.07;
#X obj 364 698 *~ 0.125;
#X obj 631 698 *~ 0.125;
#X obj 12 97 *~ 0.5;
#X obj 438 473 *~;
#X obj 218 473 *~;
#X obj 438 241 line~;
#X obj 438 263 clip~ 0 1;
#X obj 139 124 -~ 1;
#X obj 139 146 *~ -1;
#X obj 139 102 clip~ 0 1;
#X obj 139 75 line~;
#X msg 438 219 \$1 1;
#X msg 139 53 \$1 1;
#X obj 244 522 delread~ \$0-dela 8.9;
#X obj 259 544 delread~ \$0-dela 99.8;
#X obj 299 588 delread~ \$0-delc 67;
#X obj 319 610 delread~ \$0-deld 66.8;
#X obj 359 654 delread~ \$0-delf 35.8;
#X obj 511 522 delread~ \$0-deld 11.8;
#X obj 233 363 delwrite~ \$0-dela 200;
#X obj 233 385 delread~ \$0-dela 141.69;
#X obj 453 363 delwrite~ \$0-deld 200;
#X obj 453 385 delread~ \$0-deld 149.62;
#X obj 263 258 delread~ \$0-delf 125;
#X obj 513 258 delread~ \$0-delc 106.28;
#X obj 438 495 delwrite~ \$0-delf 200;
#X obj 526 544 delread~ \$0-deld 121.7;
#X obj 566 588 delread~ \$0-delf 89.7;
#X obj 586 610 delread~ \$0-dela 70.8;
#X obj 626 654 delread~ \$0-delc 4.1;
#X obj 218 495 delwrite~ \$0-delc 200;
#X text 139 11 bandwidth;
#X obj 248 233 *~ -1;
#X obj 248 211 -~ 1;
#X obj 266 194 clip~ 0 1;
#X obj 266 172 line~;
#X text 266 108 damping;
#X text 438 177 gain;
#N canvas 351 137 158 227 tanh 0;
#X obj 12 12 inlet~;
#X obj 12 34 clip~ -3 3;
#X obj 27 61 *~;
#X obj 12 171 outlet~;
#X obj 82 61 sig~ 27;
#X obj 27 88 +~;
#X obj 27 127 /~;
#X obj 12 149 *~;
#X obj 67 88 *~ 9;
#X obj 67 110 +~;
#X connect 0 0 1 0;
#X connect 1 0 2 0;
#X connect 1 0 2 1;
#X connect 1 0 7 0;
#X connect 2 0 5 0;
#X connect 2 0 8 0;
#X connect 4 0 5 1;
#X connect 4 0 9 1;
#X connect 5 0 6 0;
#X connect 6 0 7 1;
#X connect 7 0 3 0;
#X connect 8 0 9 0;
#X connect 9 0 6 1;
#X restore 498 302 pd tanh;
#X text 374 127 gain 0 to 1;
#X text 374 107 damping 0 to 1;
#X text 374 87 bandwidth 0 to 1;
#N canvas 412 162 241 206 allpass100ms 0;
#X obj 12 31 inlet~;
#X obj 12 92 +~;
#X obj 27 70 *~;
#X obj 102 31 inlet;
#X obj 202 53 inlet;
#X obj 202 75 * -1;
#X obj 187 109 *~;
#X obj 172 131 +~;
#X obj 172 153 outlet~;
#X text 12 173 0 - 100 mSec allpass;
#X text 202 33 gain;
#X text 102 11 time;
#X text 12 11 sound;
#X obj 12 153 delwrite~ \$0-short-1 100;
#X obj 102 53 vd~ \$0-short-1;
#X connect 0 0 1 0;
#X connect 1 0 6 0;
#X connect 1 0 13 0;
#X connect 2 0 1 1;
#X connect 3 0 14 0;
#X connect 4 0 2 1;
#X connect 4 0 5 0;
#X connect 5 0 6 1;
#X connect 6 0 7 1;
#X connect 7 0 8 0;
#X connect 14 0 2 0;
#X connect 14 0 7 0;
#X restore 62 185 pd allpass100ms;
#N canvas 412 162 241 206 allpass100ms 0;
#X obj 12 31 inlet~;
#X obj 12 92 +~;
#X obj 27 70 *~;
#X obj 102 31 inlet;
#X obj 202 53 inlet;
#X obj 202 75 * -1;
#X obj 187 109 *~;
#X obj 172 131 +~;
#X obj 172 153 outlet~;
#X text 12 173 0 - 100 mSec allpass;
#X text 202 33 gain;
#X text 102 11 time;
#X text 12 11 sound;
#X obj 102 53 vd~ \$0-short-2;
#X obj 12 153 delwrite~ \$0-short-2 100;
#X connect 0 0 1 0;
#X connect 1 0 6 0;
#X connect 1 0 14 0;
#X connect 2 0 1 1;
#X connect 3 0 13 0;
#X connect 4 0 2 1;
#X connect 4 0 5 0;
#X connect 5 0 6 1;
#X connect 6 0 7 1;
#X connect 7 0 8 0;
#X connect 13 0 2 0;
#X connect 13 0 7 0;
#X restore 62 224 pd allpass100ms;
#N canvas 412 162 241 206 allpass100ms 0;
#X obj 12 31 inlet~;
#X obj 12 92 +~;
#X obj 27 70 *~;
#X obj 102 31 inlet;
#X obj 202 53 inlet;
#X obj 202 75 * -1;
#X obj 187 109 *~;
#X obj 172 131 +~;
#X obj 172 153 outlet~;
#X text 12 173 0 - 100 mSec allpass;
#X text 202 33 gain;
#X text 102 11 time;
#X text 12 11 sound;
#X obj 12 153 delwrite~ \$0-short-3 100;
#X obj 102 53 vd~ \$0-short-3;
#X connect 0 0 1 0;
#X connect 1 0 6 0;
#X connect 1 0 13 0;
#X connect 2 0 1 1;
#X connect 3 0 14 0;
#X connect 4 0 2 1;
#X connect 4 0 5 0;
#X connect 5 0 6 1;
#X connect 6 0 7 1;
#X connect 7 0 8 0;
#X connect 14 0 2 0;
#X connect 14 0 7 0;
#X restore 62 263 pd allpass100ms;
#N canvas 412 162 241 206 allpass100ms 0;
#X obj 12 31 inlet~;
#X obj 12 92 +~;
#X obj 27 70 *~;
#X obj 102 31 inlet;
#X obj 202 53 inlet;
#X obj 202 75 * -1;
#X obj 187 109 *~;
#X obj 172 131 +~;
#X obj 172 153 outlet~;
#X text 12 173 0 - 100 mSec allpass;
#X text 202 33 gain;
#X text 102 11 time;
#X text 12 11 sound;
#X obj 12 153 delwrite~ \$0-short-4 100;
#X obj 102 53 vd~ \$0-short-4;
#X connect 0 0 1 0;
#X connect 1 0 6 0;
#X connect 1 0 13 0;
#X connect 2 0 1 1;
#X connect 3 0 14 0;
#X connect 4 0 2 1;
#X connect 4 0 5 0;
#X connect 5 0 6 1;
#X connect 6 0 7 1;
#X connect 7 0 8 0;
#X connect 14 0 2 0;
#X connect 14 0 7 0;
#X restore 62 302 pd allpass100ms;
#N canvas 0 22 450 300 modallpass100ms 0;
#X obj 12 31 inlet~;
#X obj 12 158 +~;
#X obj 27 136 *~;
#X obj 67 31 inlet;
#X obj 117 31 inlet;
#X obj 117 158 * -1;
#X obj 187 175 *~;
#X obj 172 197 +~;
#X obj 172 219 outlet~;
#X obj 187 31 inlet;
#X obj 187 53 osc~;
#X obj 172 97 +~;
#X obj 187 75 *~ 0.2;
#X obj 227 31 inlet;
#X obj 227 53 * 2;
#X text 12 239 0 - 100 mSec allpass;
#X text 187 11 freq;
#X text 117 11 gain;
#X text 67 11 time;
#X text 12 11 sound;
#X obj 12 219 delwrite~ \$0-short-5 100;
#X obj 172 119 vd~ \$0-short-5;
#X connect 0 0 1 0;
#X connect 1 0 6 0;
#X connect 1 0 20 0;
#X connect 2 0 1 1;
#X connect 3 0 11 0;
#X connect 4 0 2 1;
#X connect 4 0 5 0;
#X connect 5 0 6 1;
#X connect 6 0 7 1;
#X connect 7 0 8 0;
#X connect 9 0 10 0;
#X connect 10 0 12 0;
#X connect 11 0 21 0;
#X connect 12 0 11 1;
#X connect 13 0 14 0;
#X connect 14 0 12 1;
#X connect 21 0 2 0;
#X connect 21 0 7 0;
#X restore 233 341 pd modallpass100ms;
#N canvas 0 22 450 300 modallpass100ms 0;
#X obj 12 31 inlet~;
#X obj 12 158 +~;
#X obj 27 136 *~;
#X obj 67 31 inlet;
#X obj 117 31 inlet;
#X obj 117 158 * -1;
#X obj 187 175 *~;
#X obj 172 197 +~;
#X obj 172 219 outlet~;
#X obj 187 31 inlet;
#X obj 187 53 osc~;
#X obj 172 97 +~;
#X obj 187 75 *~ 0.2;
#X obj 227 31 inlet;
#X obj 227 53 * 2;
#X text 12 239 0 - 100 mSec allpass;
#X text 187 11 freq;
#X text 117 11 gain;
#X text 67 11 time;
#X text 12 11 sound;
#X obj 172 119 vd~ \$0-short-6;
#X obj 12 219 delwrite~ \$0-short-6 100;
#X connect 0 0 1 0;
#X connect 1 0 6 0;
#X connect 1 0 21 0;
#X connect 2 0 1 1;
#X connect 3 0 11 0;
#X connect 4 0 2 1;
#X connect 4 0 5 0;
#X connect 5 0 6 1;
#X connect 6 0 7 1;
#X connect 7 0 8 0;
#X connect 9 0 10 0;
#X connect 10 0 12 0;
#X connect 11 0 20 0;
#X connect 12 0 11 1;
#X connect 13 0 14 0;
#X connect 14 0 12 1;
#X connect 20 0 2 0;
#X connect 20 0 7 0;
#X restore 453 341 pd modallpass100ms;
#N canvas 0 22 482 228 allpass100ms2tap 0;
#X obj 12 31 inlet~;
#X obj 12 92 +~;
#X obj 27 70 *~;
#X obj 62 31 inlet;
#X obj 202 53 inlet;
#X obj 202 75 * -1;
#X obj 187 109 *~;
#X obj 172 131 +~;
#X obj 172 153 outlet~;
#X obj 223 154 outlet~;
#X obj 223 110 inlet;
#X obj 343 154 outlet~;
#X obj 343 110 inlet;
#X text 12 173 0 - 100 mSec allpass;
#X text 343 90 time;
#X text 223 90 time;
#X text 202 33 gain;
#X text 62 11 time;
#X text 12 11 sound;
#X obj 12 153 delwrite~ \$0-short-7 100;
#X obj 223 132 delread~ \$0-short-7;
#X obj 343 132 delread~ \$0-short-7;
#X obj 62 53 delread~ \$0-short-7;
#X connect 0 0 1 0;
#X connect 1 0 6 0;
#X connect 1 0 19 0;
#X connect 2 0 1 1;
#X connect 3 0 22 0;
#X connect 4 0 2 1;
#X connect 4 0 5 0;
#X connect 5 0 6 1;
#X connect 6 0 7 1;
#X connect 7 0 8 0;
#X connect 10 0 20 0;
#X connect 12 0 21 0;
#X connect 20 0 9 0;
#X connect 21 0 11 0;
#X connect 22 0 2 0;
#X connect 22 0 7 0;
#X restore 233 451 pd allpass100ms2tap;
#N canvas 0 22 482 228 allpass100ms2tap 0;
#X obj 12 31 inlet~;
#X obj 12 92 +~;
#X obj 27 70 *~;
#X obj 62 31 inlet;
#X obj 202 53 inlet;
#X obj 202 75 * -1;
#X obj 187 109 *~;
#X obj 172 131 +~;
#X obj 172 153 outlet~;
#X obj 223 154 outlet~;
#X obj 223 110 inlet;
#X obj 343 154 outlet~;
#X obj 343 110 inlet;
#X text 12 173 0 - 100 mSec allpass;
#X text 343 90 time;
#X text 223 90 time;
#X text 202 33 gain;
#X text 62 11 time;
#X text 12 11 sound;
#X obj 223 132 delread~ \$0-short-8;
#X obj 12 153 delwrite~ \$0-short-8 100;
#X obj 62 53 delread~ \$0-short-8;
#X obj 343 132 delread~ \$0-short-8;
#X connect 0 0 1 0;
#X connect 1 0 6 0;
#X connect 1 0 20 0;
#X connect 2 0 1 1;
#X connect 3 0 21 0;
#X connect 4 0 2 1;
#X connect 4 0 5 0;
#X connect 5 0 6 1;
#X connect 6 0 7 1;
#X connect 7 0 8 0;
#X connect 10 0 19 0;
#X connect 12 0 22 0;
#X connect 19 0 9 0;
#X connect 21 0 2 0;
#X connect 21 0 7 0;
#X connect 22 0 11 0;
#X restore 453 451 pd allpass100ms2tap;
#X text 374 67 from http://tre.ucsd.edu/wordpress/?p=285;
#X text 507 218 https://github.com/MikeMorenoAudio;
#X text 507 198 Made heavy compatible by Mike Moreno;
#X text 374 47 By Tom Erbe;
#X msg 266 150 \$1 1;
#X connect 0 0 61 0;
#X connect 2 0 71 0;
#X connect 3 0 101 0;
#X connect 4 0 101 2;
#X connect 5 0 4 0;
#X connect 5 0 50 0;
#X connect 6 0 102 2;
#X connect 7 0 6 0;
#X connect 7 0 49 0;
#X connect 8 0 9 0;
#X connect 8 0 48 0;
#X connect 9 0 103 2;
#X connect 10 0 11 0;
#X connect 10 0 47 0;
#X connect 11 0 104 2;
#X connect 13 0 46 0;
#X connect 13 0 53 0;
#X connect 13 0 52 0;
#X connect 14 0 3 0;
#X connect 15 0 107 0;
#X connect 16 0 15 0;
#X connect 17 0 113 0;
#X connect 18 0 56 0;
#X connect 18 0 55 0;
#X connect 18 0 19 0;
#X connect 18 0 45 0;
#X connect 19 0 107 3;
#X connect 20 0 29 0;
#X connect 20 0 51 0;
#X connect 20 0 58 0;
#X connect 21 0 108 0;
#X connect 22 0 21 0;
#X connect 23 0 57 0;
#X connect 23 0 54 0;
#X connect 23 0 34 0;
#X connect 23 0 44 0;
#X connect 24 0 97 0;
#X connect 25 0 27 1;
#X connect 26 0 106 0;
#X connect 27 0 105 0;
#X connect 28 0 70 0;
#X connect 29 0 106 2;
#X connect 30 0 31 0;
#X connect 31 0 32 0;
#X connect 32 0 33 0;
#X connect 33 0 35 0;
#X connect 34 0 108 3;
#X connect 35 0 36 0;
#X connect 36 0 59 0;
#X connect 38 0 39 0;
#X connect 39 0 40 0;
#X connect 40 0 41 0;
#X connect 41 0 42 0;
#X connect 42 0 43 0;
#X connect 43 0 60 0;
#X connect 44 0 108 4;
#X connect 45 0 107 4;
#X connect 46 0 105 2;
#X connect 47 0 104 1;
#X connect 48 0 103 1;
#X connect 49 0 102 1;
#X connect 50 0 101 1;
#X connect 51 0 106 1;
#X connect 52 0 105 3;
#X connect 53 0 105 1;
#X connect 54 0 108 1;
#X connect 55 0 107 1;
#X connect 56 0 107 2;
#X connect 57 0 108 2;
#X connect 58 0 106 3;
#X connect 59 0 12 0;
#X connect 60 0 37 0;
#X connect 61 0 14 0;
#X connect 62 0 84 0;
#X connect 63 0 89 0;
#X connect 64 0 65 0;
#X connect 65 0 24 0;
#X connect 65 0 25 0;
#X connect 65 0 62 0;
#X connect 65 0 63 0;
#X connect 66 0 67 0;
#X connect 67 0 3 1;
#X connect 68 0 14 1;
#X connect 68 0 66 0;
#X connect 69 0 68 0;
#X connect 70 0 64 0;
#X connect 71 0 69 0;
#X connect 72 0 30 0;
#X connect 73 0 30 1;
#X connect 74 0 32 1;
#X connect 75 0 33 1;
#X connect 76 0 36 1;
#X connect 77 0 38 0;
#X connect 79 0 16 0;
#X connect 81 0 22 0;
#X connect 82 0 25 1;
#X connect 83 0 24 1;
#X connect 85 0 38 1;
#X connect 86 0 40 1;
#X connect 87 0 41 1;
#X connect 88 0 43 1;
#X connect 91 0 16 1;
#X connect 91 0 22 1;
#X connect 92 0 91 0;
#X connect 93 0 15 1;
#X connect 93 0 21 1;
#X connect 93 0 92 0;
#X connect 94 0 93 0;
#X connect 97 0 26 1;
#X connect 101 0 102 0;
#X connect 102 0 103 0;
#X connect 103 0 104 0;
#X connect 104 0 27 0;
#X connect 104 0 26 0;
#X connect 105 0 78 0;
#X connect 106 0 80 0;
#X connect 107 0 63 1;
#X connect 107 1 31 1;
#X connect 107 2 42 1;
#X connect 108 0 62 1;
#X connect 108 1 35 1;
#X connect 108 2 39 1;
#X connect 113 0 94 0;
#X restore 249 948 pd platereverb~;
#X obj 249 1009 throw~ \$0-L;
#X obj 338 1009 throw~ \$0-R;
#X obj 131 686 *~;
#X obj 325 629 osc~ 0.1;
#X obj 325 650 /~ 2;
#X obj 325 671 +~ 0.5;
#X obj 325 692 *~ 0.1;
#X obj 249 969 *~ 2;
#X obj 338 970 *~ 2;
#X obj 278 926 unpack f f f;
#X obj 1054 737 mtof;
#X obj 1053 695 random 100;
#X obj 697 591 spigot;
#X obj 209 834 hip~ 100;
#X obj 209 813 lop~ 500;
#X obj 697 855 *~ 0.25;
#X obj 804 593 < 32;
#X obj 698 316 % 64;
#X obj 1053 642 + 2;
#X msg 1053 663 seed \$1;
#X obj 804 635 + 12;
#X obj 1054 716 + 10;
#X obj 249 990 *~;
#X obj 338 990 *~;
#X obj 772 725 *~ 0.25;
#X obj 697 833 bp~ 8500 4;
#X obj 280 409 r \$0-seed;
#X msg 280 451 seed \$1;
#X obj 280 430 + 2;
#X obj 804 614 * 64;
#X obj 967 421 % 8;
#X obj 724 380 % 4;
#X obj 599 302 snapshot~;
#X obj 599 344 + 100;
#X msg 599 365 0.9 \, 0 \$1;
#X obj 599 323 * 500;
#X obj 990 876 *~ 0.4;
#X obj 278 878 abs;
#X obj 278 854 - 0.8;
#X obj 545 934 snapshot~;
#X obj 611 920 bang~;
#X obj 545 976 line~;
#X msg 545 955 \$1 800;
#X obj 437 1039 line~;
#X obj 437 998 tgl 15 0 empty empty empty 17 7 0 10 -262144 -1 -1 1
1;
#X obj 422 1060 *~;
#X obj 437 956 moses 75;
#X obj 437 935 random 100;
#X obj 437 977 bang;
#X msg 437 1018 \$1 50;
#X msg 1358 432 2.2;
#X msg 1389 432 2.1;
#X obj 1358 366 f;
#X obj 1388 366 + 1;
#X obj 1358 387 % 3;
#X obj 1358 408 sel 0 1 2, f 16;
#X obj 422 879 *~ 0.7;
#X obj 1212 421 % 42;
#X msg 1420 432 0.6;
#X obj 1118 339 +~ 200;
#X obj 1137 664 *~ 1.8;
#X obj 131 644 sig~ 1800;
#X obj 1212 445 sel 1 6 5 8 12;
#X obj 990 807 phasor~ 30;
#X msg 278 902 1 \$1 1;
#X obj 927 654 *~ 1;
#X obj 822 784 + 1;
#X obj 822 826 /;
#X obj 822 740 bang;
#X obj 821 848 delread~ \$0-delay;
#X obj 823 950 delwrite~ \$0-delay 1000;
#X obj 822 868 *~ 0.5;
#X obj 867 814 random 2;
#X msg 822 805 250 \$1;
#X obj 862 686 + 5;
#X msg 862 707 seed \$1;
#X obj 822 763 random 8;
#X obj 822 889 *~ 0.9;
#X connect 0 0 167 0;
#X connect 0 0 175 0;
#X connect 0 0 224 0;
#X connect 1 0 5 0;
#X connect 2 0 1 0;
#X connect 2 0 76 0;
#X connect 2 0 128 0;
#X connect 3 0 4 0;
#X connect 4 0 6 0;
#X connect 5 0 17 0;
#X connect 5 0 160 0;
#X connect 5 0 168 0;
#X connect 6 0 160 1;
#X connect 6 0 168 1;
#X connect 7 0 93 0;
#X connect 8 0 10 1;
#X connect 9 0 8 0;
#X connect 9 0 13 0;
#X connect 10 0 177 0;
#X connect 11 0 12 1;
#X connect 12 0 136 0;
#X connect 12 0 206 0;
#X connect 13 0 0 1;
#X connect 14 0 94 1;
#X connect 15 0 29 0;
#X connect 16 0 162 0;
#X connect 17 0 16 0;
#X connect 19 0 21 0;
#X connect 19 0 26 0;
#X connect 20 0 22 0;
#X connect 21 0 20 0;
#X connect 22 0 24 0;
#X connect 24 0 23 0;
#X connect 25 0 27 0;
#X connect 26 0 25 0;
#X connect 27 0 28 0;
#X connect 28 0 72 0;
#X connect 29 0 30 0;
#X connect 30 0 31 0;
#X connect 31 0 12 0;
#X connect 31 0 32 0;
#X connect 33 0 34 0;
#X connect 34 0 36 0;
#X connect 35 0 33 0;
#X connect 36 0 37 0;
#X connect 36 1 37 0;
#X connect 37 0 209 0;
#X connect 38 0 37 1;
#X connect 39 0 41 0;
#X connect 39 0 50 0;
#X connect 40 0 78 0;
#X connect 40 0 82 0;
#X connect 40 1 54 0;
#X connect 40 1 208 0;
#X connect 41 0 42 0;
#X connect 42 0 80 0;
#X connect 43 0 74 0;
#X connect 44 0 45 0;
#X connect 45 0 46 0;
#X connect 46 0 217 0;
#X connect 48 0 43 0;
#X connect 49 0 50 1;
#X connect 50 0 51 0;
#X connect 50 0 266 0;
#X connect 51 0 83 0;
#X connect 52 0 135 0;
#X connect 52 1 53 0;
#X connect 53 0 48 0;
#X connect 54 0 77 0;
#X connect 56 0 49 0;
#X connect 57 0 41 1;
#X connect 58 0 59 0;
#X connect 59 0 60 0;
#X connect 59 0 210 0;
#X connect 60 0 61 0;
#X connect 61 0 70 0;
#X connect 62 0 171 0;
#X connect 63 0 69 0;
#X connect 64 0 65 0;
#X connect 64 0 257 0;
#X connect 65 0 172 0;
#X connect 65 0 231 0;
#X connect 66 0 84 0;
#X connect 67 0 68 0;
#X connect 68 0 173 0;
#X connect 68 0 73 0;
#X connect 69 0 59 1;
#X connect 70 0 62 0;
#X connect 74 0 44 0;
#X connect 75 0 44 1;
#X connect 76 0 33 0;
#X connect 77 0 55 0;
#X connect 78 0 80 0;
#X connect 78 1 223 0;
#X connect 79 0 81 0;
#X connect 79 1 95 0;
#X connect 80 0 79 0;
#X connect 81 0 83 0;
#X connect 82 0 61 0;
#X connect 82 0 203 0;
#X connect 82 1 222 0;
#X connect 83 0 181 0;
#X connect 83 0 204 0;
#X connect 84 0 67 0;
#X connect 85 0 216 0;
#X connect 86 0 66 0;
#X connect 87 0 90 0;
#X connect 88 0 178 0;
#X connect 88 1 178 1;
#X connect 89 0 96 0;
#X connect 90 0 91 0;
#X connect 91 0 180 0;
#X connect 91 0 182 0;
#X connect 91 0 239 0;
#X connect 92 0 194 0;
#X connect 93 0 161 0;
#X connect 94 0 178 0;
#X connect 95 0 94 0;
#X connect 96 0 87 0;
#X connect 97 0 98 0;
#X connect 98 0 139 0;
#X connect 99 0 206 0;
#X connect 99 0 237 0;
#X connect 100 0 120 0;
#X connect 100 1 121 0;
#X connect 104 0 107 1;
#X connect 105 0 133 0;
#X connect 106 0 107 0;
#X connect 107 0 113 0;
#X connect 107 0 183 0;
#X connect 108 0 110 0;
#X connect 109 0 106 0;
#X connect 110 0 109 0;
#X connect 111 0 186 0;
#X connect 112 0 111 0;
#X connect 113 0 252 0;
#X connect 115 0 100 0;
#X connect 115 0 100 1;
#X connect 117 0 249 0;
#X connect 118 0 119 0;
#X connect 118 0 244 0;
#X connect 119 0 117 1;
#X connect 119 0 184 0;
#X connect 120 0 21 0;
#X connect 121 0 26 0;
#X connect 122 0 123 0;
#X connect 123 0 125 0;
#X connect 124 0 122 0;
#X connect 125 0 126 0;
#X connect 125 1 126 0;
#X connect 126 0 129 0;
#X connect 127 0 126 1;
#X connect 128 0 122 0;
#X connect 129 0 127 0;
#X connect 129 0 118 0;
#X connect 130 0 133 1;
#X connect 131 0 130 0;
#X connect 132 0 185 0;
#X connect 133 0 107 0;
#X connect 134 0 130 0;
#X connect 135 0 48 0;
#X connect 137 0 148 0;
#X connect 138 0 139 1;
#X connect 139 0 137 0;
#X connect 140 0 147 0;
#X connect 141 0 149 0;
#X connect 141 1 143 0;
#X connect 142 0 140 1;
#X connect 143 0 142 0;
#X connect 144 0 138 0;
#X connect 145 0 146 0;
#X connect 146 0 141 0;
#X connect 147 0 148 1;
#X connect 148 0 150 0;
#X connect 149 0 140 0;
#X connect 150 0 163 0;
#X connect 151 0 154 0;
#X connect 152 0 144 0;
#X connect 152 0 145 0;
#X connect 153 0 152 0;
#X connect 154 0 152 0;
#X connect 155 0 14 0;
#X connect 156 0 155 0;
#X connect 157 0 155 1;
#X connect 158 0 99 1;
#X connect 159 0 224 0;
#X connect 160 0 7 0;
#X connect 161 0 11 0;
#X connect 162 0 156 0;
#X connect 163 0 248 0;
#X connect 164 0 157 0;
#X connect 165 0 187 0;
#X connect 165 1 188 0;
#X connect 166 0 113 1;
#X connect 167 0 3 0;
#X connect 168 0 169 0;
#X connect 169 0 159 0;
#X connect 170 0 151 0;
#X connect 171 0 64 0;
#X connect 172 0 86 0;
#X connect 173 0 73 0;
#X connect 174 0 228 0;
#X connect 175 0 174 1;
#X connect 176 0 174 0;
#X connect 177 0 2 0;
#X connect 178 0 15 0;
#X connect 178 1 97 0;
#X connect 179 0 88 0;
#X connect 180 0 179 0;
#X connect 181 0 89 0;
#X connect 182 0 180 0;
#X connect 185 0 251 0;
#X connect 186 0 104 0;
#X connect 189 0 21 0;
#X connect 190 0 26 0;
#X connect 191 0 199 0;
#X connect 191 1 200 0;
#X connect 194 0 30 0;
#X connect 195 0 196 0;
#X connect 196 0 197 0;
#X connect 197 0 198 0;
#X connect 198 0 194 1;
#X connect 199 0 214 0;
#X connect 200 0 215 0;
#X connect 201 0 191 1;
#X connect 201 1 191 2;
#X connect 201 2 191 3;
#X connect 202 0 84 1;
#X connect 203 0 213 0;
#X connect 204 0 52 0;
#X connect 204 0 260 0;
#X connect 205 0 191 0;
#X connect 206 0 205 0;
#X connect 207 0 47 0;
#X connect 207 0 262 0;
#X connect 208 0 204 1;
#X connect 208 0 221 0;
#X connect 209 0 38 0;
#X connect 209 0 40 0;
#X connect 209 0 117 0;
#X connect 210 0 211 0;
#X connect 211 0 203 0;
#X connect 212 0 203 1;
#X connect 213 0 202 0;
#X connect 214 0 192 0;
#X connect 215 0 193 0;
#X connect 216 0 44 1;
#X connect 217 0 207 0;
#X connect 218 0 220 0;
#X connect 219 0 162 0;
#X connect 220 0 219 0;
#X connect 221 0 212 0;
#X connect 222 0 58 0;
#X connect 223 0 39 0;
#X connect 224 0 227 0;
#X connect 224 0 230 0;
#X connect 225 0 226 0;
#X connect 226 0 158 0;
#X connect 227 0 225 0;
#X connect 228 0 173 1;
#X connect 229 0 256 0;
#X connect 230 0 229 0;
#X connect 231 0 234 0;
#X connect 232 0 231 0;
#X connect 233 0 214 1;
#X connect 233 0 215 1;
#X connect 234 0 233 0;
#X connect 235 0 237 1;
#X connect 236 0 241 0;
#X connect 237 0 114 0;
#X connect 238 0 240 0;
#X connect 239 0 238 0;
#X connect 240 0 236 0;
#X connect 241 0 235 0;
#X connect 242 0 109 1;
#X connect 243 0 109 1;
#X connect 244 0 245 0;
#X connect 244 0 246 0;
#X connect 245 0 244 1;
#X connect 246 0 247 0;
#X connect 247 0 242 0;
#X connect 247 1 243 0;
#X connect 247 2 250 0;
#X connect 248 0 99 0;
#X connect 249 0 254 0;
#X connect 250 0 109 1;
#X connect 251 0 134 0;
#X connect 252 0 165 0;
#X connect 252 0 116 0;
#X connect 253 0 92 0;
#X connect 254 0 186 0;
#X connect 254 1 186 0;
#X connect 254 2 186 0;
#X connect 254 3 186 0;
#X connect 254 4 112 0;
#X connect 255 0 176 0;
#X connect 256 0 201 0;
#X connect 257 0 86 0;
#X connect 258 0 265 0;
#X connect 259 0 261 0;
#X connect 260 0 264 0;
#X connect 260 0 268 0;
#X connect 261 0 263 0;
#X connect 261 0 47 0;
#X connect 263 0 269 0;
#X connect 264 0 263 1;
#X connect 265 0 259 0;
#X connect 266 0 267 0;
#X connect 267 0 268 0;
#X connect 268 0 258 0;
#X connect 269 0 262 0;
