#N canvas 794 151 368 463 10;
#X obj 228 92 phasor~ 0.125;
#X obj 129 164 env~;
#X obj 129 140 expr~ $v1%2;
#X obj 228 140 expr~ $v1%2;
#X obj 228 164 env~;
#X obj 129 188 change;
#X obj 228 188 change;
#X obj 129 295 tgl 15 0 empty empty empty 17 7 0 10 -262144 -1 -1 0
1;
#X msg 204 68 0;
#X obj 129 271 &&, f 17;
#X obj 253 34 loadbang;
#X obj 129 92 phasor~ 0.166;
#X obj 129 366 line~;
#X obj 54 390 *~, f 13;
#X obj 44 414 dac~;
#X msg 303 68 0.25;
#X obj 129 318 * 0.7;
#X obj 54 366 osc~ 120;
#X obj 54 318 mtof;
#X obj 54 342 sig~;
#X obj 54 246 bang;
#X obj 54 222 sel 100;
#X msg 54 29 \; pd dsp 1 \;;
#X obj 129 342 pack 0 80;
#X obj 129 116 *~ 50;
#X obj 54 294 + 42;
#X obj 54 270 random 50;
#X obj 228 116 *~ 80;
#X connect 0 0 27 0;
#X connect 1 0 5 0;
#X connect 2 0 1 0;
#X connect 3 0 4 0;
#X connect 4 0 6 0;
#X connect 5 0 9 0;
#X connect 5 0 21 0;
#X connect 6 0 9 1;
#X connect 7 0 16 0;
#X connect 8 0 11 1;
#X connect 9 0 7 0;
#X connect 10 0 8 0;
#X connect 10 0 15 0;
#X connect 11 0 24 0;
#X connect 12 0 13 1;
#X connect 13 0 14 0;
#X connect 13 0 14 1;
#X connect 15 0 0 1;
#X connect 16 0 23 0;
#X connect 17 0 13 0;
#X connect 18 0 19 0;
#X connect 19 0 17 0;
#X connect 20 0 26 0;
#X connect 21 0 20 0;
#X connect 23 0 12 0;
#X connect 24 0 2 0;
#X connect 25 0 18 0;
#X connect 26 0 25 0;
#X connect 27 0 3 0;
