#N canvas 191 73 1256 750 10;
#X obj 537 92 phasor~ 0.125;
#X obj 438 164 env~;
#X obj 438 140 expr~ $v1%2;
#X obj 537 140 expr~ $v1%2;
#X obj 537 164 env~;
#X obj 438 188 change;
#X obj 537 188 change;
#X obj 438 246 tgl 15 0 empty empty empty 17 7 0 10 -262144 -1 -1 0
1;
#X msg 513 68 0;
#X obj 562 34 loadbang;
#X obj 438 92 phasor~ 0.166;
#X obj 438 317 line~;
#X obj 209 763 *~, f 4;
#X msg 612 68 0.25;
#X obj 224 552 mtof;
#X obj 209 655 sig~;
#X obj 224 456 bang;
#X obj 224 432 sel 100;
#X msg 34 29 \; pd dsp 1 \;;
#X obj 34 83 catch~ \$0-M;
#N canvas 0 22 450 300 sub.tanh~ 0;
#X obj 12 12 inlet~;
#X obj 12 38 clip~ -3 3;
#X obj 27 64 *~;
#X obj 12 192 outlet~;
#X obj 27 140 /~;
#X obj 12 166 *~;
#X obj 67 90 *~ 9;
#X text 92 42 // http://www.musicdsp.org/showone.php?id=238;
#X text 92 62 // y = x * (27 + x^2) / (27 + 9*x^2);
#X obj 27 90 +~ 27;
#X obj 67 116 +~ 27;
#X text 92 22 // pade-approximation of tanh function;
#X connect 0 0 1 0;
#X connect 1 0 2 0;
#X connect 1 0 2 1;
#X connect 1 0 5 0;
#X connect 2 0 9 0;
#X connect 2 0 6 0;
#X connect 4 0 5 1;
#X connect 5 0 3 0;
#X connect 6 0 10 0;
#X connect 9 0 4 0;
#X connect 10 0 4 1;
#X restore 34 125 pd sub.tanh~;
#X obj 34 104 *~ 0.9;
#X obj 34 146 hip~ 3;
#X obj 34 188 dac~ 1;
#X obj 34 167 *~ 0.9;
#N canvas 0 22 450 300 sub.tanh~ 0;
#X obj 12 12 inlet~;
#X obj 12 38 clip~ -3 3;
#X obj 27 64 *~;
#X obj 12 192 outlet~;
#X obj 27 140 /~;
#X obj 12 166 *~;
#X obj 67 90 *~ 9;
#X text 92 42 // http://www.musicdsp.org/showone.php?id=238;
#X text 92 62 // y = x * (27 + x^2) / (27 + 9*x^2);
#X obj 27 90 +~ 27;
#X obj 67 116 +~ 27;
#X text 92 22 // pade-approximation of tanh function;
#X connect 0 0 1 0;
#X connect 1 0 2 0;
#X connect 1 0 2 1;
#X connect 1 0 5 0;
#X connect 2 0 9 0;
#X connect 2 0 6 0;
#X connect 4 0 5 1;
#X connect 5 0 3 0;
#X connect 6 0 10 0;
#X connect 9 0 4 0;
#X connect 10 0 4 1;
#X restore 124 125 pd sub.tanh~;
#X obj 124 104 *~ 0.9;
#X obj 124 146 hip~ 3;
#X obj 124 167 *~ 0.9;
#X obj 209 679 phasor~;
#X obj 209 700 -~ 0.25;
#X obj 209 721 cos~;
#X obj 229 742 delwrite~ \$0-pm 100;
#X obj 678 232 snapshot~;
#X obj 678 253 change;
#X obj 764 218 bang~;
#X obj 678 274 sel 0 1;
#X obj 678 295 i;
#X obj 708 295 + 1;
#X obj 704 401 sel 0;
#X obj 678 337 t f f;
#X obj 704 422 f, f 9;
#X msg 704 443 seed \$1;
#X obj 677 658 line~;
#X obj 677 700 *~, f 13;
#X obj 677 721 hip~ 10000;
#X obj 677 742 hip~ 10000;
#X obj 677 787 throw~ \$0-M;
#X msg 677 636 1 \, 0 \$1;
#X obj 819 494 + 1;
#X obj 804 515 f;
#X msg 804 536 seed \$1;
#X obj 677 594 sel 0;
#X msg 713 613 100;
#X obj 835 281 sel 0;
#X obj 704 380 % 8;
#X obj 835 323 s \$0-seed;
#X obj 819 473 r \$0-seed;
#X obj 755 401 r \$0-seed;
#X obj 967 442 sel 0;
#X obj 967 463 f, f 8;
#X msg 967 484 seed \$1;
#X obj 927 506 random 101;
#X obj 927 548 sel 1;
#X obj 1012 421 r \$0-seed;
#X obj 967 421 % 16;
#X obj 927 590 line~;
#X obj 967 614 sqrt~;
#X obj 927 680 cos~;
#N canvas 0 22 450 300 sub.tanh~ 0;
#X obj 12 12 inlet~;
#X obj 27 64 *~;
#X obj 12 192 outlet~;
#X obj 12 166 *~;
#X text 92 42 // http://www.musicdsp.org/showone.php?id=238;
#X text 92 62 // y = x * (27 + x^2) / (27 + 9*x^2);
#X text 92 22 // pade-approximation of tanh function;
#X obj 12 38 clip~ -3 3;
#X obj 67 90 *~ 9;
#X obj 67 116 +~ 27;
#X obj 27 90 +~ 27;
#X obj 27 140 /~;
#X connect 0 0 7 0;
#X connect 1 0 8 0;
#X connect 1 0 10 0;
#X connect 3 0 2 0;
#X connect 7 0 1 0;
#X connect 7 0 1 1;
#X connect 7 0 3 0;
#X connect 8 0 9 0;
#X connect 9 0 11 1;
#X connect 10 0 11 0;
#X connect 11 0 3 1;
#X restore 927 732 pd sub.tanh~;
#X obj 927 756 *~ 0.9;
#X obj 1012 442 + 2;
#X obj 927 527 < 25;
#X text 1349 944 comment;
#X obj 124 188 dac~ 2;
#X obj 927 893 throw~ \$0-M;
#X obj 677 679 pow~ 8;
#X obj 752 655 *~ 0.5;
#X obj 762 676 noise~;
#X obj 678 211 expr~ $v1>=1;
#X obj 678 316 % 64;
#X obj 835 302 random 10000;
#X obj 677 357 t b f;
#X obj 677 499 moses 75;
#X obj 677 475 random 100;
#X obj 677 523 bang;
#X obj 927 398 t b f;
#X obj 677 570 random 4;
#X obj 927 711 lop~ 1000;
#X obj 677 763 *~ 0.6;
#X obj 752 634 osc~ 8000;
#X obj 927 659 -~ 0.25;
#X obj 395 441 random 100;
#X obj 927 614 *~ 4;
#X obj 395 576 t b f;
#X obj 395 396 sel 1;
#X obj 395 462 moses 20;
#X obj 395 483 bang;
#X obj 131 665 vd~ \$0-pm;
#X obj 131 686 *~ 0.1;
#X obj 438 269 * 0.8;
#X obj 209 576 f;
#X obj 722 523 bang;
#X obj 395 417 bang;
#X obj 131 644 sig~ 1800;
#X obj 422 655 sig~;
#X obj 422 679 phasor~;
#X obj 422 903 *~, f 30;
#N canvas 30 6 618 693 panner 0;
#X obj 94 424 sqrt 0;
#X msg 94 501 \$1 500;
#X msg 294 501 \$1 500;
#X floatatom 312 448 5 0 0 0 - - -;
#X obj 294 424 sqrt 0;
#X floatatom 112 448 5 0 0 0 - - -;
#X obj 319 79 t b f;
#X obj 169 133 f;
#X text 192 167 lo-panVal;
#X text 354 167 hi-panVal;
#X obj 169 167 -;
#X obj 331 167 +;
#X obj 187 211 -;
#X obj 187 235 + 1;
#X obj 154 260 random;
#X obj 154 284 +;
#X obj 94 247 bng 15 100 50 0 empty empty empty 17 7 0 10 -262144 -1
-1;
#X text 194 260 randomRange: random()*((max-min)+1)+min;
#X obj 79 579 *~;
#X obj 94 525 line~;
#X obj 294 525 line~;
#X obj 279 579 *~;
#X obj 346 103 expr ($f1-0)*(64-0)/(100-0)+0;
#X obj 154 318 / 127;
#X msg 94 376 1;
#X obj 94 400 -;
#X obj 94 352 t b f;
#X obj 294 477 min 1;
#X obj 94 477 min 1;
#X obj 94 223 metro 400;
#X text 267 123 map: (inVal-inMin)*(outMax-outMin)/(inMax-inMin)+outMin
;
#X obj 79 643 outlet~;
#X obj 279 643 outlet~;
#X text 234 341 based on Matthew Davidson's 2013 Signal-controlled
granular oscillator: Beap Granular.;
#X obj 49 555 inlet~;
#X obj 249 555 inlet~;
#X msg 94 199 1;
#X obj 94 175 loadbang;
#X msg 169 55 64;
#X obj 229 18 loadbang;
#X text 147 55 PAN;
#X text 267 55 MOVEMENT;
#X msg 319 55 75;
#X connect 0 0 5 0;
#X connect 0 0 28 0;
#X connect 1 0 19 0;
#X connect 2 0 20 0;
#X connect 4 0 3 0;
#X connect 4 0 27 0;
#X connect 6 0 7 0;
#X connect 6 1 22 0;
#X connect 7 0 10 0;
#X connect 7 0 11 0;
#X connect 10 0 12 1;
#X connect 10 0 15 1;
#X connect 11 0 12 0;
#X connect 12 0 13 0;
#X connect 13 0 14 1;
#X connect 14 0 15 0;
#X connect 15 0 23 0;
#X connect 16 0 14 0;
#X connect 18 0 31 0;
#X connect 19 0 18 1;
#X connect 20 0 21 1;
#X connect 21 0 32 0;
#X connect 22 0 10 1;
#X connect 22 0 11 1;
#X connect 23 0 4 0;
#X connect 23 0 26 0;
#X connect 24 0 25 0;
#X connect 25 0 0 0;
#X connect 26 0 24 0;
#X connect 26 1 25 1;
#X connect 27 0 2 0;
#X connect 28 0 1 0;
#X connect 29 0 16 0;
#X connect 34 0 18 0;
#X connect 35 0 21 0;
#X connect 36 0 29 0;
#X connect 37 0 36 0;
#X connect 38 0 7 0;
#X connect 39 0 38 0;
#X connect 39 0 42 0;
#X connect 42 0 6 0;
#X restore 34 247 pd panner;
#X f 19;
#X obj 34 292 dac~ 1;
#X obj 145 292 dac~ 2;
#X text 21 600 musimathics vol1 \, section 3.2;
#X text 65 587 octaveTranspose;
#X text 16 613 f(k \, v) = f(R) * 2^((v-4)+k/12);
#X obj 1212 541 line~;
#X obj 1067 485 noise~;
#X obj 1137 524 osc~;
#X obj 1137 565 *~, f 13;
#X obj 1137 456 osc~ 0.002;
#X obj 1137 498 *~ 1.5;
#X obj 1137 477 +~ 2000;
#X obj 1212 421 % 18;
#X obj 1147 702 dac~, f 7;
#X obj 1276 493 moses 20;
#X obj 1212 445 sel 1 6 5 8 12;
#X obj 1276 469 random 100;
#X obj 1137 632 +~, f 4;
#X obj 422 927 throw~ panner;
#X obj 34 223 catch~ panner;
#X obj 1137 728 throw~ panner;
#X obj 1212 397 spigot;
#X obj 1245 352 sel 0;
#X obj 1245 373 random 2;
#X obj 34 271 *~ 0.4;
#X obj 145 271 *~ 0.4;
#X obj 1245 244 snapshot~;
#X obj 1245 265 change;
#X obj 1331 230 bang~;
#X obj 1245 286 sel 0 1;
#X obj 1245 307 i;
#X obj 1275 307 + 1;
#X obj 1245 223 expr~ $v1>=1;
#X obj 1245 328 % 32;
#X obj 1118 423 snapshot~;
#X obj 1127 399 bang~;
#X obj 1118 297 osc~ 0.05;
#X obj 1067 509 lop~, f 9;
#X obj 1118 360 abs~;
#X msg 677 615 500;
#X obj 209 787 throw~ \$0-M;
#X obj 422 727 abs~;
#X obj 479 671 sig~;
#X obj 422 703 -~, f 10;
#X obj 533 767 -, f 5;
#X obj 533 695 t b f;
#X obj 560 743 / 50;
#X obj 560 719 abs;
#X obj 479 647 / 100;
#X obj 533 647 - 50;
#X obj 533 671 * 2;
#X obj 533 791 sig~;
#X obj 422 815 *~, f 19;
#X obj 533 743 + 4;
#X obj 422 839 -~ 1;
#X obj 479 572 *~ 100;
#X obj 479 623 snapshot~;
#X obj 519 593 bang~;
#X obj 479 593 abs~;
#X obj 224 528 list store, f 11;
#X msg 224 504 get \$1 1;
#X msg 287 504 65 66 69 70 72;
#X obj 599 318 line~;
#X obj 599 270 sel 1;
#X obj 438 222 &&, f 17;
#X obj 438 293 pack 0 180;
#X obj 224 480 random 4;
#X obj 422 859 lop~ 2000;
#X obj 287 480 loadbang;
#X obj 1147 678 rev2~ 90 90 1000 20;
#X obj 1158 608 delread~ bellDelay 600, f 23;
#X obj 537 116 *~ 80;
#X obj 599 222 ||, f 4;
#X obj 599 246 != 1;
#X obj 1118 339 +~ 200;
#X obj 479 551 osc~ 0.08;
#X msg 927 569 0 \, 1 250;
#X obj 967 635 *~ 28;
#X obj 975 859 *~;
#X obj 990 815 *~, f 19;
#X obj 1101 791 expr~ $v1 > 0.25;
#X obj 990 767 phasor~ 30;
#X obj 990 836 *~ 0.5;
#X obj 990 791 expr~ $v1 > 0.5;
#X obj 438 116 *~ 48;
#X msg 599 294 0.9 \, 0 420;
#X obj 209 600 expr $f1*pow(2 \, ($f2-4)/12) \; $f1*pow(2 \, ($f2-4)+3/12)
, f 36;
#X obj 395 552 + 3;
#X obj 395 531 random 4;
#X obj 395 372 <= 1;
#X obj 405 507 delay 850;
#X obj 422 879 *~ 0.6;
#X obj 1158 589 delwrite~ bellDelay 600;
#X obj 1259 398 tgl 15 0 empty empty empty 17 7 0 10 -262144 -1 -1
0 1;
#X obj 1137 654 *~ 0.8;
#X obj 1118 318 *~ 1820;
#X msg 1212 517 0.15 \, 0 90;
#X connect 0 0 180 0;
#X connect 0 0 189 0;
#X connect 1 0 5 0;
#X connect 2 0 1 0;
#X connect 2 0 79 0;
#X connect 2 0 141 0;
#X connect 3 0 4 0;
#X connect 4 0 6 0;
#X connect 5 0 17 0;
#X connect 5 0 173 0;
#X connect 5 0 181 0;
#X connect 6 0 173 1;
#X connect 6 0 181 1;
#X connect 7 0 100 0;
#X connect 8 0 10 1;
#X connect 9 0 8 0;
#X connect 9 0 13 0;
#X connect 10 0 193 0;
#X connect 11 0 12 1;
#X connect 12 0 149 0;
#X connect 13 0 0 1;
#X connect 14 0 101 1;
#X connect 15 0 29 0;
#X connect 16 0 175 0;
#X connect 17 0 16 0;
#X connect 19 0 21 0;
#X connect 19 0 26 0;
#X connect 20 0 22 0;
#X connect 21 0 20 0;
#X connect 22 0 24 0;
#X connect 24 0 23 0;
#X connect 25 0 27 0;
#X connect 26 0 25 0;
#X connect 27 0 28 0;
#X connect 28 0 74 0;
#X connect 29 0 30 0;
#X connect 30 0 31 0;
#X connect 31 0 12 0;
#X connect 31 0 32 0;
#X connect 33 0 34 0;
#X connect 34 0 36 0;
#X connect 35 0 33 0;
#X connect 36 0 37 0;
#X connect 36 1 37 0;
#X connect 37 0 80 0;
#X connect 38 0 37 1;
#X connect 39 0 41 0;
#X connect 39 0 50 0;
#X connect 40 0 82 0;
#X connect 40 0 86 0;
#X connect 40 1 54 0;
#X connect 41 0 42 0;
#X connect 42 0 84 0;
#X connect 43 0 76 0;
#X connect 44 0 45 0;
#X connect 45 0 46 0;
#X connect 46 0 89 0;
#X connect 48 0 43 0;
#X connect 49 0 50 1;
#X connect 50 0 51 0;
#X connect 51 0 87 0;
#X connect 52 0 148 0;
#X connect 52 1 53 0;
#X connect 53 0 48 0;
#X connect 54 0 81 0;
#X connect 55 0 39 0;
#X connect 57 0 49 0;
#X connect 58 0 41 1;
#X connect 59 0 60 0;
#X connect 60 0 61 0;
#X connect 61 0 62 0;
#X connect 62 0 72 0;
#X connect 63 0 185 0;
#X connect 64 0 71 0;
#X connect 65 0 59 0;
#X connect 66 0 67 0;
#X connect 66 0 93 0;
#X connect 67 0 186 0;
#X connect 68 0 88 0;
#X connect 69 0 70 0;
#X connect 70 0 75 0;
#X connect 70 0 187 0;
#X connect 71 0 60 1;
#X connect 72 0 63 0;
#X connect 76 0 44 0;
#X connect 77 0 44 1;
#X connect 78 0 44 1;
#X connect 79 0 33 0;
#X connect 80 0 38 0;
#X connect 80 0 40 0;
#X connect 80 0 130 0;
#X connect 81 0 56 0;
#X connect 82 0 84 0;
#X connect 82 1 55 0;
#X connect 83 0 85 0;
#X connect 83 1 102 0;
#X connect 84 0 83 0;
#X connect 85 0 87 0;
#X connect 86 0 62 0;
#X connect 86 1 65 0;
#X connect 87 0 52 0;
#X connect 87 0 198 0;
#X connect 88 0 69 0;
#X connect 89 0 47 0;
#X connect 90 0 77 0;
#X connect 91 0 68 0;
#X connect 92 0 96 0;
#X connect 93 0 91 0;
#X connect 94 0 195 0;
#X connect 94 1 195 1;
#X connect 95 0 103 0;
#X connect 96 0 97 0;
#X connect 97 0 197 0;
#X connect 97 0 199 0;
#X connect 98 0 99 0;
#X connect 99 0 30 0;
#X connect 100 0 174 0;
#X connect 101 0 195 0;
#X connect 102 0 101 0;
#X connect 103 0 92 0;
#X connect 104 0 98 0;
#X connect 105 0 106 0;
#X connect 106 0 152 0;
#X connect 107 0 127 0;
#X connect 108 0 133 0;
#X connect 108 1 134 0;
#X connect 114 0 117 1;
#X connect 115 0 146 0;
#X connect 116 0 117 0;
#X connect 117 0 126 0;
#X connect 117 0 201 0;
#X connect 118 0 120 0;
#X connect 119 0 116 0;
#X connect 120 0 119 0;
#X connect 121 0 124 0;
#X connect 123 0 205 0;
#X connect 124 0 205 0;
#X connect 124 1 205 0;
#X connect 124 2 205 0;
#X connect 124 3 205 0;
#X connect 124 4 125 0;
#X connect 125 0 123 0;
#X connect 126 0 203 0;
#X connect 128 0 108 0;
#X connect 128 0 108 1;
#X connect 130 0 121 0;
#X connect 131 0 132 0;
#X connect 132 0 130 1;
#X connect 132 0 202 0;
#X connect 133 0 109 0;
#X connect 134 0 110 0;
#X connect 135 0 136 0;
#X connect 136 0 138 0;
#X connect 137 0 135 0;
#X connect 138 0 139 0;
#X connect 138 1 139 0;
#X connect 139 0 142 0;
#X connect 140 0 139 1;
#X connect 141 0 135 0;
#X connect 142 0 140 0;
#X connect 142 0 131 0;
#X connect 143 0 146 1;
#X connect 144 0 143 0;
#X connect 145 0 204 0;
#X connect 146 0 117 0;
#X connect 147 0 143 0;
#X connect 148 0 48 0;
#X connect 150 0 161 0;
#X connect 151 0 152 1;
#X connect 152 0 150 0;
#X connect 153 0 160 0;
#X connect 154 0 162 0;
#X connect 154 1 156 0;
#X connect 155 0 153 1;
#X connect 156 0 155 0;
#X connect 157 0 151 0;
#X connect 158 0 159 0;
#X connect 159 0 154 0;
#X connect 160 0 161 1;
#X connect 161 0 163 0;
#X connect 162 0 153 0;
#X connect 163 0 176 0;
#X connect 164 0 167 0;
#X connect 165 0 157 0;
#X connect 165 0 158 0;
#X connect 166 0 165 0;
#X connect 167 0 165 0;
#X connect 168 0 14 0;
#X connect 169 0 168 0;
#X connect 170 0 168 1;
#X connect 171 0 107 1;
#X connect 172 0 194 0;
#X connect 173 0 7 0;
#X connect 174 0 11 0;
#X connect 175 0 169 0;
#X connect 176 0 200 0;
#X connect 177 0 170 0;
#X connect 178 0 122 0;
#X connect 178 1 122 1;
#X connect 179 0 126 1;
#X connect 180 0 3 0;
#X connect 181 0 182 0;
#X connect 182 0 172 0;
#X connect 183 0 147 0;
#X connect 184 0 164 0;
#X connect 185 0 66 0;
#X connect 186 0 91 0;
#X connect 187 0 75 0;
#X connect 188 0 191 0;
#X connect 189 0 188 1;
#X connect 190 0 192 0;
#X connect 191 0 187 1;
#X connect 192 0 188 0;
#X connect 193 0 2 0;
#X connect 194 0 171 0;
#X connect 195 0 15 0;
#X connect 195 1 105 0;
#X connect 196 0 94 0;
#X connect 197 0 196 0;
#X connect 198 0 95 0;
#X connect 199 0 197 0;
#X connect 200 0 107 0;
#X connect 203 0 129 0;
#X connect 203 0 178 0;
#X connect 204 0 183 0;
#X connect 205 0 114 0;
