#N canvas 203 154 1659 785 10;
#X obj 20 20 tgl 15 0 empty empty empty 17 7 0 10 -262144 -1 -1 0 1
;
#X msg 20 41 \; pd dsp \$1;
#X obj 20 126 *~ 0.9;
#X obj 20 210 dac~ 1;
#X obj 20 189 *~ 0.9;
#X obj 20 168 hip~ 3;
#X obj 120 126 *~ 0.9;
#X obj 120 189 *~ 0.9;
#X obj 120 168 hip~ 3;
#X obj 20 95 catch~ s1;
#X obj 120 210 dac~ 2;
#X obj 20 245 cnv 15 380 460 empty empty empty 20 12 0 14 -158951 -66577
0;
#N canvas 360 158 628 378 rise-fall 0;
#X obj 32 161 abs~;
#X obj 32 182 *~ 4;
#X floatatom 32 98 5 0 0 0 - - -;
#X obj 32 140 -~ 0.8, f 14;
#X obj 32 203 sqrt~;
#X obj 32 224 -~ 1;
#X obj 32 245 abs~;
#X obj 32 296 outlet~;
#X obj 32 47 inlet;
#X obj 113 47 inlet;
#X text 34 17 TIME;
#X text 114 17 SHAPE;
#X text 114 29 (0-1);
#X text 31 30 (0-1);
#X obj 32 119 phasor~ 0.7;
#X obj 162 245 change;
#X obj 162 224 snapshot~;
#X obj 238 208 bang~;
#X obj 162 296 outlet;
#X obj 162 182 expr~ ($v1*100)%2;
#X obj 292 245 change;
#X obj 292 224 snapshot~;
#X obj 292 296 outlet;
#X obj 292 182 expr~ ($v1*100)%2;
#X obj 412 224 snapshot~;
#X obj 412 245 change;
#X obj 412 296 i;
#X obj 412 317 % 64;
#X obj 442 296 + 1;
#X obj 412 266 sel 1 0;
#X obj 412 182 expr~ ($v1*400)%2;
#X obj 412 338 s \$0-clock;
#X obj 505 290 % 2;
#X obj 505 311 sel 0 1;
#X obj 505 332 timer;
#X obj 505 353 s \$0-ms;
#X obj 557 345 v \$0-ms;
#X connect 0 0 1 0;
#X connect 1 0 4 0;
#X connect 2 0 14 0;
#X connect 3 0 0 0;
#X connect 4 0 5 0;
#X connect 5 0 6 0;
#X connect 5 0 19 0;
#X connect 6 0 7 0;
#X connect 8 0 2 0;
#X connect 9 0 3 1;
#X connect 14 0 3 0;
#X connect 14 0 23 0;
#X connect 14 0 30 0;
#X connect 15 0 18 0;
#X connect 16 0 15 0;
#X connect 17 0 16 0;
#X connect 17 0 21 0;
#X connect 17 0 24 0;
#X connect 19 0 16 0;
#X connect 20 0 22 0;
#X connect 21 0 20 0;
#X connect 23 0 21 0;
#X connect 24 0 25 0;
#X connect 25 0 29 0;
#X connect 26 0 27 0;
#X connect 27 0 28 0;
#X connect 27 0 31 0;
#X connect 27 0 32 0;
#X connect 28 0 26 1;
#X connect 29 0 26 0;
#X connect 29 1 26 0;
#X connect 30 0 24 0;
#X connect 32 0 33 0;
#X connect 33 0 34 0;
#X connect 33 1 34 1;
#X connect 34 0 35 0;
#X restore 132 403 pd rise-fall;
#X obj 204 336 hsl 100 18 0 127 0 0 empty empty SHAPE -2 -8 0 10 -262144
-1 -1 4833 1;
#X obj 201 359 / 127;
#X obj 135 296 hsl 100 18 0 127 0 0 empty empty TIME -2 -8 0 10 -262144
-1 -1 8341 1;
#X obj 132 340 abs;
#X obj 132 319 - 128;
#X obj 132 361 / 128;
#X obj 99 577 noise~;
#X obj 77 511 bang~;
#X obj 132 527 snapshot~;
#X obj 132 506 abs~;
#X obj 166 434 tgl 15 0 empty empty empty 17 7 0 10 -262144 -1 -1 0
1;
#X obj 132 382 pow 2;
#X obj 41 261 loadbang;
#X obj 99 598 lop~, f 6;
#X obj 132 464 *~ 2000;
#X obj 132 485 -~ 520;
#X msg 71 282 62;
#X obj 99 619 *~ 0.7;
#X msg 41 282 107;
#X obj 201 434 tgl 15 0 empty empty empty 17 7 0 10 -262144 -1 -1 0
1;
#X obj 201 599 lop~, f 6;
#N canvas 0 22 456 494 antiSquare 0;
#X obj 19 37 inlet;
#X obj 19 94 phasor~;
#X obj 19 178 *~ 0.064;
#X obj 19 205 rpole~ 0.93538;
#X obj 19 232 *~ 0.00431;
#X obj 19 259 cpole~ 0.96559 0.05592;
#X obj 19 286 cpole~ 0.96559 0.05592;
#X obj 19 313 *~ 0.125;
#X obj 19 340 rzero~ -1;
#X obj 19 367 rzero~ -1;
#X obj 19 394 rzero~ -1;
#X obj 19 451 outlet~;
#X obj 117 421 block~ 1024 1 16;
#X obj 136 37 inlet;
#X text 110 357 http://write.flossmanuals.net/pure-data/antialiasing/
;
#X obj 19 121 expr~ ($v1<$v2)*2-1, f 20;
#X text 20 20 FREQ;
#X text 140 20 PWM;
#X connect 0 0 1 0;
#X connect 1 0 15 0;
#X connect 2 0 3 0;
#X connect 3 0 4 0;
#X connect 4 0 5 0;
#X connect 5 0 6 0;
#X connect 5 1 6 1;
#X connect 6 0 7 0;
#X connect 7 0 8 0;
#X connect 8 0 9 0;
#X connect 9 0 10 0;
#X connect 10 0 11 0;
#X connect 13 0 15 1;
#X connect 15 0 2 0;
#X restore 201 577 pd antiSquare;
#X obj 234 527 snapshot~;
#X obj 234 506 abs~;
#X obj 234 485 +~ 120;
#X msg 276 556 0.3;
#X obj 321 542 loadbang;
#X msg 201 556 110;
#X obj 201 620 *~ 0.4;
#X obj 234 464 *~ 800;
#X text 33 707 Un generador de ruido y un oscilador de pulso cuyos
filtros [lop~] son controlados por un modulador [pd rise-fall].;
#N canvas 0 22 450 300 tanh~ 0;
#X obj 12 12 inlet~;
#X obj 27 64 *~;
#X obj 12 192 outlet~;
#X obj 27 140 /~;
#X obj 12 166 *~;
#X text 92 42 // http://www.musicdsp.org/showone.php?id=238;
#X text 92 62 // y = x * (27 + x^2) / (27 + 9*x^2);
#X obj 27 90 +~ 27;
#X obj 67 116 +~ 27;
#X text 92 22 // pade-approximation of tanh function;
#X obj 12 38 clip~ -3 3;
#X obj 67 90 *~ 9;
#X connect 0 0 10 0;
#X connect 1 0 7 0;
#X connect 1 0 11 0;
#X connect 3 0 4 1;
#X connect 4 0 2 0;
#X connect 7 0 3 0;
#X connect 8 0 3 1;
#X connect 10 0 1 0;
#X connect 10 0 1 1;
#X connect 10 0 4 0;
#X connect 11 0 8 0;
#X restore 20 147 pd tanh~;
#N canvas 0 22 450 300 tanh~ 0;
#X obj 12 12 inlet~;
#X obj 27 64 *~;
#X obj 12 192 outlet~;
#X obj 27 140 /~;
#X obj 12 166 *~;
#X text 92 42 // http://www.musicdsp.org/showone.php?id=238;
#X text 92 62 // y = x * (27 + x^2) / (27 + 9*x^2);
#X obj 27 90 +~ 27;
#X obj 67 116 +~ 27;
#X text 92 22 // pade-approximation of tanh function;
#X obj 12 38 clip~ -3 3;
#X obj 67 90 *~ 9;
#X connect 0 0 10 0;
#X connect 1 0 7 0;
#X connect 1 0 11 0;
#X connect 3 0 4 1;
#X connect 4 0 2 0;
#X connect 7 0 3 0;
#X connect 8 0 3 1;
#X connect 10 0 1 0;
#X connect 10 0 1 1;
#X connect 10 0 4 0;
#X connect 11 0 8 0;
#X restore 120 147 pd tanh~;
#X obj 430 245 cnv 15 380 460 empty empty empty 20 12 0 14 -194588
-66577 0;
#X obj 438 294 loadbang;
#X msg 438 315 0 2 4 5 7 9 11;
#X obj 438 336 array set \$0-scale;
#X obj 438 273 array define -k \$0-scale 7;
#A 0 0 2 4 5 7 9 11;
#X text 438 253 // Define y escribe la escala de Do mayor;
#X obj 595 330 r \$0-clock;
#X obj 622 414 sel 0;
#X obj 560 472 +;
#X obj 590 472 i;
#X obj 622 435 t b b;
#X msg 575 451 0;
#X obj 649 478 s \$0-seed;
#X obj 595 351 t b f;
#X obj 560 428 - 2;
#X obj 560 407 random 5;
#X obj 560 514 t f f;
#X obj 560 535 % 7;
#X obj 560 556 tabread \$0-scale;
#X obj 560 577 +;
#X obj 667 530 div 7;
#X obj 667 561 * 12;
#X obj 560 598 mtof;
#X obj 502 360 r \$0-seed;
#X obj 560 493 + 40;
#X obj 560 640 *~;
#X obj 721 603 vline~;
#X obj 622 393 % 8;
#X obj 721 519 random 100;
#X obj 721 561 sel 1;
#X msg 721 498 seed 54;
#X msg 502 381 seed 5;
#X obj 721 540 < 100;
#X obj 721 478 r \$0-seed;
#N canvas 602 202 401 319 pulse-sinewave 0;
#X obj 17 67 inlet;
#X obj 17 262 outlet~;
#X obj 17 194 -~ 0.25;
#X obj 17 215 cos~;
#X obj 17 236 *~;
#N canvas 0 22 312 266 square-window 0;
#X obj 12 114 clip~ 0 1;
#X obj 12 66 -~;
#X obj 12 136 *~ -1;
#X obj 12 157 +~ 1;
#X obj 12 31 inlet~;
#X obj 152 47 inlet~;
#X obj 12 179 outlet~;
#X text 62 146 <= Invert Phase/Polarity;
#X text 152 27 (I2) Pulse Width;
#X text 12 11 (I1) Phasor Input;
#X text 12 199 (O1) Square Wave Window (0 to 1);
#X obj 12 90 *~ 1e+06;
#X connect 0 0 2 0;
#X connect 1 0 11 0;
#X connect 2 0 3 0;
#X connect 3 0 6 0;
#X connect 4 0 1 0;
#X connect 5 0 1 1;
#X connect 11 0 0 0;
#X restore 76 220 pd square-window;
#X obj 17 144 *~;
#X obj 96 108 sig~ 1;
#X obj 96 129 /~;
#X obj 169 92 sig~ 2;
#X obj 169 113 pow~;
#X obj 17 123 phasor~;
#X obj 213 55 inlet~;
#X obj 213 76 *~;
#X obj 263 39 /~ 2;
#X obj 263 60 +~ 0.5;
#X obj 213 97 *~;
#X obj 263 18 osc~ 0.2;
#X obj 325 18 osc~ 0.05;
#X obj 325 39 /~ 2;
#X obj 325 60 +~ 0.5;
#X obj 325 81 *~ -8;
#X connect 0 0 11 0;
#X connect 2 0 3 0;
#X connect 3 0 4 0;
#X connect 4 0 1 0;
#X connect 5 0 4 1;
#X connect 6 0 2 0;
#X connect 7 0 8 0;
#X connect 8 0 6 1;
#X connect 9 0 10 0;
#X connect 10 0 8 1;
#X connect 10 0 5 1;
#X connect 11 0 5 0;
#X connect 11 0 6 0;
#X connect 12 0 13 0;
#X connect 13 0 16 0;
#X connect 14 0 15 0;
#X connect 15 0 13 1;
#X connect 16 0 10 1;
#X connect 17 0 14 0;
#X connect 18 0 19 0;
#X connect 19 0 20 0;
#X connect 20 0 21 0;
#X connect 21 0 16 1;
#X restore 560 619 pd pulse-sinewave;
#X obj 560 661 /~ 2;
#X obj 748 410 div 32;
#X obj 748 431 * 25;
#X obj 748 452 + 75;
#X obj 721 624 pow~ 2;
#X msg 721 582 1 1 \, 0 250 1;
#X text 443 707 Un generador de sequencia en escala mayor con un oscilador
senoidal con la capacidad de modular su pulso.;
#X obj 622 372 + 1;
#X obj 480 598 s midinote;
#X obj 560 681 throw~ s1;
#X obj 99 670 throw~ s1;
#X obj 201 670 throw~ s1;
#X obj 840 245 cnv 15 380 460 empty empty empty 20 12 0 14 -158951
-66577 0;
#X obj 901 296 sel 1;
#X obj 901 317 f;
#X obj 941 318 + 1;
#X obj 901 338 % 3;
#X obj 901 380 random 100;
#X obj 901 401 moses 35;
#X obj 901 275 abs;
#X obj 901 537 mtof;
#X obj 1021 275 r midinote;
#X obj 901 516 f, f 15;
#X obj 901 579 line;
#X obj 918 485 - 12;
#X obj 988 485 - 7;
#X obj 1058 485 - 5;
#X obj 918 464 spigot;
#X obj 1021 443 == 1;
#X obj 988 464 spigot;
#X obj 1058 464 spigot;
#X obj 951 443 == 0;
#X obj 1021 422 hradio 15 1 0 3 empty empty empty 0 -8 0 10 -262144
-1 -1 2;
#X obj 1021 380 f;
#X obj 1051 380 + 1;
#X obj 1021 317 bang;
#X obj 1021 338 random 100;
#X obj 1021 296 t b f;
#X obj 1021 401 % 3;
#X obj 1021 359 moses 30;
#X obj 1091 443 == 2;
#N canvas 384 160 373 561 ringTriangles 0;
#X obj 31 293 noise~;
#X obj 154 209 phasor~;
#X obj 154 230 -~ 0.5;
#X obj 154 251 abs~;
#X obj 154 272 *~ 4;
#X obj 154 293 -~ 1;
#X obj 91 209 phasor~;
#X obj 91 230 -~ 0.5;
#X obj 91 251 abs~;
#X obj 91 272 *~ 4;
#X obj 91 293 -~ 1;
#X obj 91 314 *~, f 11;
#X obj 154 96 t b f f, f 12;
#N canvas 419 352 400 392 centTuner 0;
#X obj 56 180 /, f 7;
#X obj 95 159 expr log10(2);
#X msg 56 159 1200;
#X obj 56 138 t b b, f 7;
#X obj 29 201 /, f 5;
#X obj 29 222 expr pow(10 \, $f1);
#X obj 86 264 expr pow($f1 \, 1);
#X obj 29 243 t b f, f 10;
#X obj 29 285 *, f 10;
#X obj 29 264 f, f 7;
#X obj 29 117 t f b;
#X obj 29 35 inlet;
#X obj 68 35 inlet;
#X obj 29 346 outlet;
#X text 69 18 f(R);
#X text 30 18 CENT;
#X text 110 318 Musimatics Vol.1 Section 3.4: The Cent Scale;
#X connect 0 0 4 1;
#X connect 1 0 0 1;
#X connect 2 0 0 0;
#X connect 3 0 2 0;
#X connect 3 1 1 0;
#X connect 4 0 5 0;
#X connect 5 0 7 0;
#X connect 6 0 8 1;
#X connect 7 0 9 0;
#X connect 7 1 6 0;
#X connect 8 0 13 0;
#X connect 9 0 8 0;
#X connect 10 0 4 0;
#X connect 10 1 3 0;
#X connect 11 0 10 0;
#X connect 12 0 9 1;
#X restore 154 167 pd centTuner;
#X obj 154 188 sig~;
#X obj 91 188 sig~;
#X obj 91 355 lop~, f 17;
#X obj 31 314 *~ 0.05;
#X obj 154 35 inlet;
#X obj 91 521 outlet~;
#X text 155 18 FREQ;
#X obj 190 314 + 300;
#X obj 91 460 *~, f 21;
#X obj 214 376 -~ 0.5;
#X obj 214 397 abs~;
#X obj 214 418 *~ 4;
#X obj 214 439 -~ 1;
#X obj 214 355 phasor~ 0.028;
#X obj 247 100 snapshot~;
#X obj 297 71 bang~;
#X obj 247 50 abs~;
#X obj 247 71 *~ 60;
#X obj 247 121 - 1960;
#X obj 154 143 f, f 16;
#X obj 247 29 osc~ 0.02;
#X connect 0 0 17 0;
#X connect 1 0 2 0;
#X connect 2 0 3 0;
#X connect 3 0 4 0;
#X connect 4 0 5 0;
#X connect 5 0 11 1;
#X connect 6 0 7 0;
#X connect 7 0 8 0;
#X connect 8 0 9 0;
#X connect 9 0 10 0;
#X connect 10 0 11 0;
#X connect 11 0 16 0;
#X connect 12 0 33 0;
#X connect 12 1 15 0;
#X connect 12 2 13 1;
#X connect 12 2 21 0;
#X connect 13 0 14 0;
#X connect 14 0 1 0;
#X connect 15 0 6 0;
#X connect 16 0 22 0;
#X connect 17 0 16 0;
#X connect 18 0 12 0;
#X connect 21 0 16 1;
#X connect 22 0 19 0;
#X connect 23 0 24 0;
#X connect 24 0 25 0;
#X connect 25 0 26 0;
#X connect 26 0 22 1;
#X connect 27 0 23 0;
#X connect 28 0 32 0;
#X connect 29 0 28 0;
#X connect 30 0 31 0;
#X connect 31 0 28 0;
#X connect 32 0 33 1;
#X connect 33 0 13 0;
#X connect 34 0 30 0;
#X restore 901 600 pd ringTriangles;
#X obj 901 422 bang;
#X obj 901 670 throw~ s1;
#X obj 901 359 sel 2;
#X obj 901 558 pack 0 40;
#X text 853 707 Dos osciladores de onda triangular con modulación
de anillo cuya amplitud es controlada por otro oscilador triangular.
;
#X obj 1230 245 cnv 15 380 460 empty empty empty 20 12 0 14 -194588
-66577 0;
#N canvas 0 22 450 278 (subpatch) 0;
#X array \$0-rytm-1 16 float 3;
#A 0 0 0 2 2 2 0 0 0 0 3 4 0 0 0 1 0;
#X coords 0 4 16 0 100 50 1 0 0;
#X restore 1472 249 graph;
#X obj 1244 280 r \$0-clock;
#X msg 1244 322 4;
#X obj 1244 343 until;
#X obj 1324 212 r \$0-clock;
#X obj 1324 323 sel 0 1 2 3 4;
#X msg 1260 502 0 \, 1 100;
#X obj 1260 544 sqrt~;
#X obj 1260 565 *~ 10;
#X obj 1260 586 -~ 0.25;
#X obj 1260 607 cos~;
#X obj 1351 565 cos~;
#X obj 1244 364 t b b;
#X obj 1244 407 - 4;
#X obj 1244 386 random 9;
#X obj 1351 586 *~;
#X obj 1446 436 phasor~;
#X obj 1446 457 -~ 0.25;
#X obj 1446 478 cos~;
#X obj 1446 372 loadbang;
#X obj 1446 414 /;
#X obj 1446 501 *~;
#X obj 1260 523 line~;
#X obj 1350 523 line~;
#X obj 1493 504 line~;
#X obj 1505 370 phasor~;
#X obj 1505 391 -~ 0.25;
#X obj 1505 412 cos~;
#X obj 1506 307 loadbang;
#X obj 1505 348 /;
#X msg 1446 393 44100 8;
#X obj 1505 433 *~ 100;
#X obj 1418 543 s~ \$0-fbk;
#X obj 1556 392 r~ \$0-fbk;
#X obj 1556 413 *~ 0.25;
#X obj 1493 525 pow~ 4;
#X msg 1493 482 1 \, 0 100;
#X msg 1553 482 1 \, 0 800;
#X obj 1244 301 sel 0;
#X obj 1244 428 max 0;
#X obj 1446 563 /~ 4;
#X obj 1446 522 hip~ 9999;
#N canvas 0 22 450 300 tanh~ 0;
#X obj 12 12 inlet~;
#X obj 27 64 *~;
#X obj 12 192 outlet~;
#X obj 27 140 /~;
#X obj 12 166 *~;
#X text 92 42 // http://www.musicdsp.org/showone.php?id=238;
#X text 92 62 // y = x * (27 + x^2) / (27 + 9*x^2);
#X obj 27 90 +~ 27;
#X obj 67 116 +~ 27;
#X text 92 22 // pade-approximation of tanh function;
#X obj 12 38 clip~ -3 3;
#X obj 67 90 *~ 9;
#X connect 0 0 10 0;
#X connect 1 0 7 0;
#X connect 1 0 11 0;
#X connect 3 0 4 1;
#X connect 4 0 2 0;
#X connect 7 0 3 0;
#X connect 8 0 3 1;
#X connect 10 0 1 0;
#X connect 10 0 1 1;
#X connect 10 0 4 0;
#X connect 11 0 8 0;
#X restore 1261 652 pd tanh~;
#X obj 1526 640 v \$0-ms;
#X obj 1339 344 s \$0-kik;
#X obj 1359 364 s \$0-snr;
#X obj 1379 384 s \$0-chh;
#X obj 1399 344 s \$0-ohh;
#X obj 1493 462 bng 15 250 50 0 empty \$0-chh empty 17 7 0 10 -262144
-1 -1;
#X obj 1261 704 throw~ s1;
#X obj 1553 462 bng 15 250 50 0 empty \$0-ohh empty 17 7 0 10 -262144
-1 -1;
#X obj 1260 481 bng 15 250 50 0 empty \$0-kik empty 17 7 0 10 -262144
-1 -1;
#X obj 1350 481 bng 15 250 50 0 empty \$0-snr empty 17 7 0 10 -262144
-1 -1;
#X obj 1332 657 vd~ \$0-stutter;
#X obj 1332 678 *~;
#X obj 1332 704 delwrite~ \$0-stutter 200;
#X obj 1260 628 lop~ 1000;
#X obj 1324 384 s \$0-stut;
#X obj 1351 607 lop~ 8000;
#X obj 1281 684 /~ 2;
#X obj 1324 302 tabread \$0-rytm-1;
#X obj 1244 449 tabwrite \$0-rytm-1;
#X obj 1244 14 r \$0-clock;
#X obj 1244 77 until;
#X obj 1244 98 t b b;
#X obj 1286 162 random 16;
#X obj 1244 141 - 4;
#X obj 1244 120 random 9;
#X obj 1244 35 sel 0;
#X obj 1244 162 max 0;
#X obj 1244 183 tabwrite \$0-rytm-2;
#N canvas 0 22 450 278 (subpatch) 0;
#X array \$0-rytm-2 16 float 3;
#A 0 1 2 1 0 0 4 0 0 0 0 0 0 1 0 0 0;
#X coords 0 4 16 0 100 50 1 0 0;
#X restore 1472 169 graph;
#X obj 1354 284 tabread \$0-rytm-2;
#X obj 1351 628 *~ 2;
#X msg 1350 502 1 \, 0 50;
#X obj 1351 544 *~ 15;
#X obj 1324 280 % 8;
#X obj 1324 233 div 2;
#X obj 1324 254 change;
#X obj 1391 229 r \$0-clock;
#X obj 1391 250 % 16;
#X obj 1286 428 random 8;
#X msg 1505 327 44100 53;
#X obj 1425 599 r \$0-stut;
#X obj 1425 620 v \$0-ms;
#X obj 1425 662 vline~;
#X msg 1425 641 0.99 1 \, 0 1 \$1;
#X msg 1244 56 8;
#X obj 1526 593 loadbang;
#X text 1252 739 Drum Machine con stutter;
#X connect 0 0 1 0;
#X connect 2 0 44 0;
#X connect 4 0 3 0;
#X connect 5 0 4 0;
#X connect 6 0 45 0;
#X connect 7 0 10 0;
#X connect 8 0 7 0;
#X connect 9 0 6 0;
#X connect 9 0 2 0;
#X connect 12 0 27 0;
#X connect 12 1 23 0;
#X connect 12 2 32 0;
#X connect 13 0 14 0;
#X connect 14 0 12 1;
#X connect 15 0 17 0;
#X connect 16 0 18 0;
#X connect 17 0 16 0;
#X connect 18 0 24 0;
#X connect 19 0 26 0;
#X connect 20 0 21 0;
#X connect 20 0 35 0;
#X connect 21 0 26 1;
#X connect 22 0 21 0;
#X connect 23 0 100 0;
#X connect 24 0 12 0;
#X connect 25 0 29 0;
#X connect 25 0 31 0;
#X connect 26 0 30 0;
#X connect 27 0 28 0;
#X connect 28 0 22 0;
#X connect 29 0 13 0;
#X connect 30 0 91 0;
#X connect 31 0 15 0;
#X connect 32 0 42 0;
#X connect 33 0 41 0;
#X connect 34 0 33 0;
#X connect 35 0 33 1;
#X connect 36 0 35 0;
#X connect 37 0 36 0;
#X connect 38 0 34 1;
#X connect 39 0 38 0;
#X connect 39 0 40 0;
#X connect 40 0 34 0;
#X connect 41 0 92 0;
#X connect 42 0 37 0;
#X connect 44 0 5 0;
#X connect 45 0 8 0;
#X connect 47 0 48 0;
#X connect 48 0 49 0;
#X connect 52 0 59 0;
#X connect 53 0 56 0;
#X connect 54 0 55 0;
#X connect 54 0 70 0;
#X connect 55 0 54 1;
#X connect 56 0 57 0;
#X connect 56 1 58 0;
#X connect 57 0 54 1;
#X connect 59 0 61 0;
#X connect 59 0 74 0;
#X connect 59 1 88 0;
#X connect 59 1 82 0;
#X connect 60 0 54 0;
#X connect 61 0 60 0;
#X connect 62 0 63 0;
#X connect 62 1 66 0;
#X connect 63 0 64 0;
#X connect 64 0 65 0;
#X connect 65 0 68 0;
#X connect 65 0 89 0;
#X connect 66 0 67 0;
#X connect 67 0 65 1;
#X connect 68 0 80 0;
#X connect 69 0 77 0;
#X connect 70 0 62 0;
#X connect 71 0 81 0;
#X connect 72 0 85 0;
#X connect 73 0 53 0;
#X connect 74 0 78 0;
#X connect 75 0 86 0;
#X connect 76 0 74 0;
#X connect 77 0 61 0;
#X connect 78 0 75 0;
#X connect 79 0 76 0;
#X connect 80 0 71 0;
#X connect 81 0 90 0;
#X connect 82 0 83 0;
#X connect 83 0 84 0;
#X connect 84 0 78 1;
#X connect 85 0 71 1;
#X connect 85 0 80 1;
#X connect 86 0 72 0;
#X connect 88 0 73 0;
#X connect 94 0 95 0;
#X connect 95 0 96 0;
#X connect 95 0 97 0;
#X connect 96 0 95 1;
#X connect 97 0 125 0;
#X connect 98 0 99 0;
#X connect 99 0 123 0;
#X connect 100 0 94 0;
#X connect 101 0 126 0;
#X connect 102 0 118 0;
#X connect 103 0 101 0;
#X connect 104 0 122 0;
#X connect 105 0 103 1;
#X connect 106 0 103 1;
#X connect 107 0 103 1;
#X connect 108 0 105 0;
#X connect 109 0 110 1;
#X connect 110 0 106 0;
#X connect 111 0 107 0;
#X connect 112 0 108 1;
#X connect 113 0 109 0;
#X connect 113 0 112 0;
#X connect 113 0 121 0;
#X connect 114 0 115 0;
#X connect 114 0 119 0;
#X connect 115 0 114 1;
#X connect 116 0 117 0;
#X connect 117 0 120 0;
#X connect 118 0 116 0;
#X connect 118 1 108 0;
#X connect 118 1 111 0;
#X connect 118 1 110 0;
#X connect 119 0 113 0;
#X connect 120 0 114 0;
#X connect 121 0 111 1;
#X connect 122 0 124 0;
#X connect 123 0 103 0;
#X connect 125 0 98 0;
#X connect 126 0 104 0;
#X connect 130 0 167 0;
#X connect 131 0 132 0;
#X connect 132 0 141 0;
#X connect 133 0 206 0;
#X connect 134 0 186 0;
#X connect 134 1 173 0;
#X connect 134 2 174 0;
#X connect 134 3 175 0;
#X connect 134 4 176 0;
#X connect 135 0 151 0;
#X connect 136 0 137 0;
#X connect 137 0 138 0;
#X connect 138 0 139 0;
#X connect 139 0 185 0;
#X connect 140 0 144 0;
#X connect 141 0 143 0;
#X connect 141 1 210 0;
#X connect 142 0 168 0;
#X connect 143 0 142 0;
#X connect 144 0 187 0;
#X connect 145 0 146 0;
#X connect 146 0 147 0;
#X connect 147 0 150 0;
#X connect 148 0 159 0;
#X connect 149 0 145 0;
#X connect 150 0 161 0;
#X connect 150 0 170 0;
#X connect 151 0 136 0;
#X connect 152 0 144 1;
#X connect 152 0 204 0;
#X connect 153 0 164 0;
#X connect 154 0 155 0;
#X connect 155 0 156 0;
#X connect 156 0 160 0;
#X connect 157 0 211 0;
#X connect 158 0 154 0;
#X connect 159 0 149 0;
#X connect 160 0 146 0;
#X connect 162 0 163 0;
#X connect 163 0 146 0;
#X connect 164 0 150 1;
#X connect 165 0 153 0;
#X connect 166 0 153 0;
#X connect 167 0 131 0;
#X connect 168 0 190 0;
#X connect 169 0 171 0;
#X connect 170 0 169 0;
#X connect 171 0 178 0;
#X connect 171 0 184 0;
#X connect 172 0 182 0;
#X connect 177 0 165 0;
#X connect 179 0 166 0;
#X connect 180 0 135 0;
#X connect 181 0 203 0;
#X connect 182 0 183 0;
#X connect 183 0 184 0;
#X connect 183 0 188 0;
#X connect 185 0 171 0;
#X connect 187 0 202 0;
#X connect 188 0 178 0;
#X connect 189 0 134 0;
#X connect 191 0 197 0;
#X connect 192 0 193 0;
#X connect 193 0 196 0;
#X connect 193 1 194 0;
#X connect 194 0 199 1;
#X connect 195 0 198 0;
#X connect 196 0 195 0;
#X connect 197 0 216 0;
#X connect 198 0 199 0;
#X connect 201 0 134 0;
#X connect 202 0 171 0;
#X connect 203 0 152 0;
#X connect 204 0 140 0;
#X connect 205 0 189 0;
#X connect 206 0 207 0;
#X connect 207 0 205 0;
#X connect 208 0 209 0;
#X connect 209 0 201 0;
#X connect 210 0 190 1;
#X connect 211 0 158 0;
#X connect 212 0 213 0;
#X connect 213 0 215 0;
#X connect 214 0 183 1;
#X connect 215 0 214 0;
#X connect 216 0 192 0;
#X connect 217 0 172 0;
#X coords 0 785 1 784 85 60 0;
