#N canvas 555 17 416 750 10;
#X obj 27 22 tgl 15 0 empty empty empty 17 7 0 10 -262144 -1 -1 0 1
;
#X msg 27 43 \; pd dsp \$1;
#N canvas 0 22 450 300 sub.tanh~ 0;
#X obj 12 12 inlet~;
#X obj 27 64 *~;
#X obj 12 192 outlet~;
#X obj 27 140 /~;
#X obj 12 166 *~;
#X text 92 42 // http://www.musicdsp.org/showone.php?id=238;
#X text 92 62 // y = x * (27 + x^2) / (27 + 9*x^2);
#X obj 27 90 +~ 27;
#X obj 67 116 +~ 27;
#X text 92 22 // pade-approximation of tanh function;
#X obj 12 38 clip~ -3 3;
#X obj 67 90 *~ 9;
#X connect 0 0 10 0;
#X connect 1 0 7 0;
#X connect 1 0 11 0;
#X connect 3 0 4 1;
#X connect 4 0 2 0;
#X connect 7 0 3 0;
#X connect 8 0 3 1;
#X connect 10 0 1 0;
#X connect 10 0 1 1;
#X connect 10 0 4 0;
#X connect 11 0 8 0;
#X restore 27 149 pd sub.tanh~;
#X obj 27 128 *~ 0.9;
#X obj 27 212 dac~ 1;
#X obj 27 191 *~ 0.9;
#X obj 27 170 hip~ 3;
#N canvas 0 22 450 300 sub.tanh~ 0;
#X obj 12 12 inlet~;
#X obj 27 64 *~;
#X obj 12 192 outlet~;
#X obj 27 140 /~;
#X obj 12 166 *~;
#X text 92 42 // http://www.musicdsp.org/showone.php?id=238;
#X text 92 62 // y = x * (27 + x^2) / (27 + 9*x^2);
#X obj 27 90 +~ 27;
#X obj 67 116 +~ 27;
#X text 92 22 // pade-approximation of tanh function;
#X obj 12 38 clip~ -3 3;
#X obj 67 90 *~ 9;
#X connect 0 0 10 0;
#X connect 1 0 7 0;
#X connect 1 0 11 0;
#X connect 3 0 4 1;
#X connect 4 0 2 0;
#X connect 7 0 3 0;
#X connect 8 0 3 1;
#X connect 10 0 1 0;
#X connect 10 0 1 1;
#X connect 10 0 4 0;
#X connect 11 0 8 0;
#X restore 127 149 pd sub.tanh~;
#X obj 127 128 *~ 0.9;
#X obj 127 191 *~ 0.9;
#X obj 127 170 hip~ 3;
#X obj 27 97 catch~ s1;
#X obj 127 212 dac~ 2;
#X obj 16 247 cnv 15 380 460 empty empty empty 20 12 0 14 -158951 -66577
0;
#N canvas 360 158 430 345 rise-fall 0;
#X obj 32 161 abs~;
#X obj 32 182 *~ 4;
#X floatatom 32 98 5 0 0 0 - - -;
#X obj 32 140 -~ 0.8, f 14;
#X obj 32 203 sqrt~;
#X obj 32 224 -~ 1;
#X obj 32 245 abs~;
#X obj 32 296 outlet~;
#X obj 32 47 inlet;
#X obj 113 47 inlet;
#X text 34 17 TIME;
#X text 114 17 SHAPE;
#X text 114 29 (0-1);
#X text 31 30 (0-1);
#X obj 32 119 phasor~ 0.7;
#X obj 162 245 change;
#X obj 162 224 snapshot~;
#X obj 238 210 bang~;
#X obj 162 296 outlet;
#X obj 162 182 expr~ ($v1*100)%2;
#X obj 292 245 change;
#X obj 292 224 snapshot~;
#X obj 292 296 outlet;
#X obj 292 182 expr~ ($v1*100)%2;
#X connect 0 0 1 0;
#X connect 1 0 4 0;
#X connect 2 0 14 0;
#X connect 3 0 0 0;
#X connect 4 0 5 0;
#X connect 5 0 6 0;
#X connect 5 0 19 0;
#X connect 6 0 7 0;
#X connect 8 0 2 0;
#X connect 9 0 3 1;
#X connect 14 0 3 0;
#X connect 14 0 23 0;
#X connect 15 0 18 0;
#X connect 16 0 15 0;
#X connect 17 0 16 0;
#X connect 17 0 21 0;
#X connect 19 0 16 0;
#X connect 20 0 22 0;
#X connect 21 0 20 0;
#X connect 23 0 21 0;
#X restore 128 405 pd rise-fall;
#X obj 200 338 hsl 100 18 0 127 0 0 empty empty SHAPE -2 -8 0 10 -262144
-1 -1 4833 1;
#X obj 197 361 / 127;
#X obj 131 298 hsl 100 18 0 127 0 0 empty empty TIME -2 -8 0 10 -262144
-1 -1 8341 1;
#X obj 128 342 abs;
#X obj 128 321 - 128;
#X obj 128 363 / 128;
#X obj 95 579 noise~;
#X obj 83 515 bang~;
#X obj 128 529 snapshot~;
#X obj 128 508 abs~;
#X obj 162 436 tgl 15 0 empty empty empty 17 7 0 10 -262144 -1 -1 0
1;
#X obj 128 384 pow 2;
#X obj 37 263 loadbang;
#X obj 95 600 lop~, f 6;
#X obj 128 466 *~ 2000;
#X obj 128 487 -~ 520;
#X msg 67 284 62;
#X obj 95 621 *~ 0.7;
#X msg 37 284 107;
#X obj 197 436 tgl 15 0 empty empty empty 17 7 0 10 -262144 -1 -1 1
1;
#X obj 197 601 lop~, f 6;
#N canvas 0 22 359 470 antiSquare 0;
#X obj 19 17 inlet;
#X obj 19 74 phasor~;
#X obj 19 158 *~ 0.064;
#X obj 19 185 rpole~ 0.93538;
#X obj 19 212 *~ 0.00431;
#X obj 19 239 cpole~ 0.96559 0.05592;
#X obj 19 266 cpole~ 0.96559 0.05592;
#X obj 19 293 *~ 0.125;
#X obj 19 320 rzero~ -1;
#X obj 19 347 rzero~ -1;
#X obj 19 374 rzero~ -1;
#X obj 19 431 outlet~;
#X obj 117 401 block~ 1024 1 16;
#X text 200 101 <- oscillator section;
#X text 200 251 <- filtering section;
#X obj 69 17 loadbang;
#X obj 69 44 f \$1;
#X obj 19 101 expr~ ($v1 < $v2) * 2 - 1;
#X obj 166 17 inlet;
#X obj 116 44 f \$2;
#X connect 0 0 1 0;
#X connect 1 0 17 0;
#X connect 2 0 3 0;
#X connect 3 0 4 0;
#X connect 4 0 5 0;
#X connect 5 0 6 0;
#X connect 5 1 6 1;
#X connect 6 0 7 0;
#X connect 7 0 8 0;
#X connect 8 0 9 0;
#X connect 9 0 10 0;
#X connect 10 0 11 0;
#X connect 15 0 16 0;
#X connect 15 0 19 0;
#X connect 16 0 1 0;
#X connect 17 0 2 0;
#X connect 18 0 17 1;
#X connect 19 0 17 1;
#X restore 197 579 pd antiSquare;
#X obj 230 529 snapshot~;
#X obj 230 508 abs~;
#X obj 230 487 +~ 120;
#X msg 272 558 0.3;
#X obj 317 544 loadbang;
#X msg 197 558 110;
#X obj 197 622 *~ 0.4;
#X obj 95 672 throw~ s1;
#X obj 197 672 throw~ s1;
#X obj 230 466 *~ 800;
#X text 29 709 Un generador de ruido y un oscilador de pulso cuyos
filtros [lop~] son controlados por un modulador [pd rise-fall].;
#X connect 0 0 1 0;
#X connect 2 0 6 0;
#X connect 3 0 2 0;
#X connect 5 0 4 0;
#X connect 6 0 5 0;
#X connect 7 0 10 0;
#X connect 8 0 7 0;
#X connect 9 0 12 0;
#X connect 10 0 9 0;
#X connect 11 0 8 0;
#X connect 11 0 3 0;
#X connect 14 0 29 0;
#X connect 14 1 25 0;
#X connect 14 2 34 0;
#X connect 15 0 16 0;
#X connect 16 0 14 1;
#X connect 17 0 19 0;
#X connect 18 0 20 0;
#X connect 19 0 18 0;
#X connect 20 0 26 0;
#X connect 21 0 28 0;
#X connect 22 0 23 0;
#X connect 22 0 37 0;
#X connect 23 0 28 1;
#X connect 24 0 23 0;
#X connect 26 0 14 0;
#X connect 27 0 31 0;
#X connect 27 0 33 0;
#X connect 28 0 32 0;
#X connect 29 0 30 0;
#X connect 30 0 24 0;
#X connect 31 0 15 0;
#X connect 32 0 44 0;
#X connect 33 0 17 0;
#X connect 34 0 46 0;
#X connect 35 0 43 0;
#X connect 36 0 35 0;
#X connect 37 0 35 1;
#X connect 38 0 37 0;
#X connect 39 0 38 0;
#X connect 40 0 36 1;
#X connect 41 0 40 0;
#X connect 41 0 42 0;
#X connect 42 0 36 0;
#X connect 43 0 45 0;
#X connect 46 0 39 0;
