#N canvas 0 22 1920 778 10;
#X obj 20 13 tgl 15 0 empty empty empty 17 7 0 10 -262144 -1 -1 1 1
;
#X msg 20 34 \; pd dsp \$1;
#X obj 20 119 *~ 0.9;
#X obj 20 203 dac~ 1;
#X obj 20 161 hip~ 3;
#X obj 120 119 *~ 0.9;
#X obj 120 161 hip~ 3;
#X obj 20 88 catch~ s1;
#X obj 120 203 dac~ 2;
#X obj 20 238 cnv 15 380 460 empty empty empty 20 12 0 14 -158951 -66577
0;
#N canvas 360 158 628 378 rise-fall 0;
#X obj 32 161 abs~;
#X obj 32 182 *~ 4;
#X floatatom 32 98 5 0 0 0 - - -;
#X obj 32 140 -~ 0.8, f 14;
#X obj 32 203 sqrt~;
#X obj 32 224 -~ 1;
#X obj 32 245 abs~;
#X obj 32 296 outlet~;
#X obj 32 47 inlet;
#X obj 113 47 inlet;
#X text 34 17 TIME;
#X text 114 17 SHAPE;
#X text 114 29 (0-1);
#X text 31 30 (0-1);
#X obj 32 119 phasor~ 0.7;
#X obj 162 245 change;
#X obj 162 224 snapshot~;
#X obj 238 208 bang~;
#X obj 162 296 outlet;
#X obj 162 182 expr~ ($v1*100)%2;
#X obj 292 245 change;
#X obj 292 224 snapshot~;
#X obj 292 296 outlet;
#X obj 292 182 expr~ ($v1*100)%2;
#X obj 412 224 snapshot~;
#X obj 412 245 change;
#X obj 412 296 i;
#X obj 412 317 % 64;
#X obj 442 296 + 1;
#X obj 412 266 sel 1 0;
#X obj 412 182 expr~ ($v1*400)%2;
#X obj 412 338 s \$0-clock;
#X obj 505 290 % 2;
#X obj 505 311 sel 0 1;
#X obj 505 332 timer;
#X obj 505 353 s \$0-ms;
#X obj 557 345 v \$0-ms;
#X floatatom 454 360 5 0 0 0 - - -;
#X connect 0 0 1 0;
#X connect 1 0 4 0;
#X connect 2 0 14 0;
#X connect 3 0 0 0;
#X connect 4 0 5 0;
#X connect 5 0 6 0;
#X connect 5 0 19 0;
#X connect 6 0 7 0;
#X connect 8 0 2 0;
#X connect 9 0 3 1;
#X connect 14 0 3 0;
#X connect 14 0 23 0;
#X connect 14 0 30 0;
#X connect 15 0 18 0;
#X connect 16 0 15 0;
#X connect 17 0 16 0;
#X connect 17 0 21 0;
#X connect 17 0 24 0;
#X connect 19 0 16 0;
#X connect 20 0 22 0;
#X connect 21 0 20 0;
#X connect 23 0 21 0;
#X connect 24 0 25 0;
#X connect 25 0 29 0;
#X connect 26 0 27 0;
#X connect 27 0 28 0;
#X connect 27 0 31 0;
#X connect 27 0 32 0;
#X connect 28 0 26 1;
#X connect 29 0 26 0;
#X connect 29 1 26 0;
#X connect 30 0 24 0;
#X connect 32 0 33 0;
#X connect 33 0 34 0;
#X connect 33 1 34 1;
#X connect 34 0 35 0;
#X connect 34 0 37 0;
#X restore 132 396 pd rise-fall;
#X obj 204 329 hsl 100 18 0 127 0 0 empty empty SHAPE -2 -8 0 10 -262144
-1 -1 4833 1;
#X obj 201 352 / 127;
#X obj 135 289 hsl 100 18 0 127 0 0 empty empty TIME -2 -8 0 10 -262144
-1 -1 8598 1;
#X obj 132 333 abs;
#X obj 132 312 - 128;
#X obj 132 354 / 128;
#X obj 99 570 noise~;
#X obj 77 504 bang~;
#X obj 132 520 snapshot~;
#X obj 132 499 abs~;
#X obj 166 427 tgl 15 0 empty empty empty 17 7 0 10 -262144 -1 -1 0
1;
#X obj 132 375 pow 2;
#X obj 41 254 loadbang;
#X obj 99 591 lop~, f 6;
#X obj 132 457 *~ 2000;
#X obj 132 478 -~ 520;
#X msg 71 275 62;
#X obj 99 612 *~ 0.7;
#X obj 201 427 tgl 15 0 empty empty empty 17 7 0 10 -262144 -1 -1 0
1;
#X obj 201 592 lop~, f 6;
#N canvas 0 22 456 494 antiSquare 0;
#X obj 19 37 inlet;
#X obj 19 94 phasor~;
#X obj 19 178 *~ 0.064;
#X obj 19 205 rpole~ 0.93538;
#X obj 19 232 *~ 0.00431;
#X obj 19 259 cpole~ 0.96559 0.05592;
#X obj 19 286 cpole~ 0.96559 0.05592;
#X obj 19 313 *~ 0.125;
#X obj 19 340 rzero~ -1;
#X obj 19 367 rzero~ -1;
#X obj 19 394 rzero~ -1;
#X obj 19 451 outlet~;
#X obj 117 421 block~ 1024 1 16;
#X obj 136 37 inlet;
#X text 110 357 http://write.flossmanuals.net/pure-data/antialiasing/
;
#X obj 19 121 expr~ ($v1<$v2)*2-1, f 20;
#X text 20 20 FREQ;
#X text 140 20 PWM;
#X connect 0 0 1 0;
#X connect 1 0 15 0;
#X connect 2 0 3 0;
#X connect 3 0 4 0;
#X connect 4 0 5 0;
#X connect 5 0 6 0;
#X connect 5 1 6 1;
#X connect 6 0 7 0;
#X connect 7 0 8 0;
#X connect 8 0 9 0;
#X connect 9 0 10 0;
#X connect 10 0 11 0;
#X connect 13 0 15 1;
#X connect 15 0 2 0;
#X restore 201 570 pd antiSquare;
#X obj 234 520 snapshot~;
#X obj 234 499 abs~;
#X obj 234 478 +~ 120;
#X msg 276 549 0.3;
#X obj 321 535 loadbang;
#X obj 234 457 *~ 800;
#X text 33 700 Un generador de ruido y un oscilador de pulso cuyos
filtros [lop~] son controlados por un modulador [pd rise-fall].;
#N canvas 0 22 450 300 tanh~ 0;
#X obj 12 12 inlet~;
#X obj 27 64 *~;
#X obj 12 192 outlet~;
#X obj 27 140 /~;
#X obj 12 166 *~;
#X text 92 42 // http://www.musicdsp.org/showone.php?id=238;
#X text 92 62 // y = x * (27 + x^2) / (27 + 9*x^2);
#X obj 27 90 +~ 27;
#X obj 67 116 +~ 27;
#X text 92 22 // pade-approximation of tanh function;
#X obj 12 38 clip~ -3 3;
#X obj 67 90 *~ 9;
#X connect 0 0 10 0;
#X connect 1 0 7 0;
#X connect 1 0 11 0;
#X connect 3 0 4 1;
#X connect 4 0 2 0;
#X connect 7 0 3 0;
#X connect 8 0 3 1;
#X connect 10 0 1 0;
#X connect 10 0 1 1;
#X connect 10 0 4 0;
#X connect 11 0 8 0;
#X restore 20 140 pd tanh~;
#N canvas 0 22 450 300 tanh~ 0;
#X obj 12 12 inlet~;
#X obj 27 64 *~;
#X obj 12 192 outlet~;
#X obj 27 140 /~;
#X obj 12 166 *~;
#X text 92 42 // http://www.musicdsp.org/showone.php?id=238;
#X text 92 62 // y = x * (27 + x^2) / (27 + 9*x^2);
#X obj 27 90 +~ 27;
#X obj 67 116 +~ 27;
#X text 92 22 // pade-approximation of tanh function;
#X obj 12 38 clip~ -3 3;
#X obj 67 90 *~ 9;
#X connect 0 0 10 0;
#X connect 1 0 7 0;
#X connect 1 0 11 0;
#X connect 3 0 4 1;
#X connect 4 0 2 0;
#X connect 7 0 3 0;
#X connect 8 0 3 1;
#X connect 10 0 1 0;
#X connect 10 0 1 1;
#X connect 10 0 4 0;
#X connect 11 0 8 0;
#X restore 120 140 pd tanh~;
#X obj 430 238 cnv 15 380 460 empty empty empty 20 12 0 14 -194588
-66577 0;
#X obj 438 287 loadbang;
#X msg 438 308 0 2 4 5 7 9 11;
#X obj 438 329 array set \$0-scale;
#X obj 438 266 array define -k \$0-scale 7;
#A 0 0 2 4 5 7 9 11;
#X text 438 246 // Define y escribe la escala de Do mayor;
#X obj 595 323 r \$0-clock;
#X obj 622 407 sel 0;
#X obj 560 465 +;
#X obj 590 465 i;
#X obj 622 428 t b b;
#X msg 575 444 0;
#X obj 649 471 s \$0-seed;
#X obj 595 344 t b f;
#X obj 560 421 - 2;
#X obj 560 400 random 5;
#X obj 560 507 t f f;
#X obj 560 528 % 7;
#X obj 560 549 tabread \$0-scale;
#X obj 560 570 +;
#X obj 667 523 div 7;
#X obj 667 554 * 12;
#X obj 560 591 mtof;
#X obj 502 353 r \$0-seed;
#X obj 560 486 + 40;
#X obj 560 633 *~;
#X obj 721 596 vline~;
#X obj 622 386 % 8;
#X obj 721 512 random 100;
#X obj 721 554 sel 1;
#X msg 721 491 seed 54;
#X msg 502 374 seed 5;
#X obj 721 533 < 100;
#X obj 721 471 r \$0-seed;
#N canvas 602 202 401 319 pulse-sinewave 0;
#X obj 17 67 inlet;
#X obj 17 262 outlet~;
#X obj 17 194 -~ 0.25;
#X obj 17 215 cos~;
#X obj 17 236 *~;
#N canvas 0 22 312 266 square-window 0;
#X obj 12 114 clip~ 0 1;
#X obj 12 66 -~;
#X obj 12 136 *~ -1;
#X obj 12 157 +~ 1;
#X obj 12 31 inlet~;
#X obj 152 47 inlet~;
#X obj 12 179 outlet~;
#X text 62 146 <= Invert Phase/Polarity;
#X text 152 27 (I2) Pulse Width;
#X text 12 11 (I1) Phasor Input;
#X text 12 199 (O1) Square Wave Window (0 to 1);
#X obj 12 90 *~ 1e+06;
#X connect 0 0 2 0;
#X connect 1 0 11 0;
#X connect 2 0 3 0;
#X connect 3 0 6 0;
#X connect 4 0 1 0;
#X connect 5 0 1 1;
#X connect 11 0 0 0;
#X restore 76 220 pd square-window;
#X obj 17 144 *~;
#X obj 96 108 sig~ 1;
#X obj 96 129 /~;
#X obj 169 92 sig~ 2;
#X obj 169 113 pow~;
#X obj 17 123 phasor~;
#X obj 213 55 inlet~;
#X obj 213 76 *~;
#X obj 263 39 /~ 2;
#X obj 263 60 +~ 0.5;
#X obj 213 97 *~;
#X obj 263 18 osc~ 0.2;
#X obj 325 18 osc~ 0.05;
#X obj 325 39 /~ 2;
#X obj 325 60 +~ 0.5;
#X obj 325 81 *~ -8;
#X connect 0 0 11 0;
#X connect 2 0 3 0;
#X connect 3 0 4 0;
#X connect 4 0 1 0;
#X connect 5 0 4 1;
#X connect 6 0 2 0;
#X connect 7 0 8 0;
#X connect 8 0 6 1;
#X connect 9 0 10 0;
#X connect 10 0 8 1;
#X connect 10 0 5 1;
#X connect 11 0 5 0;
#X connect 11 0 6 0;
#X connect 12 0 13 0;
#X connect 13 0 16 0;
#X connect 14 0 15 0;
#X connect 15 0 13 1;
#X connect 16 0 10 1;
#X connect 17 0 14 0;
#X connect 18 0 19 0;
#X connect 19 0 20 0;
#X connect 20 0 21 0;
#X connect 21 0 16 1;
#X restore 560 612 pd pulse-sinewave;
#X obj 748 403 div 32;
#X obj 748 424 * 25;
#X obj 748 445 + 75;
#X obj 721 617 pow~ 2;
#X msg 721 575 1 1 \, 0 250 1;
#X text 443 700 Un generador de sequencia en escala mayor con un oscilador
senoidal con la capacidad de modular su pulso.;
#X obj 622 365 + 1;
#X obj 480 591 s midinote;
#X obj 840 238 cnv 15 380 460 empty empty empty 20 12 0 14 -158951
-66577 0;
#X obj 901 289 sel 1;
#X obj 901 310 f;
#X obj 941 311 + 1;
#X obj 901 331 % 3;
#X obj 901 373 random 100;
#X obj 901 394 moses 35;
#X obj 901 268 abs;
#X obj 901 530 mtof;
#X obj 1021 268 r midinote;
#X obj 901 509 f, f 15;
#X obj 901 572 line;
#X obj 918 478 - 12;
#X obj 988 478 - 7;
#X obj 1058 478 - 5;
#X obj 918 457 spigot;
#X obj 1021 436 == 1;
#X obj 988 457 spigot;
#X obj 1058 457 spigot;
#X obj 951 436 == 0;
#X obj 1021 415 hradio 15 1 0 3 empty empty empty 0 -8 0 10 -262144
-1 -1 1;
#X obj 1021 373 f;
#X obj 1051 373 + 1;
#X obj 1021 310 bang;
#X obj 1021 331 random 100;
#X obj 1021 289 t b f;
#X obj 1021 394 % 3;
#X obj 1021 352 moses 30;
#X obj 1091 436 == 2;
#N canvas 384 160 373 561 ringTriangles 0;
#X obj 31 293 noise~;
#X obj 154 209 phasor~;
#X obj 154 230 -~ 0.5;
#X obj 154 251 abs~;
#X obj 154 272 *~ 4;
#X obj 154 293 -~ 1;
#X obj 91 209 phasor~;
#X obj 91 230 -~ 0.5;
#X obj 91 251 abs~;
#X obj 91 272 *~ 4;
#X obj 91 293 -~ 1;
#X obj 91 314 *~, f 11;
#X obj 154 96 t b f f, f 12;
#N canvas 419 352 400 392 centTuner 0;
#X obj 56 180 /, f 7;
#X obj 95 159 expr log10(2);
#X msg 56 159 1200;
#X obj 56 138 t b b, f 7;
#X obj 29 201 /, f 5;
#X obj 29 222 expr pow(10 \, $f1);
#X obj 86 264 expr pow($f1 \, 1);
#X obj 29 243 t b f, f 10;
#X obj 29 285 *, f 10;
#X obj 29 264 f, f 7;
#X obj 29 117 t f b;
#X obj 29 35 inlet;
#X obj 68 35 inlet;
#X obj 29 346 outlet;
#X text 69 18 f(R);
#X text 30 18 CENT;
#X text 110 318 Musimatics Vol.1 Section 3.4: The Cent Scale;
#X connect 0 0 4 1;
#X connect 1 0 0 1;
#X connect 2 0 0 0;
#X connect 3 0 2 0;
#X connect 3 1 1 0;
#X connect 4 0 5 0;
#X connect 5 0 7 0;
#X connect 6 0 8 1;
#X connect 7 0 9 0;
#X connect 7 1 6 0;
#X connect 8 0 13 0;
#X connect 9 0 8 0;
#X connect 10 0 4 0;
#X connect 10 1 3 0;
#X connect 11 0 10 0;
#X connect 12 0 9 1;
#X restore 154 167 pd centTuner;
#X obj 154 188 sig~;
#X obj 91 188 sig~;
#X obj 154 35 inlet;
#X obj 91 521 outlet~;
#X text 155 18 FREQ;
#X obj 91 460 *~, f 21;
#X obj 214 376 -~ 0.5;
#X obj 214 397 abs~;
#X obj 214 418 *~ 4;
#X obj 214 439 -~ 1;
#X obj 214 355 phasor~ 0.028;
#X obj 247 100 snapshot~;
#X obj 297 71 bang~;
#X obj 247 50 abs~;
#X obj 247 121 - 1960;
#X obj 154 143 f, f 16;
#X obj 91 355 lop~, f 17;
#X obj 247 29 osc~ 0.02;
#X obj 190 314 + 1000;
#X obj 31 314 *~ 0.022;
#X obj 247 71 *~ 120;
#X obj 91 481 *~ 1;
#X connect 0 0 33 0;
#X connect 1 0 2 0;
#X connect 2 0 3 0;
#X connect 3 0 4 0;
#X connect 4 0 5 0;
#X connect 5 0 11 1;
#X connect 6 0 7 0;
#X connect 7 0 8 0;
#X connect 8 0 9 0;
#X connect 9 0 10 0;
#X connect 10 0 11 0;
#X connect 11 0 30 0;
#X connect 12 0 29 0;
#X connect 12 1 15 0;
#X connect 12 2 13 1;
#X connect 12 2 32 0;
#X connect 13 0 14 0;
#X connect 14 0 1 0;
#X connect 15 0 6 0;
#X connect 16 0 12 0;
#X connect 19 0 35 0;
#X connect 20 0 21 0;
#X connect 21 0 22 0;
#X connect 22 0 23 0;
#X connect 23 0 19 1;
#X connect 24 0 20 0;
#X connect 25 0 28 0;
#X connect 26 0 25 0;
#X connect 27 0 34 0;
#X connect 28 0 29 1;
#X connect 29 0 13 0;
#X connect 30 0 19 0;
#X connect 31 0 27 0;
#X connect 32 0 30 1;
#X connect 33 0 30 0;
#X connect 34 0 25 0;
#X connect 35 0 17 0;
#X restore 901 593 pd ringTriangles;
#X obj 901 415 bang;
#X obj 901 352 sel 2;
#X obj 901 551 pack 0 40;
#X text 853 700 Dos osciladores de onda triangular con modulación
de anillo cuya amplitud es controlada por otro oscilador triangular.
;
#X obj 1250 238 cnv 15 380 460 empty empty empty 20 12 0 14 -194588
-66577 0;
#N canvas 0 22 450 278 (subpatch) 0;
#X array \$0-rytm-1 16 float 3;
#A 0 0 0 2 3 3 2 1 0 0 3 4 0 0 0 1 0;
#X coords 0 4 16 0 100 50 1 0 0;
#X restore 1492 242 graph;
#X obj 1264 273 r \$0-clock;
#X msg 1264 315 4;
#X obj 1264 336 until;
#X obj 1344 205 r \$0-clock;
#X obj 1344 316 sel 0 1 2 3 4;
#X obj 1280 537 sqrt~;
#X obj 1280 579 -~ 0.25;
#X obj 1280 600 cos~;
#X obj 1371 558 cos~;
#X obj 1264 357 t b b;
#X obj 1264 400 - 4;
#X obj 1264 379 random 9;
#X obj 1371 579 *~;
#X obj 1466 429 phasor~;
#X obj 1466 450 -~ 0.25;
#X obj 1466 471 cos~;
#X obj 1466 365 loadbang;
#X obj 1466 407 /;
#X obj 1466 494 *~;
#X obj 1280 516 line~;
#X obj 1370 516 line~;
#X obj 1543 497 line~;
#X obj 1525 363 phasor~;
#X obj 1525 384 -~ 0.25;
#X obj 1525 405 cos~;
#X obj 1526 300 loadbang;
#X obj 1525 341 /;
#X obj 1525 426 *~ 100;
#X obj 1408 536 s~ \$0-fbk;
#X obj 1576 385 r~ \$0-fbk;
#X obj 1576 406 *~ 0.25;
#X obj 1264 294 sel 0;
#X obj 1264 421 max 0;
#N canvas 0 22 450 300 tanh~ 0;
#X obj 12 12 inlet~;
#X obj 27 64 *~;
#X obj 12 192 outlet~;
#X obj 27 140 /~;
#X obj 12 166 *~;
#X text 92 42 // http://www.musicdsp.org/showone.php?id=238;
#X text 92 62 // y = x * (27 + x^2) / (27 + 9*x^2);
#X obj 27 90 +~ 27;
#X obj 67 116 +~ 27;
#X text 92 22 // pade-approximation of tanh function;
#X obj 12 38 clip~ -3 3;
#X obj 67 90 *~ 9;
#X connect 0 0 10 0;
#X connect 1 0 7 0;
#X connect 1 0 11 0;
#X connect 3 0 4 1;
#X connect 4 0 2 0;
#X connect 7 0 3 0;
#X connect 8 0 3 1;
#X connect 10 0 1 0;
#X connect 10 0 1 1;
#X connect 10 0 4 0;
#X connect 11 0 8 0;
#X restore 1281 645 pd tanh~;
#X obj 1379 357 s \$0-snr;
#X obj 1399 377 s \$0-chh;
#X obj 1419 337 s \$0-ohh;
#X obj 1543 455 bng 15 100 50 0 empty \$0-chh empty 17 7 0 10 -262144
-1 -1;
#X obj 1603 455 bng 15 100 50 0 empty \$0-ohh empty 17 7 0 10 -262144
-1 -1;
#X obj 1280 474 bng 15 100 50 0 empty \$0-kik empty 17 7 0 10 -262144
-1 -1;
#X obj 1370 474 bng 15 100 50 0 empty \$0-snr empty 17 7 0 10 -262144
-1 -1;
#X obj 1351 648 vd~ \$0-stutter;
#X obj 1352 671 *~;
#X obj 1344 377 s \$0-stut;
#X obj 1344 295 tabread \$0-rytm-1;
#X obj 1264 442 tabwrite \$0-rytm-1;
#N canvas 0 22 450 278 (subpatch) 0;
#X array \$0-rytm-2 16 float 3;
#A 0 3 3 1 0 0 0 0 0 1 4 0 3 1 0 1 0;
#X coords 0 4 16 0 100 50 1 0 0;
#X restore 1492 162 graph;
#X obj 1374 277 tabread \$0-rytm-2;
#X msg 1370 495 1 \, 0 50;
#X obj 1371 537 *~ 15;
#X obj 1344 273 % 8;
#X obj 1344 247 change;
#X obj 1411 222 r \$0-clock;
#X obj 1411 253 % 16;
#X obj 1306 421 random 8;
#X msg 1525 320 44100 53;
#X obj 1445 592 r \$0-stut;
#X obj 1445 613 v \$0-ms;
#X obj 1445 655 vline~;
#X text 1272 732 Drum Machine con stutter;
#X obj 1435 726 delwrite~ \$0-stutter 200;
#X obj 1280 558 *~ 10;
#X obj 1280 621 lop~ 1000;
#X obj 201 613 *~ 0.5;
#X msg 201 549 110;
#X obj 1466 515 hip~ 9999;
#X msg 1543 475 1 \, 0 100;
#X obj 1536 527 pow~ 4;
#X msg 1466 386 44100 8;
#X obj 1371 600 lop~ 8000;
#X obj 230 98 *~ 0.9;
#X obj 230 140 hip~ 3;
#X obj 305 98 *~ 0.9;
#X obj 305 140 hip~ 3;
#N canvas 0 22 450 300 tanh~ 0;
#X obj 12 12 inlet~;
#X obj 27 64 *~;
#X obj 12 192 outlet~;
#X obj 27 140 /~;
#X obj 12 166 *~;
#X text 92 42 // http://www.musicdsp.org/showone.php?id=238;
#X text 92 62 // y = x * (27 + x^2) / (27 + 9*x^2);
#X obj 27 90 +~ 27;
#X obj 67 116 +~ 27;
#X text 92 22 // pade-approximation of tanh function;
#X obj 12 38 clip~ -3 3;
#X obj 67 90 *~ 9;
#X connect 0 0 10 0;
#X connect 1 0 7 0;
#X connect 1 0 11 0;
#X connect 3 0 4 1;
#X connect 4 0 2 0;
#X connect 7 0 3 0;
#X connect 8 0 3 1;
#X connect 10 0 1 0;
#X connect 10 0 1 1;
#X connect 10 0 4 0;
#X connect 11 0 8 0;
#X restore 230 119 pd tanh~;
#N canvas 0 22 450 300 tanh~ 0;
#X obj 12 12 inlet~;
#X obj 27 64 *~;
#X obj 12 192 outlet~;
#X obj 27 140 /~;
#X obj 12 166 *~;
#X text 92 42 // http://www.musicdsp.org/showone.php?id=238;
#X text 92 62 // y = x * (27 + x^2) / (27 + 9*x^2);
#X obj 27 90 +~ 27;
#X obj 67 116 +~ 27;
#X text 92 22 // pade-approximation of tanh function;
#X obj 12 38 clip~ -3 3;
#X obj 67 90 *~ 9;
#X connect 0 0 10 0;
#X connect 1 0 7 0;
#X connect 1 0 11 0;
#X connect 3 0 4 1;
#X connect 4 0 2 0;
#X connect 7 0 3 0;
#X connect 8 0 3 1;
#X connect 10 0 1 0;
#X connect 10 0 1 1;
#X connect 10 0 4 0;
#X connect 11 0 8 0;
#X restore 305 119 pd tanh~;
#N canvas 30 22 618 693 panner 0;
#X obj 94 424 sqrt 0;
#X msg 94 501 \$1 500;
#X msg 294 501 \$1 500;
#X floatatom 312 448 5 0 0 0 - - -;
#X obj 294 424 sqrt 0;
#X floatatom 112 448 5 0 0 0 - - -;
#X obj 319 79 t b f;
#X obj 169 133 f;
#X text 192 167 lo-panVal;
#X text 354 167 hi-panVal;
#X obj 169 167 -;
#X obj 331 167 +;
#X obj 187 211 -;
#X obj 187 235 + 1;
#X obj 154 260 random;
#X obj 154 284 +;
#X obj 94 247 bng 15 100 50 0 empty empty empty 17 7 0 10 -262144 -1
-1;
#X text 194 260 randomRange: random()*((max-min)+1)+min;
#X obj 79 579 *~;
#X obj 94 525 line~;
#X obj 294 525 line~;
#X obj 279 579 *~;
#X obj 346 103 expr ($f1-0)*(64-0)/(100-0)+0;
#X obj 154 318 / 127;
#X msg 94 376 1;
#X obj 94 400 -;
#X obj 94 352 t b f;
#X obj 294 477 min 1;
#X obj 94 477 min 1;
#X text 267 123 map: (inVal-inMin)*(outMax-outMin)/(inMax-inMin)+outMin
;
#X obj 79 643 outlet~;
#X obj 279 643 outlet~;
#X text 234 341 based on Matthew Davidson's 2013 Signal-controlled
granular oscillator: Beap Granular.;
#X obj 49 555 inlet~;
#X obj 249 555 inlet~;
#X obj 94 175 loadbang;
#X msg 169 55 64;
#X obj 229 18 loadbang;
#X text 147 55 PAN;
#X text 267 55 MOVEMENT;
#X msg 319 55 25;
#X obj 94 223 metro 800;
#X msg 94 199 1;
#X connect 0 0 5 0;
#X connect 0 0 28 0;
#X connect 1 0 19 0;
#X connect 2 0 20 0;
#X connect 4 0 3 0;
#X connect 4 0 27 0;
#X connect 6 0 7 0;
#X connect 6 1 22 0;
#X connect 7 0 10 0;
#X connect 7 0 11 0;
#X connect 10 0 12 1;
#X connect 10 0 15 1;
#X connect 11 0 12 0;
#X connect 12 0 13 0;
#X connect 13 0 14 1;
#X connect 14 0 15 0;
#X connect 15 0 23 0;
#X connect 16 0 14 0;
#X connect 18 0 30 0;
#X connect 19 0 18 1;
#X connect 20 0 21 1;
#X connect 21 0 31 0;
#X connect 22 0 10 1;
#X connect 22 0 11 1;
#X connect 23 0 4 0;
#X connect 23 0 26 0;
#X connect 24 0 25 0;
#X connect 25 0 0 0;
#X connect 26 0 24 0;
#X connect 26 1 25 1;
#X connect 27 0 2 0;
#X connect 28 0 1 0;
#X connect 33 0 18 0;
#X connect 34 0 21 0;
#X connect 35 0 42 0;
#X connect 36 0 7 0;
#X connect 37 0 36 0;
#X connect 37 0 40 0;
#X connect 40 0 6 0;
#X connect 41 0 16 0;
#X connect 42 0 41 0;
#X restore 230 182 pd panner;
#X f 13;
#X obj 201 664 throw~ s1;
#X obj 1281 716 throw~ s1;
#X obj 20 182 *~ 0.9;
#X obj 120 182 *~ 0.9;
#X obj 230 161 *~ 0.8;
#X obj 305 161 *~ 0.8;
#X floatatom 82 312 5 0 0 0 - - -;
#X msg 41 305 110.3;
#X msg 1280 495 0 \, 1 100;
#X obj 1660 178 cnv 15 420 520 empty empty empty 20 12 0 14 -158951
-66577 0;
#X obj 1264 13 r \$0-clock;
#X obj 1264 76 until;
#X obj 1264 97 t b b;
#X obj 1306 161 random 16;
#X obj 1264 140 - 4;
#X obj 1264 119 random 9;
#X obj 1264 34 sel 0;
#X obj 1264 161 max 0;
#X obj 1264 182 tabwrite \$0-rytm-2;
#X msg 1264 55 8;
#N canvas 0 22 456 494 antiSquare 0;
#X obj 19 37 inlet;
#X obj 19 94 phasor~;
#X obj 19 178 *~ 0.064;
#X obj 19 205 rpole~ 0.93538;
#X obj 19 232 *~ 0.00431;
#X obj 19 259 cpole~ 0.96559 0.05592;
#X obj 19 286 cpole~ 0.96559 0.05592;
#X obj 19 313 *~ 0.125;
#X obj 19 340 rzero~ -1;
#X obj 19 367 rzero~ -1;
#X obj 19 394 rzero~ -1;
#X obj 19 451 outlet~;
#X obj 117 421 block~ 1024 1 16;
#X obj 136 37 inlet;
#X text 110 357 http://write.flossmanuals.net/pure-data/antialiasing/
;
#X obj 19 121 expr~ ($v1<$v2)*2-1, f 20;
#X text 20 20 FREQ;
#X text 140 20 PWM;
#X connect 0 0 1 0;
#X connect 1 0 15 0;
#X connect 2 0 3 0;
#X connect 3 0 4 0;
#X connect 4 0 5 0;
#X connect 5 0 6 0;
#X connect 5 1 6 1;
#X connect 6 0 7 0;
#X connect 7 0 8 0;
#X connect 8 0 9 0;
#X connect 9 0 10 0;
#X connect 10 0 11 0;
#X connect 13 0 15 1;
#X connect 15 0 2 0;
#X restore 1815 554 pd antiSquare;
#X obj 1815 668 throw~ s1;
#X obj 1815 533 mtof;
#X obj 1815 491 list store, f 12;
#X obj 1734 429 hradio 15 1 0 8 empty empty empty 0 -8 0 10 -262144
-1 -1 7;
#X msg 1884 470 76 79 76 78 76 76 76 76;
#X msg 1815 470 get \$1 1;
#X obj 1734 449 t f f, f 14;
#X obj 1734 190 r \$0-clock;
#X obj 1734 366 bang;
#X obj 1734 387 f;
#X obj 1774 387 + 1;
#X msg 1774 367 0;
#X obj 1734 408 % 8;
#X obj 1815 596 *~, f 9;
#X obj 1734 491 line~;
#X obj 1734 336 sel 15 21 31 37;
#X obj 1674 315 % 16;
#X obj 1674 336 sel 1 11;
#X obj 1815 647 +~;
#X obj 1830 626 delread~ anti 270;
#X obj 1945 626 delwrite~ anti 270;
#X obj 1815 512 - 7;
#X msg 1890 533 0.8;
#X obj 1734 315 spigot;
#X obj 1767 211 sel 0;
#X obj 1767 232 f;
#X obj 1799 231 + 1;
#X obj 1767 253 % 2;
#X obj 1767 274 sel 0;
#X obj 1674 357 s \$0-kik;
#X obj 1923 419 loadbang;
#X obj 99 663 throw~ panner;
#X obj 901 674 throw~ s1;
#X obj 1767 295 tgl 15 0 empty empty empty 17 7 0 10 -262144 -1 -1
0 1;
#N canvas 0 22 483 412 karplus 0;
#X obj 22 209 noise~;
#X obj 22 230 *~, f 9;
#X obj 184 111 mtof;
#X obj 73 203 line~;
#X obj 184 153 sig~;
#X obj 184 174 delread4~ stringdel;
#X obj 184 237 *~ 0.9;
#X obj 184 132 expr 1000/$f1;
#X obj 184 285 +~;
#X obj 184 195 *~ 0.99;
#X obj 157 29 inlet;
#X text 147 12 MIDI NOTE;
#X obj 184 367 outlet~;
#X obj 157 50 t b f;
#X obj 22 251 delwrite~ stringdel 800;
#X obj 184 216 lop~ 4000;
#X msg 73 182 1 \, 0 40;
#X obj 199 264 delread~ adelay 400;
#X obj 334 264 delwrite~ adelay 400;
#X obj 184 306 *~ 0.5;
#X connect 0 0 1 0;
#X connect 1 0 14 0;
#X connect 2 0 7 0;
#X connect 3 0 1 1;
#X connect 4 0 5 0;
#X connect 5 0 9 0;
#X connect 6 0 8 0;
#X connect 6 0 18 0;
#X connect 7 0 4 0;
#X connect 8 0 19 0;
#X connect 9 0 15 0;
#X connect 10 0 13 0;
#X connect 13 0 16 0;
#X connect 13 1 2 0;
#X connect 15 0 6 0;
#X connect 15 0 14 0;
#X connect 16 0 3 0;
#X connect 17 0 8 1;
#X connect 19 0 12 0;
#X restore 1923 354 pd karplus;
#X obj 1923 375 throw~ panner;
#X obj 1815 575 lop~ 1000;
#X obj 1923 333 - 24;
#X msg 1734 470 0.4 \, 0 800;
#X text 1703 700 Una secuencia drigida a un oscilador de pulso y karplus.
;
#X obj 1538 549 r \$0-stut;
#X obj 1538 612 v \$0-ms;
#X obj 1538 591 t b f;
#X obj 1538 653 /;
#X obj 1587 598 + 1;
#X obj 1538 633 * 2;
#X obj 1412 682 hip~ 100;
#X obj 1466 536 hip~ 2000;
#X msg 1604 475 1 \, 0 200;
#X obj 1319 513 noise~;
#X obj 1319 534 *~ 0.02;
#X obj 1344 226 div 1;
#X obj 1453 311 sel 0;
#X obj 1538 570 random 8;
#X obj 404 27 cnv 15 700 200 empty empty empty 20 12 0 14 -194588 -66577
0;
#X obj 1595 667 lop~ 1000;
#X obj 413 42 r \$0-clock;
#X obj 1371 621 *~ 1.5;
#X obj 1784 315 s tgl;
#X obj 487 26 r tgl;
#X msg 487 47 1 \$1;
#X obj 487 68 -;
#X obj 413 84 spigot;
#X obj 413 105 random 101;
#X obj 413 147 sel 1;
#X obj 413 189 + 64;
#X obj 413 63 bang;
#X obj 413 210 s \$0-delay;
#X obj 937 30 r \$0-delay;
#X obj 937 51 / 44.1;
#X obj 937 112 vd~ \$0-supah;
#X obj 937 197 delwrite~ \$0-supah 100;
#X obj 937 133 lop~ 6000;
#X obj 484 115 s \$0-g-trg;
#X obj 549 34 r \$0-g-trg;
#X obj 549 55 random 10;
#X obj 549 76 + 1;
#X obj 549 97 t b f;
#X obj 549 118 v \$0-ms;
#X obj 549 139 * 2;
#X obj 549 160 /;
#X msg 623 44 0 \, 1 \$1;
#X obj 623 65 vline~;
#X obj 677 4 r \$0-g-trg;
#X obj 668 114 r \$0-g-trg;
#X obj 668 135 random 40;
#X obj 668 156 + 5;
#X obj 623 86 pow~;
#X obj 623 107 *~;
#X obj 623 128 -~ 0.25;
#X obj 623 149 cos~;
#X obj 677 25 random 101;
#X obj 677 46 / 100;
#X obj 677 67 pow 2;
#X obj 677 88 + 0.5;
#X obj 937 93 line~;
#X obj 413 126 < 50;
#X obj 937 154 hip~ 100;
#X obj 937 72 pack f f;
#X obj 817 96 -~ 0.25;
#X obj 817 117 cos~;
#X obj 623 200 /~ 3;
#X obj 732 142 r \$0-g-trg;
#X obj 732 163 random 10;
#X obj 732 184 + 1;
#X obj 817 138 lop~ 3000;
#N canvas 0 22 450 300 tanh~ 0;
#X obj 12 12 inlet~;
#X obj 27 64 *~;
#X obj 12 192 outlet~;
#X obj 27 140 /~;
#X obj 12 166 *~;
#X text 92 42 // http://www.musicdsp.org/showone.php?id=238;
#X text 92 62 // y = x * (27 + x^2) / (27 + 9*x^2);
#X obj 27 90 +~ 27;
#X obj 67 116 +~ 27;
#X text 92 22 // pade-approximation of tanh function;
#X obj 12 38 clip~ -3 3;
#X obj 67 90 *~ 9;
#X connect 0 0 10 0;
#X connect 1 0 7 0;
#X connect 1 0 11 0;
#X connect 3 0 4 1;
#X connect 4 0 2 0;
#X connect 7 0 3 0;
#X connect 8 0 3 1;
#X connect 10 0 1 0;
#X connect 10 0 1 1;
#X connect 10 0 4 0;
#X connect 11 0 8 0;
#X restore 803 165 pd tanh~;
#X obj 937 174 *~ 0.7;
#X obj 413 168 random 2000;
#X obj 496 185 + 1;
#X obj 495 138 bang;
#X obj 496 207 * 500;
#X obj 496 164 random 8;
#X text 757 10 Random generador de bleeps con comb filter feedback
;
#X obj 560 675 throw~ panner;
#X obj 230 73 catch~ panner;
#X obj 1302 688 /~ 2;
#X obj 1281 666 *~ 0.5;
#X obj 1595 646 *~ 1;
#X obj 803 207 throw~ s1;
#X obj 803 186 *~ 0.2;
#X msg 1445 634 0.9 1 \, 0 1 \$1;
#X obj 560 654 *~ 0.4;
#X obj 1466 556 /~ 6;
#X obj 1412 703 lop~ 8000;
#X connect 0 0 1 0;
#X connect 2 0 39 0;
#X connect 4 0 199 0;
#X connect 5 0 40 0;
#X connect 6 0 200 0;
#X connect 7 0 5 0;
#X connect 7 0 2 0;
#X connect 10 0 25 0;
#X connect 10 1 21 0;
#X connect 10 2 29 0;
#X connect 11 0 12 0;
#X connect 12 0 10 1;
#X connect 13 0 15 0;
#X connect 13 0 203 0;
#X connect 14 0 16 0;
#X connect 15 0 14 0;
#X connect 16 0 22 0;
#X connect 17 0 24 0;
#X connect 18 0 19 0;
#X connect 18 0 32 0;
#X connect 19 0 24 1;
#X connect 20 0 19 0;
#X connect 21 0 91 0;
#X connect 22 0 10 0;
#X connect 23 0 27 0;
#X connect 23 0 204 0;
#X connect 24 0 28 0;
#X connect 25 0 26 0;
#X connect 26 0 20 0;
#X connect 27 0 11 0;
#X connect 28 0 249 0;
#X connect 29 0 37 0;
#X connect 30 0 183 0;
#X connect 31 0 30 0;
#X connect 32 0 30 1;
#X connect 33 0 32 0;
#X connect 34 0 33 0;
#X connect 35 0 31 1;
#X connect 36 0 35 0;
#X connect 36 0 184 0;
#X connect 37 0 34 0;
#X connect 39 0 4 0;
#X connect 40 0 6 0;
#X connect 42 0 43 0;
#X connect 43 0 44 0;
#X connect 47 0 54 0;
#X connect 48 0 51 0;
#X connect 49 0 50 0;
#X connect 49 0 65 0;
#X connect 50 0 49 1;
#X connect 51 0 52 0;
#X connect 51 1 53 0;
#X connect 52 0 49 1;
#X connect 54 0 56 0;
#X connect 54 0 69 0;
#X connect 54 1 82 0;
#X connect 54 1 76 0;
#X connect 55 0 49 0;
#X connect 56 0 55 0;
#X connect 57 0 58 0;
#X connect 57 1 61 0;
#X connect 58 0 59 0;
#X connect 59 0 60 0;
#X connect 60 0 63 0;
#X connect 60 0 83 0;
#X connect 61 0 62 0;
#X connect 62 0 60 1;
#X connect 63 0 75 0;
#X connect 64 0 72 0;
#X connect 65 0 57 0;
#X connect 66 0 340 0;
#X connect 67 0 79 0;
#X connect 68 0 48 0;
#X connect 69 0 73 0;
#X connect 70 0 80 0;
#X connect 71 0 69 0;
#X connect 72 0 56 0;
#X connect 73 0 70 0;
#X connect 74 0 71 0;
#X connect 75 0 66 0;
#X connect 76 0 77 0;
#X connect 77 0 78 0;
#X connect 78 0 73 1;
#X connect 79 0 66 1;
#X connect 79 0 75 1;
#X connect 80 0 67 0;
#X connect 82 0 68 0;
#X connect 85 0 86 0;
#X connect 86 0 87 0;
#X connect 86 0 88 0;
#X connect 87 0 86 1;
#X connect 88 0 115 0;
#X connect 89 0 90 0;
#X connect 90 0 114 0;
#X connect 91 0 85 0;
#X connect 92 0 116 0;
#X connect 93 0 109 0;
#X connect 94 0 92 0;
#X connect 95 0 113 0;
#X connect 96 0 94 1;
#X connect 97 0 94 1;
#X connect 98 0 94 1;
#X connect 99 0 96 0;
#X connect 100 0 101 1;
#X connect 101 0 97 0;
#X connect 102 0 98 0;
#X connect 103 0 99 1;
#X connect 104 0 100 0;
#X connect 104 0 103 0;
#X connect 104 0 112 0;
#X connect 105 0 106 0;
#X connect 105 0 110 0;
#X connect 106 0 105 1;
#X connect 107 0 108 0;
#X connect 108 0 111 0;
#X connect 109 0 107 0;
#X connect 109 1 99 0;
#X connect 109 1 102 0;
#X connect 109 1 101 0;
#X connect 110 0 104 0;
#X connect 111 0 105 0;
#X connect 112 0 102 1;
#X connect 113 0 250 0;
#X connect 114 0 94 0;
#X connect 115 0 89 0;
#X connect 116 0 95 0;
#X connect 120 0 151 0;
#X connect 121 0 122 0;
#X connect 122 0 129 0;
#X connect 123 0 269 0;
#X connect 124 2 154 0;
#X connect 124 3 155 0;
#X connect 124 4 156 0;
#X connect 125 0 181 0;
#X connect 126 0 127 0;
#X connect 127 0 182 0;
#X connect 128 0 132 0;
#X connect 129 0 131 0;
#X connect 129 1 174 0;
#X connect 130 0 152 0;
#X connect 131 0 130 0;
#X connect 132 0 189 0;
#X connect 133 0 134 0;
#X connect 134 0 135 0;
#X connect 135 0 138 0;
#X connect 136 0 188 0;
#X connect 137 0 133 0;
#X connect 138 0 148 0;
#X connect 138 0 185 0;
#X connect 139 0 125 0;
#X connect 140 0 132 1;
#X connect 140 0 169 0;
#X connect 141 0 187 0;
#X connect 142 0 143 0;
#X connect 143 0 144 0;
#X connect 144 0 147 0;
#X connect 145 0 175 0;
#X connect 146 0 142 0;
#X connect 147 0 134 0;
#X connect 149 0 150 0;
#X connect 150 0 134 0;
#X connect 151 0 121 0;
#X connect 152 0 165 0;
#X connect 153 0 180 0;
#X connect 153 0 335 0;
#X connect 157 0 186 0;
#X connect 158 0 266 0;
#X connect 159 0 205 0;
#X connect 160 0 168 0;
#X connect 161 0 162 0;
#X connect 162 0 264 0;
#X connect 162 0 334 0;
#X connect 164 0 124 0;
#X connect 167 0 124 0;
#X connect 167 0 270 0;
#X connect 168 0 140 0;
#X connect 169 0 128 0;
#X connect 170 0 164 0;
#X connect 171 0 170 0;
#X connect 172 0 173 0;
#X connect 173 0 167 0;
#X connect 174 0 165 1;
#X connect 175 0 146 0;
#X connect 176 0 177 0;
#X connect 177 0 339 0;
#X connect 178 0 162 1;
#X connect 181 0 126 0;
#X connect 182 0 153 0;
#X connect 183 0 197 0;
#X connect 184 0 31 0;
#X connect 185 0 265 0;
#X connect 186 0 141 0;
#X connect 187 0 138 1;
#X connect 188 0 137 0;
#X connect 189 0 275 0;
#X connect 190 0 194 0;
#X connect 191 0 201 0;
#X connect 192 0 195 0;
#X connect 193 0 202 0;
#X connect 194 0 191 0;
#X connect 195 0 193 0;
#X connect 196 0 2 0;
#X connect 196 1 5 0;
#X connect 199 0 3 0;
#X connect 200 0 8 0;
#X connect 201 0 196 0;
#X connect 202 0 196 1;
#X connect 204 0 13 0;
#X connect 205 0 139 0;
#X connect 207 0 213 0;
#X connect 208 0 209 0;
#X connect 209 0 212 0;
#X connect 209 1 210 0;
#X connect 210 0 215 1;
#X connect 211 0 214 0;
#X connect 212 0 211 0;
#X connect 213 0 216 0;
#X connect 214 0 215 0;
#X connect 216 0 208 0;
#X connect 217 0 254 0;
#X connect 219 0 217 0;
#X connect 220 0 239 0;
#X connect 221 0 224 0;
#X connect 222 0 220 1;
#X connect 223 0 220 0;
#X connect 224 0 256 0;
#X connect 224 1 223 0;
#X connect 225 0 242 0;
#X connect 225 0 241 0;
#X connect 225 0 234 0;
#X connect 226 0 227 0;
#X connect 227 0 228 0;
#X connect 227 0 230 0;
#X connect 228 0 227 1;
#X connect 229 0 227 1;
#X connect 230 0 221 0;
#X connect 231 0 236 0;
#X connect 231 0 238 0;
#X connect 232 0 231 1;
#X connect 233 0 226 0;
#X connect 233 1 226 0;
#X connect 233 2 226 0;
#X connect 233 3 226 0;
#X connect 234 0 235 0;
#X connect 235 0 247 0;
#X connect 235 1 247 0;
#X connect 236 0 218 0;
#X connect 237 0 236 1;
#X connect 239 0 219 0;
#X connect 239 0 255 0;
#X connect 240 0 217 1;
#X connect 241 0 233 0;
#X connect 242 0 243 0;
#X connect 243 0 244 0;
#X connect 243 0 245 0;
#X connect 244 0 243 1;
#X connect 245 0 246 0;
#X connect 246 0 251 0;
#X connect 248 0 240 0;
#X connect 248 0 222 0;
#X connect 251 0 241 1;
#X connect 251 0 276 0;
#X connect 252 0 253 0;
#X connect 254 0 231 0;
#X connect 255 0 252 0;
#X connect 256 0 232 0;
#X connect 258 0 271 0;
#X connect 259 0 263 0;
#X connect 260 0 259 0;
#X connect 260 1 262 0;
#X connect 261 0 161 0;
#X connect 262 0 261 1;
#X connect 263 0 261 0;
#X connect 264 0 342 0;
#X connect 265 0 341 0;
#X connect 266 0 141 0;
#X connect 267 0 268 0;
#X connect 268 0 128 0;
#X connect 269 0 171 0;
#X connect 270 0 163 0;
#X connect 271 0 260 0;
#X connect 273 0 264 0;
#X connect 274 0 284 0;
#X connect 275 0 153 0;
#X connect 277 0 278 0;
#X connect 278 0 279 0;
#X connect 279 0 280 1;
#X connect 279 0 328 0;
#X connect 280 0 281 0;
#X connect 281 0 314 0;
#X connect 282 0 291 0;
#X connect 282 0 326 0;
#X connect 283 0 285 0;
#X connect 284 0 280 0;
#X connect 286 0 287 0;
#X connect 287 0 316 0;
#X connect 288 0 290 0;
#X connect 290 0 315 0;
#X connect 292 0 293 0;
#X connect 293 0 294 0;
#X connect 294 0 295 0;
#X connect 295 0 296 0;
#X connect 295 1 298 1;
#X connect 296 0 297 0;
#X connect 297 0 298 0;
#X connect 298 0 299 0;
#X connect 298 0 316 1;
#X connect 299 0 300 0;
#X connect 300 0 305 0;
#X connect 301 0 309 0;
#X connect 302 0 303 0;
#X connect 303 0 304 0;
#X connect 304 0 306 1;
#X connect 305 0 306 0;
#X connect 306 0 307 0;
#X connect 307 0 308 0;
#X connect 308 0 319 0;
#X connect 309 0 310 0;
#X connect 310 0 311 0;
#X connect 311 0 312 0;
#X connect 312 0 305 1;
#X connect 313 0 288 0;
#X connect 314 0 282 0;
#X connect 315 0 325 0;
#X connect 316 0 313 0;
#X connect 317 0 318 0;
#X connect 318 0 323 0;
#X connect 319 0 317 0;
#X connect 320 0 321 0;
#X connect 321 0 322 0;
#X connect 322 0 319 1;
#X connect 323 0 289 0;
#X connect 323 0 324 0;
#X connect 324 0 338 0;
#X connect 325 0 289 0;
#X connect 325 0 324 0;
#X connect 326 0 283 0;
#X connect 327 0 329 0;
#X connect 328 0 330 0;
#X connect 329 0 326 1;
#X connect 330 0 327 0;
#X connect 333 0 190 0;
#X connect 333 0 192 0;
#X connect 334 0 198 0;
#X connect 335 0 198 0;
#X connect 336 0 273 0;
#X connect 338 0 337 0;
#X connect 339 0 178 0;
#X connect 340 0 332 0;
#X connect 340 0 336 0;
#X connect 341 0 153 0;
#X connect 342 0 180 0;
#X coords 0 778 1 777 85 60 0;
