#N canvas 555 22 1242 848 10;
#X obj 67 92 tgl 15 0 empty empty empty 17 7 0 10 -262144 -1 -1 0 1
;
#X msg 67 113 \; pd dsp \$1;
#X obj 67 198 *~ 0.9;
#X obj 67 282 dac~ 1;
#X obj 67 261 *~ 0.9;
#X obj 67 240 hip~ 3;
#X obj 167 198 *~ 0.9;
#X obj 167 261 *~ 0.9;
#X obj 167 240 hip~ 3;
#X obj 67 167 catch~ s1;
#X obj 167 282 dac~ 2;
#X obj 56 317 cnv 15 380 460 empty empty empty 20 12 0 14 -158951 -66577
0;
#N canvas 360 158 628 378 rise-fall 0;
#X obj 32 161 abs~;
#X obj 32 182 *~ 4;
#X floatatom 32 98 5 0 0 0 - - -;
#X obj 32 140 -~ 0.8, f 14;
#X obj 32 203 sqrt~;
#X obj 32 224 -~ 1;
#X obj 32 245 abs~;
#X obj 32 296 outlet~;
#X obj 32 47 inlet;
#X obj 113 47 inlet;
#X text 34 17 TIME;
#X text 114 17 SHAPE;
#X text 114 29 (0-1);
#X text 31 30 (0-1);
#X obj 32 119 phasor~ 0.7;
#X obj 162 245 change;
#X obj 162 224 snapshot~;
#X obj 238 208 bang~;
#X obj 162 296 outlet;
#X obj 162 182 expr~ ($v1*100)%2;
#X obj 292 245 change;
#X obj 292 224 snapshot~;
#X obj 292 296 outlet;
#X obj 292 182 expr~ ($v1*100)%2;
#X obj 412 224 snapshot~;
#X obj 412 245 change;
#X obj 412 296 i;
#X obj 412 317 % 64;
#X obj 442 296 + 1;
#X obj 412 266 sel 1 0;
#X obj 412 182 expr~ ($v1*400)%2;
#X obj 412 338 s \$0-clock;
#X connect 0 0 1 0;
#X connect 1 0 4 0;
#X connect 2 0 14 0;
#X connect 3 0 0 0;
#X connect 4 0 5 0;
#X connect 5 0 6 0;
#X connect 5 0 19 0;
#X connect 6 0 7 0;
#X connect 8 0 2 0;
#X connect 9 0 3 1;
#X connect 14 0 3 0;
#X connect 14 0 23 0;
#X connect 14 0 30 0;
#X connect 15 0 18 0;
#X connect 16 0 15 0;
#X connect 17 0 16 0;
#X connect 17 0 21 0;
#X connect 17 0 24 0;
#X connect 19 0 16 0;
#X connect 20 0 22 0;
#X connect 21 0 20 0;
#X connect 23 0 21 0;
#X connect 24 0 25 0;
#X connect 25 0 29 0;
#X connect 26 0 27 0;
#X connect 27 0 28 0;
#X connect 27 0 31 0;
#X connect 28 0 26 1;
#X connect 29 0 26 0;
#X connect 29 1 26 0;
#X connect 30 0 24 0;
#X restore 168 475 pd rise-fall;
#X obj 240 408 hsl 100 18 0 127 0 0 empty empty SHAPE -2 -8 0 10 -262144
-1 -1 4833 1;
#X obj 237 431 / 127;
#X obj 171 368 hsl 100 18 0 127 0 0 empty empty TIME -2 -8 0 10 -262144
-1 -1 8341 1;
#X obj 168 412 abs;
#X obj 168 391 - 128;
#X obj 168 433 / 128;
#X obj 135 649 noise~;
#X obj 113 583 bang~;
#X obj 168 599 snapshot~;
#X obj 168 578 abs~;
#X obj 202 506 tgl 15 0 empty empty empty 17 7 0 10 -262144 -1 -1 0
1;
#X obj 168 454 pow 2;
#X obj 77 333 loadbang;
#X obj 135 670 lop~, f 6;
#X obj 168 536 *~ 2000;
#X obj 168 557 -~ 520;
#X msg 107 354 62;
#X obj 135 691 *~ 0.7;
#X msg 77 354 107;
#X obj 237 506 tgl 15 0 empty empty empty 17 7 0 10 -262144 -1 -1 1
1;
#X obj 237 671 lop~, f 6;
#N canvas 0 22 359 470 antiSquare 0;
#X obj 19 17 inlet;
#X obj 19 74 phasor~;
#X obj 19 158 *~ 0.064;
#X obj 19 185 rpole~ 0.93538;
#X obj 19 212 *~ 0.00431;
#X obj 19 239 cpole~ 0.96559 0.05592;
#X obj 19 266 cpole~ 0.96559 0.05592;
#X obj 19 293 *~ 0.125;
#X obj 19 320 rzero~ -1;
#X obj 19 347 rzero~ -1;
#X obj 19 374 rzero~ -1;
#X obj 19 431 outlet~;
#X obj 117 401 block~ 1024 1 16;
#X text 200 101 <- oscillator section;
#X text 200 251 <- filtering section;
#X obj 69 17 loadbang;
#X obj 69 44 f \$1;
#X obj 19 101 expr~ ($v1 < $v2) * 2 - 1;
#X obj 166 17 inlet;
#X obj 116 44 f \$2;
#X connect 0 0 1 0;
#X connect 1 0 17 0;
#X connect 2 0 3 0;
#X connect 3 0 4 0;
#X connect 4 0 5 0;
#X connect 5 0 6 0;
#X connect 5 1 6 1;
#X connect 6 0 7 0;
#X connect 7 0 8 0;
#X connect 8 0 9 0;
#X connect 9 0 10 0;
#X connect 10 0 11 0;
#X connect 15 0 16 0;
#X connect 15 0 19 0;
#X connect 16 0 1 0;
#X connect 17 0 2 0;
#X connect 18 0 17 1;
#X connect 19 0 17 1;
#X restore 237 649 pd antiSquare;
#X obj 270 599 snapshot~;
#X obj 270 578 abs~;
#X obj 270 557 +~ 120;
#X msg 312 628 0.3;
#X obj 357 614 loadbang;
#X msg 237 628 110;
#X obj 237 692 *~ 0.4;
#X obj 135 742 throw~ s1;
#X obj 237 742 throw~ s1;
#X obj 270 536 *~ 800;
#X text 69 779 Un generador de ruido y un oscilador de pulso cuyos
filtros [lop~] son controlados por un modulador [pd rise-fall].;
#N canvas 0 22 450 300 tanh~ 0;
#X obj 12 12 inlet~;
#X obj 27 64 *~;
#X obj 12 192 outlet~;
#X obj 27 140 /~;
#X obj 12 166 *~;
#X text 92 42 // http://www.musicdsp.org/showone.php?id=238;
#X text 92 62 // y = x * (27 + x^2) / (27 + 9*x^2);
#X obj 27 90 +~ 27;
#X obj 67 116 +~ 27;
#X text 92 22 // pade-approximation of tanh function;
#X obj 12 38 clip~ -3 3;
#X obj 67 90 *~ 9;
#X connect 0 0 10 0;
#X connect 1 0 7 0;
#X connect 1 0 11 0;
#X connect 3 0 4 1;
#X connect 4 0 2 0;
#X connect 7 0 3 0;
#X connect 8 0 3 1;
#X connect 10 0 1 0;
#X connect 10 0 1 1;
#X connect 10 0 4 0;
#X connect 11 0 8 0;
#X restore 67 219 pd tanh~;
#N canvas 0 22 450 300 tanh~ 0;
#X obj 12 12 inlet~;
#X obj 27 64 *~;
#X obj 12 192 outlet~;
#X obj 27 140 /~;
#X obj 12 166 *~;
#X text 92 42 // http://www.musicdsp.org/showone.php?id=238;
#X text 92 62 // y = x * (27 + x^2) / (27 + 9*x^2);
#X obj 27 90 +~ 27;
#X obj 67 116 +~ 27;
#X text 92 22 // pade-approximation of tanh function;
#X obj 12 38 clip~ -3 3;
#X obj 67 90 *~ 9;
#X connect 0 0 10 0;
#X connect 1 0 7 0;
#X connect 1 0 11 0;
#X connect 3 0 4 1;
#X connect 4 0 2 0;
#X connect 7 0 3 0;
#X connect 8 0 3 1;
#X connect 10 0 1 0;
#X connect 10 0 1 1;
#X connect 10 0 4 0;
#X connect 11 0 8 0;
#X restore 167 219 pd tanh~;
#X obj 466 317 cnv 15 380 460 empty empty empty 20 12 0 14 -194588
-66577 0;
#X obj 474 366 loadbang;
#X msg 474 387 0 2 4 5 7 9 11;
#X obj 474 408 array set \$0-scale;
#X obj 474 345 array define -k \$0-scale 7;
#A 0 0 2 4 5 7 9 11;
#X text 474 325 // Define y escribe la escala de Do mayor;
#X obj 631 402 r \$0-clock;
#X obj 658 486 sel 0;
#X obj 596 544 +;
#X obj 626 544 i;
#X obj 658 507 t b b;
#X msg 611 523 0;
#X obj 685 550 s \$0-seed;
#X obj 631 423 t b f;
#X obj 596 500 - 2;
#X obj 596 479 random 5;
#X obj 596 586 t f f;
#X obj 596 607 % 7;
#X obj 596 628 tabread \$0-scale;
#X obj 596 649 +;
#X obj 703 602 div 7;
#X obj 703 633 * 12;
#X obj 596 670 mtof;
#X obj 538 432 r \$0-seed;
#X obj 596 565 + 40;
#X obj 596 712 *~;
#X obj 596 753 throw~ s1;
#X obj 757 675 vline~;
#X obj 658 465 % 8;
#X obj 757 591 random 100;
#X obj 757 633 sel 1;
#X msg 757 570 seed 54;
#X msg 538 453 seed 5;
#X obj 757 612 < 100;
#X obj 757 550 r \$0-seed;
#X obj 1255 34 loadbang;
#N canvas 699 481 401 319 pulse-sinewave 0;
#X obj 17 67 inlet;
#X obj 17 262 outlet~;
#X obj 17 194 -~ 0.25;
#X obj 17 215 cos~;
#X obj 17 236 *~;
#N canvas 0 22 312 266 square-window 0;
#X obj 12 114 clip~ 0 1;
#X obj 12 66 -~;
#X obj 12 136 *~ -1;
#X obj 12 157 +~ 1;
#X obj 12 31 inlet~;
#X obj 152 47 inlet~;
#X obj 12 179 outlet~;
#X text 62 146 <= Invert Phase/Polarity;
#X text 152 27 (I2) Pulse Width;
#X text 12 11 (I1) Phasor Input;
#X text 12 199 (O1) Square Wave Window (0 to 1);
#X obj 12 90 *~ 1e+06;
#X connect 0 0 2 0;
#X connect 1 0 11 0;
#X connect 2 0 3 0;
#X connect 3 0 6 0;
#X connect 4 0 1 0;
#X connect 5 0 1 1;
#X connect 11 0 0 0;
#X restore 76 220 pd square-window;
#X obj 17 144 *~;
#X obj 96 108 sig~ 1;
#X obj 96 129 /~;
#X obj 169 92 sig~ 2;
#X obj 169 113 pow~;
#X obj 17 123 phasor~;
#X obj 213 55 inlet~;
#X obj 213 76 *~;
#X obj 263 39 /~ 2;
#X obj 263 60 +~ 0.5;
#X obj 213 97 *~;
#X obj 263 18 osc~ 0.2;
#X obj 325 18 osc~ 0.05;
#X obj 325 39 /~ 2;
#X obj 325 60 +~ 0.5;
#X obj 325 81 *~ -8;
#X connect 0 0 11 0;
#X connect 2 0 3 0;
#X connect 3 0 4 0;
#X connect 4 0 1 0;
#X connect 5 0 4 1;
#X connect 6 0 2 0;
#X connect 7 0 8 0;
#X connect 8 0 6 1;
#X connect 9 0 10 0;
#X connect 10 0 8 1;
#X connect 10 0 5 1;
#X connect 11 0 5 0;
#X connect 11 0 6 0;
#X connect 12 0 13 0;
#X connect 13 0 16 0;
#X connect 14 0 15 0;
#X connect 15 0 13 1;
#X connect 16 0 10 1;
#X connect 17 0 14 0;
#X connect 18 0 19 0;
#X connect 19 0 20 0;
#X connect 20 0 21 0;
#X connect 21 0 16 1;
#X restore 596 691 pd pulse-sinewave;
#X obj 596 733 /~ 2;
#X obj 784 482 div 32;
#X obj 784 503 * 25;
#X obj 784 524 + 75;
#X obj 757 696 pow~ 2;
#X msg 757 654 1 1 \, 0 250 1;
#X text 479 779 Un generador de sequencia en escala mayor con un oscilador
senoidal con la capacidad de modular su pulso.;
#X obj 658 444 + 1;
#X connect 0 0 1 0;
#X connect 2 0 46 0;
#X connect 4 0 3 0;
#X connect 5 0 4 0;
#X connect 6 0 47 0;
#X connect 7 0 10 0;
#X connect 8 0 7 0;
#X connect 9 0 6 0;
#X connect 9 0 2 0;
#X connect 12 0 27 0;
#X connect 12 1 23 0;
#X connect 12 2 32 0;
#X connect 13 0 14 0;
#X connect 14 0 12 1;
#X connect 15 0 17 0;
#X connect 16 0 18 0;
#X connect 17 0 16 0;
#X connect 18 0 24 0;
#X connect 19 0 26 0;
#X connect 20 0 21 0;
#X connect 20 0 35 0;
#X connect 21 0 26 1;
#X connect 22 0 21 0;
#X connect 24 0 12 0;
#X connect 25 0 29 0;
#X connect 25 0 31 0;
#X connect 26 0 30 0;
#X connect 27 0 28 0;
#X connect 28 0 22 0;
#X connect 29 0 13 0;
#X connect 30 0 42 0;
#X connect 31 0 15 0;
#X connect 32 0 44 0;
#X connect 33 0 41 0;
#X connect 34 0 33 0;
#X connect 35 0 33 1;
#X connect 36 0 35 0;
#X connect 37 0 36 0;
#X connect 38 0 34 1;
#X connect 39 0 38 0;
#X connect 39 0 40 0;
#X connect 40 0 34 0;
#X connect 41 0 43 0;
#X connect 44 0 37 0;
#X connect 46 0 5 0;
#X connect 47 0 8 0;
#X connect 49 0 50 0;
#X connect 50 0 51 0;
#X connect 54 0 61 0;
#X connect 55 0 58 0;
#X connect 56 0 57 0;
#X connect 56 0 72 0;
#X connect 57 0 56 1;
#X connect 58 0 59 0;
#X connect 58 1 60 0;
#X connect 59 0 56 1;
#X connect 61 0 63 0;
#X connect 61 0 77 0;
#X connect 61 1 92 0;
#X connect 61 1 86 0;
#X connect 62 0 56 0;
#X connect 63 0 62 0;
#X connect 64 0 65 0;
#X connect 64 1 68 0;
#X connect 65 0 66 0;
#X connect 66 0 67 0;
#X connect 67 0 70 0;
#X connect 68 0 69 0;
#X connect 69 0 67 1;
#X connect 70 0 84 0;
#X connect 71 0 80 0;
#X connect 72 0 64 0;
#X connect 73 0 85 0;
#X connect 75 0 89 0;
#X connect 76 0 55 0;
#X connect 77 0 81 0;
#X connect 78 0 90 0;
#X connect 79 0 77 0;
#X connect 80 0 63 0;
#X connect 81 0 78 0;
#X connect 82 0 79 0;
#X connect 84 0 73 0;
#X connect 85 0 74 0;
#X connect 86 0 87 0;
#X connect 87 0 88 0;
#X connect 88 0 81 1;
#X connect 89 0 73 1;
#X connect 89 0 84 1;
#X connect 90 0 75 0;
#X connect 92 0 76 0;
